G04 #@! TF.GenerationSoftware,KiCad,Pcbnew,5.1.9+dfsg1-1~bpo10+1*
G04 #@! TF.CreationDate,2021-05-29T21:01:30+02:00*
G04 #@! TF.ProjectId,esp_12e_traffic_monitor,6573705f-3132-4655-9f74-726166666963,C*
G04 #@! TF.SameCoordinates,Original*
G04 #@! TF.FileFunction,Soldermask,Bot*
G04 #@! TF.FilePolarity,Negative*
%FSLAX46Y46*%
G04 Gerber Fmt 4.6, Leading zero omitted, Abs format (unit mm)*
G04 Created by KiCad (PCBNEW 5.1.9+dfsg1-1~bpo10+1) date 2021-05-29 21:01:30*
%MOMM*%
%LPD*%
G01*
G04 APERTURE LIST*
%ADD10O,1.802000X1.802000*%
%ADD11O,3.150000X1.829200*%
%ADD12O,2.002000X1.302000*%
%ADD13C,0.502000*%
%ADD14C,0.100000*%
G04 APERTURE END LIST*
G36*
G01*
X165830000Y-98401000D02*
X164130000Y-98401000D01*
G75*
G02*
X164079000Y-98350000I0J51000D01*
G01*
X164079000Y-96650000D01*
G75*
G02*
X164130000Y-96599000I51000J0D01*
G01*
X165830000Y-96599000D01*
G75*
G02*
X165881000Y-96650000I0J-51000D01*
G01*
X165881000Y-98350000D01*
G75*
G02*
X165830000Y-98401000I-51000J0D01*
G01*
G37*
D10*
X167520000Y-97500000D03*
G36*
G01*
X111810000Y-113401000D02*
X110110000Y-113401000D01*
G75*
G02*
X110059000Y-113350000I0J51000D01*
G01*
X110059000Y-111650000D01*
G75*
G02*
X110110000Y-111599000I51000J0D01*
G01*
X111810000Y-111599000D01*
G75*
G02*
X111861000Y-111650000I0J-51000D01*
G01*
X111861000Y-113350000D01*
G75*
G02*
X111810000Y-113401000I-51000J0D01*
G01*
G37*
X113500000Y-112500000D03*
X116040000Y-112500000D03*
X97480000Y-97500000D03*
G36*
G01*
X99170000Y-96599000D02*
X100870000Y-96599000D01*
G75*
G02*
X100921000Y-96650000I0J-51000D01*
G01*
X100921000Y-98350000D01*
G75*
G02*
X100870000Y-98401000I-51000J0D01*
G01*
X99170000Y-98401000D01*
G75*
G02*
X99119000Y-98350000I0J51000D01*
G01*
X99119000Y-96650000D01*
G75*
G02*
X99170000Y-96599000I51000J0D01*
G01*
G37*
D11*
X105000000Y-124000000D03*
X105000000Y-129000000D03*
X92500000Y-124000000D03*
X92500000Y-129000000D03*
D12*
X92062500Y-113200000D03*
X92062500Y-119200000D03*
D13*
X94262500Y-114200000D03*
G36*
G01*
X95437500Y-116451000D02*
X94087500Y-116451000D01*
G75*
G02*
X94036500Y-116400000I0J51000D01*
G01*
X94036500Y-116000000D01*
G75*
G02*
X94087500Y-115949000I51000J0D01*
G01*
X95437500Y-115949000D01*
G75*
G02*
X95488500Y-116000000I0J-51000D01*
G01*
X95488500Y-116400000D01*
G75*
G02*
X95437500Y-116451000I-51000J0D01*
G01*
G37*
G36*
G01*
X95437500Y-115801000D02*
X94087500Y-115801000D01*
G75*
G02*
X94036500Y-115750000I0J51000D01*
G01*
X94036500Y-115350000D01*
G75*
G02*
X94087500Y-115299000I51000J0D01*
G01*
X95437500Y-115299000D01*
G75*
G02*
X95488500Y-115350000I0J-51000D01*
G01*
X95488500Y-115750000D01*
G75*
G02*
X95437500Y-115801000I-51000J0D01*
G01*
G37*
G36*
G01*
X95437500Y-115151000D02*
X94087500Y-115151000D01*
G75*
G02*
X94036500Y-115100000I0J51000D01*
G01*
X94036500Y-114700000D01*
G75*
G02*
X94087500Y-114649000I51000J0D01*
G01*
X95437500Y-114649000D01*
G75*
G02*
X95488500Y-114700000I0J-51000D01*
G01*
X95488500Y-115100000D01*
G75*
G02*
X95437500Y-115151000I-51000J0D01*
G01*
G37*
G36*
G01*
X95437500Y-117751000D02*
X94087500Y-117751000D01*
G75*
G02*
X94036500Y-117700000I0J51000D01*
G01*
X94036500Y-117300000D01*
G75*
G02*
X94087500Y-117249000I51000J0D01*
G01*
X95437500Y-117249000D01*
G75*
G02*
X95488500Y-117300000I0J-51000D01*
G01*
X95488500Y-117700000D01*
G75*
G02*
X95437500Y-117751000I-51000J0D01*
G01*
G37*
G36*
G01*
X95437500Y-117101000D02*
X94087500Y-117101000D01*
G75*
G02*
X94036500Y-117050000I0J51000D01*
G01*
X94036500Y-116650000D01*
G75*
G02*
X94087500Y-116599000I51000J0D01*
G01*
X95437500Y-116599000D01*
G75*
G02*
X95488500Y-116650000I0J-51000D01*
G01*
X95488500Y-117050000D01*
G75*
G02*
X95437500Y-117101000I-51000J0D01*
G01*
G37*
X94262500Y-118200000D03*
G36*
G01*
X92682500Y-117251000D02*
X91631500Y-117251000D01*
G75*
G02*
X91106000Y-116725500I0J525500D01*
G01*
X91106000Y-115674500D01*
G75*
G02*
X91631500Y-115149000I525500J0D01*
G01*
X92682500Y-115149000D01*
G75*
G02*
X93208000Y-115674500I0J-525500D01*
G01*
X93208000Y-116725500D01*
G75*
G02*
X92682500Y-117251000I-525500J0D01*
G01*
G37*
D14*
G36*
X94452852Y-117750000D02*
G01*
X94452852Y-117752000D01*
X94451316Y-117752990D01*
X94427129Y-117755372D01*
X94404054Y-117762372D01*
X94382790Y-117773737D01*
X94364153Y-117789032D01*
X94348858Y-117807669D01*
X94337493Y-117828933D01*
X94330493Y-117852008D01*
X94328130Y-117875998D01*
X94330493Y-117899990D01*
X94337493Y-117923065D01*
X94348858Y-117944329D01*
X94364153Y-117962966D01*
X94380631Y-117976488D01*
X94381335Y-117978360D01*
X94380067Y-117979906D01*
X94378597Y-117979882D01*
X94334779Y-117961732D01*
X94286903Y-117952209D01*
X94238097Y-117952209D01*
X94190221Y-117961732D01*
X94146403Y-117979882D01*
X94144420Y-117979621D01*
X94143655Y-117977773D01*
X94144369Y-117976488D01*
X94160847Y-117962965D01*
X94176142Y-117944328D01*
X94187507Y-117923064D01*
X94194507Y-117899989D01*
X94196870Y-117875998D01*
X94194507Y-117852007D01*
X94187507Y-117828932D01*
X94176141Y-117807669D01*
X94160846Y-117789032D01*
X94142209Y-117773737D01*
X94120945Y-117762372D01*
X94097870Y-117755372D01*
X94073684Y-117752990D01*
X94072058Y-117751825D01*
X94072254Y-117749835D01*
X94073880Y-117749000D01*
X94451120Y-117749000D01*
X94452852Y-117750000D01*
G37*
G36*
X91107990Y-116725304D02*
G01*
X91118067Y-116827625D01*
X91147858Y-116925831D01*
X91196234Y-117016336D01*
X91261336Y-117095664D01*
X91340664Y-117160766D01*
X91431169Y-117209142D01*
X91529375Y-117238933D01*
X91631696Y-117249010D01*
X91633322Y-117250175D01*
X91633126Y-117252165D01*
X91631500Y-117253000D01*
X91575140Y-117253000D01*
X91574944Y-117252990D01*
X91478594Y-117243501D01*
X91478209Y-117243425D01*
X91391469Y-117217112D01*
X91391107Y-117216962D01*
X91311168Y-117174234D01*
X91310842Y-117174016D01*
X91240769Y-117116508D01*
X91240492Y-117116231D01*
X91182984Y-117046158D01*
X91182766Y-117045832D01*
X91140038Y-116965893D01*
X91139888Y-116965531D01*
X91113575Y-116878791D01*
X91113499Y-116878406D01*
X91104010Y-116782056D01*
X91104000Y-116781860D01*
X91104000Y-116725500D01*
X91105000Y-116723768D01*
X91107000Y-116723768D01*
X91107990Y-116725304D01*
G37*
G36*
X93209165Y-116723874D02*
G01*
X93210000Y-116725500D01*
X93210000Y-116781860D01*
X93209990Y-116782056D01*
X93200501Y-116878406D01*
X93200425Y-116878791D01*
X93174112Y-116965531D01*
X93173962Y-116965893D01*
X93131234Y-117045832D01*
X93131016Y-117046158D01*
X93073508Y-117116231D01*
X93073231Y-117116508D01*
X93003158Y-117174016D01*
X93002832Y-117174234D01*
X92922893Y-117216962D01*
X92922531Y-117217112D01*
X92835791Y-117243425D01*
X92835406Y-117243501D01*
X92739056Y-117252990D01*
X92738860Y-117253000D01*
X92682500Y-117253000D01*
X92680768Y-117252000D01*
X92680768Y-117250000D01*
X92682304Y-117249010D01*
X92784625Y-117238933D01*
X92882831Y-117209142D01*
X92973336Y-117160766D01*
X93052664Y-117095664D01*
X93117766Y-117016336D01*
X93166142Y-116925831D01*
X93195933Y-116827625D01*
X93206010Y-116725304D01*
X93207175Y-116723678D01*
X93209165Y-116723874D01*
G37*
G36*
X95490232Y-117100000D02*
G01*
X95490500Y-117101000D01*
X95490500Y-117249000D01*
X95489500Y-117250732D01*
X95488500Y-117251000D01*
X94036500Y-117251000D01*
X94034768Y-117250000D01*
X94034500Y-117249000D01*
X94034500Y-117101000D01*
X94035500Y-117099268D01*
X94036500Y-117099000D01*
X95488500Y-117099000D01*
X95490232Y-117100000D01*
G37*
G36*
X95490232Y-116450000D02*
G01*
X95490500Y-116451000D01*
X95490500Y-116599000D01*
X95489500Y-116600732D01*
X95488500Y-116601000D01*
X94036500Y-116601000D01*
X94034768Y-116600000D01*
X94034500Y-116599000D01*
X94034500Y-116451000D01*
X94035500Y-116449268D01*
X94036500Y-116449000D01*
X95488500Y-116449000D01*
X95490232Y-116450000D01*
G37*
G36*
X95490232Y-115800000D02*
G01*
X95490500Y-115801000D01*
X95490500Y-115949000D01*
X95489500Y-115950732D01*
X95488500Y-115951000D01*
X94036500Y-115951000D01*
X94034768Y-115950000D01*
X94034500Y-115949000D01*
X94034500Y-115801000D01*
X94035500Y-115799268D01*
X94036500Y-115799000D01*
X95488500Y-115799000D01*
X95490232Y-115800000D01*
G37*
G36*
X91633232Y-115148000D02*
G01*
X91633232Y-115150000D01*
X91631696Y-115150990D01*
X91529375Y-115161067D01*
X91431169Y-115190858D01*
X91340664Y-115239234D01*
X91261336Y-115304336D01*
X91196234Y-115383664D01*
X91147858Y-115474169D01*
X91118067Y-115572375D01*
X91107990Y-115674696D01*
X91106825Y-115676322D01*
X91104835Y-115676126D01*
X91104000Y-115674500D01*
X91104000Y-115618140D01*
X91104010Y-115617944D01*
X91113499Y-115521594D01*
X91113575Y-115521209D01*
X91139888Y-115434469D01*
X91140038Y-115434107D01*
X91182766Y-115354168D01*
X91182984Y-115353842D01*
X91240492Y-115283769D01*
X91240769Y-115283492D01*
X91310842Y-115225984D01*
X91311168Y-115225766D01*
X91391107Y-115183038D01*
X91391469Y-115182888D01*
X91478209Y-115156575D01*
X91478594Y-115156499D01*
X91574944Y-115147010D01*
X91575140Y-115147000D01*
X91631500Y-115147000D01*
X91633232Y-115148000D01*
G37*
G36*
X92739056Y-115147010D02*
G01*
X92835406Y-115156499D01*
X92835791Y-115156575D01*
X92922531Y-115182888D01*
X92922893Y-115183038D01*
X93002832Y-115225766D01*
X93003158Y-115225984D01*
X93073231Y-115283492D01*
X93073508Y-115283769D01*
X93131016Y-115353842D01*
X93131234Y-115354168D01*
X93173962Y-115434107D01*
X93174112Y-115434469D01*
X93200425Y-115521209D01*
X93200501Y-115521594D01*
X93209990Y-115617944D01*
X93210000Y-115618140D01*
X93210000Y-115674500D01*
X93209000Y-115676232D01*
X93207000Y-115676232D01*
X93206010Y-115674696D01*
X93195933Y-115572375D01*
X93166142Y-115474169D01*
X93117766Y-115383664D01*
X93052664Y-115304336D01*
X92973336Y-115239234D01*
X92882831Y-115190858D01*
X92784625Y-115161067D01*
X92682304Y-115150990D01*
X92680678Y-115149825D01*
X92680874Y-115147835D01*
X92682500Y-115147000D01*
X92738860Y-115147000D01*
X92739056Y-115147010D01*
G37*
G36*
X95490232Y-115150000D02*
G01*
X95490500Y-115151000D01*
X95490500Y-115299000D01*
X95489500Y-115300732D01*
X95488500Y-115301000D01*
X94036500Y-115301000D01*
X94034768Y-115300000D01*
X94034500Y-115299000D01*
X94034500Y-115151000D01*
X94035500Y-115149268D01*
X94036500Y-115149000D01*
X95488500Y-115149000D01*
X95490232Y-115150000D01*
G37*
G36*
X94146403Y-114420118D02*
G01*
X94190221Y-114438268D01*
X94238097Y-114447791D01*
X94286903Y-114447791D01*
X94334779Y-114438268D01*
X94378597Y-114420118D01*
X94380580Y-114420379D01*
X94381345Y-114422227D01*
X94380631Y-114423512D01*
X94364153Y-114437035D01*
X94348858Y-114455672D01*
X94337493Y-114476936D01*
X94330493Y-114500011D01*
X94328130Y-114524001D01*
X94330493Y-114547993D01*
X94337493Y-114571068D01*
X94348859Y-114592331D01*
X94364154Y-114610968D01*
X94382791Y-114626263D01*
X94404055Y-114637628D01*
X94427130Y-114644628D01*
X94451316Y-114647010D01*
X94452942Y-114648175D01*
X94452746Y-114650165D01*
X94451120Y-114651000D01*
X94073880Y-114651000D01*
X94072148Y-114650000D01*
X94072148Y-114648000D01*
X94073684Y-114647010D01*
X94097871Y-114644628D01*
X94120946Y-114637628D01*
X94142210Y-114626263D01*
X94160847Y-114610968D01*
X94176142Y-114592331D01*
X94187507Y-114571067D01*
X94194507Y-114547992D01*
X94196870Y-114524001D01*
X94194507Y-114500010D01*
X94187507Y-114476935D01*
X94176142Y-114455671D01*
X94160847Y-114437034D01*
X94144369Y-114423512D01*
X94143665Y-114421640D01*
X94144933Y-114420094D01*
X94146403Y-114420118D01*
G37*
M02*
