G04 #@! TF.GenerationSoftware,KiCad,Pcbnew,5.1.9+dfsg1-1~bpo10+1*
G04 #@! TF.CreationDate,2021-05-29T21:01:30+02:00*
G04 #@! TF.ProjectId,esp_12e_traffic_monitor,6573705f-3132-4655-9f74-726166666963,C*
G04 #@! TF.SameCoordinates,Original*
G04 #@! TF.FileFunction,Copper,L2,Bot*
G04 #@! TF.FilePolarity,Positive*
%FSLAX46Y46*%
G04 Gerber Fmt 4.6, Leading zero omitted, Abs format (unit mm)*
G04 Created by KiCad (PCBNEW 5.1.9+dfsg1-1~bpo10+1) date 2021-05-29 21:01:30*
%MOMM*%
%LPD*%
G01*
G04 APERTURE LIST*
G04 #@! TA.AperFunction,ComponentPad*
%ADD10R,1.700000X1.700000*%
G04 #@! TD*
G04 #@! TA.AperFunction,ComponentPad*
%ADD11O,1.700000X1.700000*%
G04 #@! TD*
G04 #@! TA.AperFunction,ComponentPad*
%ADD12O,3.048000X1.727200*%
G04 #@! TD*
G04 #@! TA.AperFunction,ComponentPad*
%ADD13O,1.900000X1.200000*%
G04 #@! TD*
G04 #@! TA.AperFunction,SMDPad,CuDef*
%ADD14R,1.350000X0.400000*%
G04 #@! TD*
G04 #@! TA.AperFunction,ViaPad*
%ADD15C,0.600000*%
G04 #@! TD*
G04 #@! TA.AperFunction,Conductor*
%ADD16C,0.304800*%
G04 #@! TD*
G04 #@! TA.AperFunction,Conductor*
%ADD17C,0.177800*%
G04 #@! TD*
G04 #@! TA.AperFunction,Conductor*
%ADD18C,0.100000*%
G04 #@! TD*
G04 APERTURE END LIST*
D10*
X164980000Y-97500000D03*
D11*
X167520000Y-97500000D03*
D10*
X110960000Y-112500000D03*
D11*
X113500000Y-112500000D03*
X116040000Y-112500000D03*
X97480000Y-97500000D03*
D10*
X100020000Y-97500000D03*
D12*
X105000000Y-124000000D03*
X105000000Y-129000000D03*
X92500000Y-124000000D03*
X92500000Y-129000000D03*
D13*
X92062500Y-113200000D03*
X92062500Y-119200000D03*
D14*
X94762500Y-116200000D03*
X94762500Y-115550000D03*
X94762500Y-114900000D03*
X94762500Y-117500000D03*
X94762500Y-116850000D03*
G04 #@! TA.AperFunction,SMDPad,CuDef*
G36*
G01*
X92657000Y-117200000D02*
X91657000Y-117200000D01*
G75*
G02*
X91157000Y-116700000I0J500000D01*
G01*
X91157000Y-115700000D01*
G75*
G02*
X91657000Y-115200000I500000J0D01*
G01*
X92657000Y-115200000D01*
G75*
G02*
X93157000Y-115700000I0J-500000D01*
G01*
X93157000Y-116700000D01*
G75*
G02*
X92657000Y-117200000I-500000J0D01*
G01*
G37*
G04 #@! TD.AperFunction*
D15*
X106000000Y-118500000D03*
X109000000Y-121500000D03*
X102800000Y-118600000D03*
X117100000Y-119800000D03*
X120000000Y-119800000D03*
X99700000Y-114100000D03*
X143000000Y-126400000D03*
X143000000Y-130900000D03*
X145700000Y-118100000D03*
X147550000Y-126400000D03*
X153100000Y-127900000D03*
X151800000Y-131400000D03*
X152200000Y-115200000D03*
X159200000Y-119200000D03*
X158500000Y-130900000D03*
X157550000Y-127800000D03*
X101300000Y-115600000D03*
X116500000Y-123700000D03*
X172300000Y-122900000D03*
X147400000Y-113500000D03*
X163900000Y-99400000D03*
X105100000Y-114100000D03*
X117800000Y-115500000D03*
X137500000Y-111300000D03*
X117800000Y-114722197D03*
X127600000Y-114700000D03*
X146900000Y-127900000D03*
X165100000Y-102400000D03*
X150500000Y-128000000D03*
X161000000Y-112100000D03*
X155000000Y-128027800D03*
X163300000Y-112100000D03*
X159500000Y-128000000D03*
X163900000Y-116400000D03*
X160750000Y-120250000D03*
X149600000Y-131300014D03*
X155000000Y-122800000D03*
X151800000Y-130200000D03*
X152000000Y-132500000D03*
X161000000Y-124500000D03*
X157000000Y-122800000D03*
X156300000Y-130200000D03*
X151200000Y-115800000D03*
X128700000Y-121300000D03*
D16*
X99000000Y-115600000D02*
X101300000Y-115600000D01*
X97100000Y-117500000D02*
X99000000Y-115600000D01*
X94762500Y-117500000D02*
X97100000Y-117500000D01*
X172300000Y-129200000D02*
X172300000Y-122900000D01*
X116500000Y-123700000D02*
X116500000Y-130100000D01*
X116500000Y-130100000D02*
X119700000Y-133300000D01*
X119700000Y-133300000D02*
X168200000Y-133300000D01*
X168200000Y-133300000D02*
X172300000Y-129200000D01*
D17*
X163900000Y-99400000D02*
X163900000Y-104200000D01*
X163900000Y-104200000D02*
X154600000Y-113500000D01*
X154600000Y-113500000D02*
X147824264Y-113500000D01*
X147824264Y-113500000D02*
X147400000Y-113500000D01*
X146975736Y-113500000D02*
X147400000Y-113500000D01*
X105100000Y-114100000D02*
X107066701Y-116066701D01*
X128233299Y-116066701D02*
X130800000Y-113500000D01*
X107066701Y-116066701D02*
X128233299Y-116066701D01*
X130800000Y-113500000D02*
X146975736Y-113500000D01*
X128000000Y-115500000D02*
X132200000Y-111300000D01*
X132200000Y-111300000D02*
X137500000Y-111300000D01*
X117800000Y-115500000D02*
X128000000Y-115500000D01*
X127577803Y-114722197D02*
X127600000Y-114700000D01*
X117800000Y-114722197D02*
X127577803Y-114722197D01*
X165100000Y-105161282D02*
X165100000Y-102400000D01*
X146900000Y-123361282D02*
X165100000Y-105161282D01*
X146900000Y-127900000D02*
X146900000Y-123361282D01*
X150750000Y-127750000D02*
X150500000Y-128000000D01*
X150750000Y-125500000D02*
X150750000Y-127750000D01*
X161000000Y-115250000D02*
X150750000Y-125500000D01*
X161000000Y-112100000D02*
X161000000Y-115250000D01*
X163300000Y-118538718D02*
X163300000Y-112100000D01*
X155000000Y-128027800D02*
X155700000Y-127327800D01*
X155700000Y-127327800D02*
X155700000Y-123200000D01*
X155700000Y-123200000D02*
X158083299Y-120816701D01*
X161022017Y-120816701D02*
X163300000Y-118538718D01*
X158083299Y-120816701D02*
X161022017Y-120816701D01*
X163900000Y-118500000D02*
X163900000Y-116400000D01*
X159500000Y-122900000D02*
X163900000Y-118500000D01*
X159500000Y-128000000D02*
X159500000Y-122900000D01*
X160750000Y-120250000D02*
X156547091Y-120250000D01*
X149899999Y-131000015D02*
X149600000Y-131300014D01*
X151200000Y-129700014D02*
X149899999Y-131000015D01*
X151200000Y-125597091D02*
X151200000Y-129700014D01*
X156547091Y-120250000D02*
X151200000Y-125597091D01*
X151800000Y-125500000D02*
X151800000Y-130200000D01*
X154500000Y-122800000D02*
X151800000Y-125500000D01*
X155000000Y-122800000D02*
X154500000Y-122800000D01*
X161000000Y-129750000D02*
X161000000Y-124500000D01*
X158250000Y-132500000D02*
X161000000Y-129750000D01*
X152000000Y-132500000D02*
X158250000Y-132500000D01*
X156300000Y-123450000D02*
X156300000Y-130200000D01*
X156950000Y-122800000D02*
X156300000Y-123450000D01*
X157000000Y-122800000D02*
X156950000Y-122800000D01*
X134200000Y-115800000D02*
X128700000Y-121300000D01*
X151200000Y-115800000D02*
X134200000Y-115800000D01*
X92062500Y-116294500D02*
X92157000Y-116200000D01*
X92062500Y-119200000D02*
X92062500Y-116294500D01*
X92062500Y-116105500D02*
X92157000Y-116200000D01*
X92062500Y-113200000D02*
X92062500Y-116105500D01*
X105418897Y-95384412D02*
X105821842Y-95506068D01*
X106193476Y-95703670D01*
X106519658Y-95969697D01*
X106787952Y-96294009D01*
X106988146Y-96664260D01*
X107112612Y-97066345D01*
X107158301Y-97501044D01*
X107158300Y-107516783D01*
X107158359Y-107517378D01*
X107158363Y-107518647D01*
X107159871Y-107533494D01*
X107159767Y-107548422D01*
X107160233Y-107553170D01*
X107211234Y-108038413D01*
X107217453Y-108068710D01*
X107223264Y-108099171D01*
X107224643Y-108103738D01*
X107368923Y-108569832D01*
X107380925Y-108598383D01*
X107392526Y-108627097D01*
X107394766Y-108631310D01*
X107626830Y-109060503D01*
X107644150Y-109086180D01*
X107661106Y-109112092D01*
X107664121Y-109115789D01*
X107975130Y-109491735D01*
X107997071Y-109513523D01*
X108018773Y-109535685D01*
X108022450Y-109538726D01*
X108400557Y-109847102D01*
X108426344Y-109864235D01*
X108451906Y-109881737D01*
X108456103Y-109884006D01*
X108886906Y-110113068D01*
X108915519Y-110124861D01*
X108944004Y-110137070D01*
X108948562Y-110138481D01*
X109415651Y-110279504D01*
X109446023Y-110285518D01*
X109476325Y-110291959D01*
X109481070Y-110292457D01*
X109966417Y-110340046D01*
X109983216Y-110341700D01*
X155016784Y-110341700D01*
X155017379Y-110341641D01*
X155018647Y-110341637D01*
X155033494Y-110340129D01*
X155048422Y-110340233D01*
X155053170Y-110339767D01*
X155538413Y-110288766D01*
X155568710Y-110282547D01*
X155599171Y-110276736D01*
X155603738Y-110275357D01*
X156069832Y-110131077D01*
X156098383Y-110119075D01*
X156127097Y-110107474D01*
X156131310Y-110105234D01*
X156560503Y-109873170D01*
X156586180Y-109855850D01*
X156612092Y-109838894D01*
X156615789Y-109835879D01*
X156991735Y-109524870D01*
X157013523Y-109502929D01*
X157035685Y-109481227D01*
X157038726Y-109477550D01*
X157347102Y-109099443D01*
X157364235Y-109073656D01*
X157381737Y-109048094D01*
X157384006Y-109043897D01*
X157613068Y-108613094D01*
X157624861Y-108584481D01*
X157637070Y-108555996D01*
X157638481Y-108551438D01*
X157779504Y-108084349D01*
X157785518Y-108053977D01*
X157791959Y-108023675D01*
X157792457Y-108018930D01*
X157840069Y-107533344D01*
X157841700Y-107516784D01*
X157841700Y-97516710D01*
X157884412Y-97081103D01*
X158006068Y-96678158D01*
X158021039Y-96650000D01*
X163862010Y-96650000D01*
X163862010Y-98350000D01*
X163867159Y-98402282D01*
X163882410Y-98452555D01*
X163907174Y-98498887D01*
X163940502Y-98539498D01*
X163981113Y-98572826D01*
X164027445Y-98597590D01*
X164077718Y-98612841D01*
X164130000Y-98617990D01*
X165830000Y-98617990D01*
X165882282Y-98612841D01*
X165932555Y-98597590D01*
X165978887Y-98572826D01*
X166019498Y-98539498D01*
X166052826Y-98498887D01*
X166077590Y-98452555D01*
X166092841Y-98402282D01*
X166097990Y-98350000D01*
X166097990Y-97390015D01*
X166403300Y-97390015D01*
X166403300Y-97609985D01*
X166446214Y-97825729D01*
X166530394Y-98028956D01*
X166652603Y-98211855D01*
X166808145Y-98367397D01*
X166991044Y-98489606D01*
X167194271Y-98573786D01*
X167410015Y-98616700D01*
X167629985Y-98616700D01*
X167845729Y-98573786D01*
X168048956Y-98489606D01*
X168231855Y-98367397D01*
X168387397Y-98211855D01*
X168509606Y-98028956D01*
X168593786Y-97825729D01*
X168636700Y-97609985D01*
X168636700Y-97390015D01*
X168593786Y-97174271D01*
X168509606Y-96971044D01*
X168387397Y-96788145D01*
X168231855Y-96632603D01*
X168048956Y-96510394D01*
X167845729Y-96426214D01*
X167629985Y-96383300D01*
X167410015Y-96383300D01*
X167194271Y-96426214D01*
X166991044Y-96510394D01*
X166808145Y-96632603D01*
X166652603Y-96788145D01*
X166530394Y-96971044D01*
X166446214Y-97174271D01*
X166403300Y-97390015D01*
X166097990Y-97390015D01*
X166097990Y-96650000D01*
X166092841Y-96597718D01*
X166077590Y-96547445D01*
X166052826Y-96501113D01*
X166019498Y-96460502D01*
X165978887Y-96427174D01*
X165932555Y-96402410D01*
X165882282Y-96387159D01*
X165830000Y-96382010D01*
X164130000Y-96382010D01*
X164077718Y-96387159D01*
X164027445Y-96402410D01*
X163981113Y-96427174D01*
X163940502Y-96460502D01*
X163907174Y-96501113D01*
X163882410Y-96547445D01*
X163867159Y-96597718D01*
X163862010Y-96650000D01*
X158021039Y-96650000D01*
X158203670Y-96306524D01*
X158469697Y-95980342D01*
X158794009Y-95712048D01*
X159164260Y-95511854D01*
X159566345Y-95387388D01*
X160001034Y-95341700D01*
X172483290Y-95341700D01*
X172918897Y-95384412D01*
X173321842Y-95506068D01*
X173693476Y-95703670D01*
X174019658Y-95969697D01*
X174287952Y-96294009D01*
X174488146Y-96664260D01*
X174612612Y-97066345D01*
X174658301Y-97501044D01*
X174658300Y-132483290D01*
X174615588Y-132918897D01*
X174493933Y-133321839D01*
X174296329Y-133693480D01*
X174030304Y-134019658D01*
X173705990Y-134287953D01*
X173335741Y-134488146D01*
X172933655Y-134612612D01*
X172498967Y-134658300D01*
X92516710Y-134658300D01*
X92081103Y-134615588D01*
X91678161Y-134493933D01*
X91306520Y-134296329D01*
X90980342Y-134030304D01*
X90712047Y-133705990D01*
X90511854Y-133335741D01*
X90387388Y-132933655D01*
X90341700Y-132498967D01*
X90341700Y-129193324D01*
X90700184Y-129193324D01*
X90703628Y-129213010D01*
X90767012Y-129430534D01*
X90871614Y-129631513D01*
X91013416Y-129808223D01*
X91186967Y-129953874D01*
X91385599Y-130062868D01*
X91601678Y-130131016D01*
X91826900Y-130155700D01*
X92487300Y-130155700D01*
X92487300Y-129012700D01*
X92512700Y-129012700D01*
X92512700Y-130155700D01*
X93173100Y-130155700D01*
X93398322Y-130131016D01*
X93614401Y-130062868D01*
X93813033Y-129953874D01*
X93986584Y-129808223D01*
X94128386Y-129631513D01*
X94232988Y-129430534D01*
X94296372Y-129213010D01*
X94299816Y-129193324D01*
X103200184Y-129193324D01*
X103203628Y-129213010D01*
X103267012Y-129430534D01*
X103371614Y-129631513D01*
X103513416Y-129808223D01*
X103686967Y-129953874D01*
X103885599Y-130062868D01*
X104101678Y-130131016D01*
X104326900Y-130155700D01*
X104987300Y-130155700D01*
X104987300Y-129012700D01*
X105012700Y-129012700D01*
X105012700Y-130155700D01*
X105673100Y-130155700D01*
X105898322Y-130131016D01*
X106114401Y-130062868D01*
X106313033Y-129953874D01*
X106486584Y-129808223D01*
X106628386Y-129631513D01*
X106732988Y-129430534D01*
X106796372Y-129213010D01*
X106799816Y-129193324D01*
X106743001Y-129012700D01*
X105012700Y-129012700D01*
X104987300Y-129012700D01*
X103256999Y-129012700D01*
X103200184Y-129193324D01*
X94299816Y-129193324D01*
X94243001Y-129012700D01*
X92512700Y-129012700D01*
X92487300Y-129012700D01*
X90756999Y-129012700D01*
X90700184Y-129193324D01*
X90341700Y-129193324D01*
X90341700Y-128806676D01*
X90700184Y-128806676D01*
X90756999Y-128987300D01*
X92487300Y-128987300D01*
X92487300Y-127844300D01*
X92512700Y-127844300D01*
X92512700Y-128987300D01*
X94243001Y-128987300D01*
X94299816Y-128806676D01*
X103200184Y-128806676D01*
X103256999Y-128987300D01*
X104987300Y-128987300D01*
X104987300Y-127844300D01*
X105012700Y-127844300D01*
X105012700Y-128987300D01*
X106743001Y-128987300D01*
X106799816Y-128806676D01*
X106796372Y-128786990D01*
X106732988Y-128569466D01*
X106628386Y-128368487D01*
X106486584Y-128191777D01*
X106313033Y-128046126D01*
X106114401Y-127937132D01*
X105898322Y-127868984D01*
X105673100Y-127844300D01*
X105012700Y-127844300D01*
X104987300Y-127844300D01*
X104326900Y-127844300D01*
X104101678Y-127868984D01*
X103885599Y-127937132D01*
X103686967Y-128046126D01*
X103513416Y-128191777D01*
X103371614Y-128368487D01*
X103267012Y-128569466D01*
X103203628Y-128786990D01*
X103200184Y-128806676D01*
X94299816Y-128806676D01*
X94296372Y-128786990D01*
X94232988Y-128569466D01*
X94128386Y-128368487D01*
X93986584Y-128191777D01*
X93813033Y-128046126D01*
X93614401Y-127937132D01*
X93398322Y-127868984D01*
X93173100Y-127844300D01*
X92512700Y-127844300D01*
X92487300Y-127844300D01*
X91826900Y-127844300D01*
X91601678Y-127868984D01*
X91385599Y-127937132D01*
X91186967Y-128046126D01*
X91013416Y-128191777D01*
X90871614Y-128368487D01*
X90767012Y-128569466D01*
X90703628Y-128786990D01*
X90700184Y-128806676D01*
X90341700Y-128806676D01*
X90341700Y-124000000D01*
X90703831Y-124000000D01*
X90725654Y-124221578D01*
X90790286Y-124434640D01*
X90895243Y-124630999D01*
X91036490Y-124803110D01*
X91208601Y-124944357D01*
X91404960Y-125049314D01*
X91618022Y-125113946D01*
X91784071Y-125130300D01*
X93215929Y-125130300D01*
X93381978Y-125113946D01*
X93595040Y-125049314D01*
X93791399Y-124944357D01*
X93963510Y-124803110D01*
X94104757Y-124630999D01*
X94209714Y-124434640D01*
X94274346Y-124221578D01*
X94296169Y-124000000D01*
X103203831Y-124000000D01*
X103225654Y-124221578D01*
X103290286Y-124434640D01*
X103395243Y-124630999D01*
X103536490Y-124803110D01*
X103708601Y-124944357D01*
X103904960Y-125049314D01*
X104118022Y-125113946D01*
X104284071Y-125130300D01*
X105715929Y-125130300D01*
X105881978Y-125113946D01*
X106095040Y-125049314D01*
X106291399Y-124944357D01*
X106463510Y-124803110D01*
X106604757Y-124630999D01*
X106709714Y-124434640D01*
X106774346Y-124221578D01*
X106796169Y-124000000D01*
X106774346Y-123778422D01*
X106733626Y-123644185D01*
X115933300Y-123644185D01*
X115933300Y-123755815D01*
X115955078Y-123865300D01*
X115997797Y-123968433D01*
X116059815Y-124061250D01*
X116080900Y-124082335D01*
X116080901Y-130079410D01*
X116078873Y-130100000D01*
X116086965Y-130182157D01*
X116110930Y-130261158D01*
X116149846Y-130333965D01*
X116165814Y-130353422D01*
X116202219Y-130397782D01*
X116218206Y-130410902D01*
X119389098Y-133581794D01*
X119402218Y-133597782D01*
X119445355Y-133633183D01*
X119466034Y-133650154D01*
X119534214Y-133686597D01*
X119538842Y-133689071D01*
X119617842Y-133713035D01*
X119679420Y-133719100D01*
X119679422Y-133719100D01*
X119699999Y-133721127D01*
X119720577Y-133719100D01*
X168179420Y-133719100D01*
X168200000Y-133721127D01*
X168220580Y-133719100D01*
X168282158Y-133713035D01*
X168361158Y-133689071D01*
X168433966Y-133650154D01*
X168497782Y-133597782D01*
X168510907Y-133581789D01*
X172581790Y-129510906D01*
X172597782Y-129497782D01*
X172650154Y-129433966D01*
X172689071Y-129361158D01*
X172713035Y-129282158D01*
X172719100Y-129220580D01*
X172719100Y-129220579D01*
X172721127Y-129200000D01*
X172719100Y-129179420D01*
X172719100Y-123282335D01*
X172740185Y-123261250D01*
X172802203Y-123168433D01*
X172844922Y-123065300D01*
X172866700Y-122955815D01*
X172866700Y-122844185D01*
X172844922Y-122734700D01*
X172802203Y-122631567D01*
X172740185Y-122538750D01*
X172661250Y-122459815D01*
X172568433Y-122397797D01*
X172465300Y-122355078D01*
X172355815Y-122333300D01*
X172244185Y-122333300D01*
X172134700Y-122355078D01*
X172031567Y-122397797D01*
X171938750Y-122459815D01*
X171859815Y-122538750D01*
X171797797Y-122631567D01*
X171755078Y-122734700D01*
X171733300Y-122844185D01*
X171733300Y-122955815D01*
X171755078Y-123065300D01*
X171797797Y-123168433D01*
X171859815Y-123261250D01*
X171880901Y-123282336D01*
X171880900Y-129026404D01*
X168026404Y-132880900D01*
X152420535Y-132880900D01*
X152440185Y-132861250D01*
X152443960Y-132855600D01*
X158232545Y-132855600D01*
X158250000Y-132857319D01*
X158267455Y-132855600D01*
X158267463Y-132855600D01*
X158319710Y-132850454D01*
X158386740Y-132830121D01*
X158448516Y-132797101D01*
X158502663Y-132752663D01*
X158513799Y-132739094D01*
X161239110Y-130013785D01*
X161252662Y-130002663D01*
X161263785Y-129989110D01*
X161263795Y-129989100D01*
X161297100Y-129948517D01*
X161297102Y-129948515D01*
X161330121Y-129886740D01*
X161350454Y-129819710D01*
X161355600Y-129767463D01*
X161355600Y-129767454D01*
X161357319Y-129750001D01*
X161355600Y-129732548D01*
X161355600Y-124943960D01*
X161361250Y-124940185D01*
X161440185Y-124861250D01*
X161502203Y-124768433D01*
X161544922Y-124665300D01*
X161566700Y-124555815D01*
X161566700Y-124444185D01*
X161544922Y-124334700D01*
X161502203Y-124231567D01*
X161440185Y-124138750D01*
X161361250Y-124059815D01*
X161268433Y-123997797D01*
X161165300Y-123955078D01*
X161055815Y-123933300D01*
X160944185Y-123933300D01*
X160834700Y-123955078D01*
X160731567Y-123997797D01*
X160638750Y-124059815D01*
X160559815Y-124138750D01*
X160497797Y-124231567D01*
X160455078Y-124334700D01*
X160433300Y-124444185D01*
X160433300Y-124555815D01*
X160455078Y-124665300D01*
X160497797Y-124768433D01*
X160559815Y-124861250D01*
X160638750Y-124940185D01*
X160644401Y-124943961D01*
X160644400Y-129602705D01*
X158102707Y-132144400D01*
X152443960Y-132144400D01*
X152440185Y-132138750D01*
X152361250Y-132059815D01*
X152268433Y-131997797D01*
X152165300Y-131955078D01*
X152055815Y-131933300D01*
X151944185Y-131933300D01*
X151834700Y-131955078D01*
X151731567Y-131997797D01*
X151638750Y-132059815D01*
X151559815Y-132138750D01*
X151497797Y-132231567D01*
X151455078Y-132334700D01*
X151433300Y-132444185D01*
X151433300Y-132555815D01*
X151455078Y-132665300D01*
X151497797Y-132768433D01*
X151559815Y-132861250D01*
X151579465Y-132880900D01*
X119873597Y-132880900D01*
X118236896Y-131244199D01*
X149033300Y-131244199D01*
X149033300Y-131355829D01*
X149055078Y-131465314D01*
X149097797Y-131568447D01*
X149159815Y-131661264D01*
X149238750Y-131740199D01*
X149331567Y-131802217D01*
X149434700Y-131844936D01*
X149544185Y-131866714D01*
X149655815Y-131866714D01*
X149765300Y-131844936D01*
X149868433Y-131802217D01*
X149961250Y-131740199D01*
X150040185Y-131661264D01*
X150102203Y-131568447D01*
X150144922Y-131465314D01*
X150166700Y-131355829D01*
X150166700Y-131244199D01*
X150165374Y-131237533D01*
X151233300Y-130169608D01*
X151233300Y-130255815D01*
X151255078Y-130365300D01*
X151297797Y-130468433D01*
X151359815Y-130561250D01*
X151438750Y-130640185D01*
X151531567Y-130702203D01*
X151634700Y-130744922D01*
X151744185Y-130766700D01*
X151855815Y-130766700D01*
X151965300Y-130744922D01*
X152068433Y-130702203D01*
X152161250Y-130640185D01*
X152240185Y-130561250D01*
X152302203Y-130468433D01*
X152344922Y-130365300D01*
X152366700Y-130255815D01*
X152366700Y-130144185D01*
X152344922Y-130034700D01*
X152302203Y-129931567D01*
X152240185Y-129838750D01*
X152161250Y-129759815D01*
X152155600Y-129756040D01*
X152155600Y-125647293D01*
X154600729Y-123202164D01*
X154638750Y-123240185D01*
X154731567Y-123302203D01*
X154834700Y-123344922D01*
X154944185Y-123366700D01*
X155055815Y-123366700D01*
X155165300Y-123344922D01*
X155268433Y-123302203D01*
X155344401Y-123251443D01*
X155344400Y-127180505D01*
X155062480Y-127462426D01*
X155055815Y-127461100D01*
X154944185Y-127461100D01*
X154834700Y-127482878D01*
X154731567Y-127525597D01*
X154638750Y-127587615D01*
X154559815Y-127666550D01*
X154497797Y-127759367D01*
X154455078Y-127862500D01*
X154433300Y-127971985D01*
X154433300Y-128083615D01*
X154455078Y-128193100D01*
X154497797Y-128296233D01*
X154559815Y-128389050D01*
X154638750Y-128467985D01*
X154731567Y-128530003D01*
X154834700Y-128572722D01*
X154944185Y-128594500D01*
X155055815Y-128594500D01*
X155165300Y-128572722D01*
X155268433Y-128530003D01*
X155361250Y-128467985D01*
X155440185Y-128389050D01*
X155502203Y-128296233D01*
X155544922Y-128193100D01*
X155566700Y-128083615D01*
X155566700Y-127971985D01*
X155565374Y-127965320D01*
X155939110Y-127591585D01*
X155944401Y-127587243D01*
X155944401Y-129756039D01*
X155938750Y-129759815D01*
X155859815Y-129838750D01*
X155797797Y-129931567D01*
X155755078Y-130034700D01*
X155733300Y-130144185D01*
X155733300Y-130255815D01*
X155755078Y-130365300D01*
X155797797Y-130468433D01*
X155859815Y-130561250D01*
X155938750Y-130640185D01*
X156031567Y-130702203D01*
X156134700Y-130744922D01*
X156244185Y-130766700D01*
X156355815Y-130766700D01*
X156465300Y-130744922D01*
X156568433Y-130702203D01*
X156661250Y-130640185D01*
X156740185Y-130561250D01*
X156802203Y-130468433D01*
X156844922Y-130365300D01*
X156866700Y-130255815D01*
X156866700Y-130144185D01*
X156844922Y-130034700D01*
X156802203Y-129931567D01*
X156740185Y-129838750D01*
X156661250Y-129759815D01*
X156655600Y-129756040D01*
X156655600Y-123597293D01*
X156895815Y-123357079D01*
X156944185Y-123366700D01*
X157055815Y-123366700D01*
X157165300Y-123344922D01*
X157268433Y-123302203D01*
X157361250Y-123240185D01*
X157440185Y-123161250D01*
X157502203Y-123068433D01*
X157544922Y-122965300D01*
X157566700Y-122855815D01*
X157566700Y-122744185D01*
X157544922Y-122634700D01*
X157502203Y-122531567D01*
X157440185Y-122438750D01*
X157361250Y-122359815D01*
X157268433Y-122297797D01*
X157165300Y-122255078D01*
X157150716Y-122252177D01*
X158230593Y-121172301D01*
X160724806Y-121172301D01*
X159260901Y-122636206D01*
X159247338Y-122647337D01*
X159236207Y-122660900D01*
X159236205Y-122660902D01*
X159226958Y-122672170D01*
X159202900Y-122701484D01*
X159187503Y-122730290D01*
X159169880Y-122763259D01*
X159149546Y-122830290D01*
X159142681Y-122900000D01*
X159144401Y-122917466D01*
X159144400Y-127556040D01*
X159138750Y-127559815D01*
X159059815Y-127638750D01*
X158997797Y-127731567D01*
X158955078Y-127834700D01*
X158933300Y-127944185D01*
X158933300Y-128055815D01*
X158955078Y-128165300D01*
X158997797Y-128268433D01*
X159059815Y-128361250D01*
X159138750Y-128440185D01*
X159231567Y-128502203D01*
X159334700Y-128544922D01*
X159444185Y-128566700D01*
X159555815Y-128566700D01*
X159665300Y-128544922D01*
X159768433Y-128502203D01*
X159861250Y-128440185D01*
X159940185Y-128361250D01*
X160002203Y-128268433D01*
X160044922Y-128165300D01*
X160066700Y-128055815D01*
X160066700Y-127944185D01*
X160044922Y-127834700D01*
X160002203Y-127731567D01*
X159940185Y-127638750D01*
X159861250Y-127559815D01*
X159855600Y-127556040D01*
X159855600Y-123047293D01*
X164139104Y-118763790D01*
X164152662Y-118752663D01*
X164163790Y-118739104D01*
X164163795Y-118739099D01*
X164197101Y-118698516D01*
X164230120Y-118636741D01*
X164230121Y-118636740D01*
X164250454Y-118569710D01*
X164255600Y-118517463D01*
X164255600Y-118517455D01*
X164257319Y-118500000D01*
X164255600Y-118482545D01*
X164255600Y-116843960D01*
X164261250Y-116840185D01*
X164340185Y-116761250D01*
X164402203Y-116668433D01*
X164444922Y-116565300D01*
X164466700Y-116455815D01*
X164466700Y-116344185D01*
X164444922Y-116234700D01*
X164402203Y-116131567D01*
X164340185Y-116038750D01*
X164261250Y-115959815D01*
X164168433Y-115897797D01*
X164065300Y-115855078D01*
X163955815Y-115833300D01*
X163844185Y-115833300D01*
X163734700Y-115855078D01*
X163655600Y-115887842D01*
X163655600Y-112543960D01*
X163661250Y-112540185D01*
X163740185Y-112461250D01*
X163802203Y-112368433D01*
X163844922Y-112265300D01*
X163866700Y-112155815D01*
X163866700Y-112044185D01*
X163844922Y-111934700D01*
X163802203Y-111831567D01*
X163740185Y-111738750D01*
X163661250Y-111659815D01*
X163568433Y-111597797D01*
X163465300Y-111555078D01*
X163355815Y-111533300D01*
X163244185Y-111533300D01*
X163134700Y-111555078D01*
X163031567Y-111597797D01*
X162938750Y-111659815D01*
X162859815Y-111738750D01*
X162797797Y-111831567D01*
X162755078Y-111934700D01*
X162733300Y-112044185D01*
X162733300Y-112155815D01*
X162755078Y-112265300D01*
X162797797Y-112368433D01*
X162859815Y-112461250D01*
X162938750Y-112540185D01*
X162944401Y-112543961D01*
X162944400Y-118391423D01*
X161282094Y-120053731D01*
X161252203Y-119981567D01*
X161190185Y-119888750D01*
X161111250Y-119809815D01*
X161018433Y-119747797D01*
X160915300Y-119705078D01*
X160805815Y-119683300D01*
X160694185Y-119683300D01*
X160584700Y-119705078D01*
X160481567Y-119747797D01*
X160388750Y-119809815D01*
X160309815Y-119888750D01*
X160306040Y-119894400D01*
X156858494Y-119894400D01*
X161239100Y-115513794D01*
X161252663Y-115502663D01*
X161297101Y-115448516D01*
X161330121Y-115386740D01*
X161350454Y-115319710D01*
X161355600Y-115267463D01*
X161355600Y-115267456D01*
X161357319Y-115250001D01*
X161355600Y-115232545D01*
X161355600Y-112543960D01*
X161361250Y-112540185D01*
X161440185Y-112461250D01*
X161502203Y-112368433D01*
X161544922Y-112265300D01*
X161566700Y-112155815D01*
X161566700Y-112044185D01*
X161544922Y-111934700D01*
X161502203Y-111831567D01*
X161440185Y-111738750D01*
X161361250Y-111659815D01*
X161268433Y-111597797D01*
X161165300Y-111555078D01*
X161055815Y-111533300D01*
X160944185Y-111533300D01*
X160834700Y-111555078D01*
X160731567Y-111597797D01*
X160638750Y-111659815D01*
X160559815Y-111738750D01*
X160497797Y-111831567D01*
X160455078Y-111934700D01*
X160433300Y-112044185D01*
X160433300Y-112155815D01*
X160455078Y-112265300D01*
X160497797Y-112368433D01*
X160559815Y-112461250D01*
X160638750Y-112540185D01*
X160644400Y-112543960D01*
X160644401Y-115102705D01*
X150510902Y-125236205D01*
X150497337Y-125247338D01*
X150452899Y-125301485D01*
X150419879Y-125363261D01*
X150399546Y-125430291D01*
X150394400Y-125482538D01*
X150394400Y-125482545D01*
X150392681Y-125500000D01*
X150394400Y-125517456D01*
X150394401Y-127443203D01*
X150334700Y-127455078D01*
X150231567Y-127497797D01*
X150138750Y-127559815D01*
X150059815Y-127638750D01*
X149997797Y-127731567D01*
X149955078Y-127834700D01*
X149933300Y-127944185D01*
X149933300Y-128055815D01*
X149955078Y-128165300D01*
X149997797Y-128268433D01*
X150059815Y-128361250D01*
X150138750Y-128440185D01*
X150231567Y-128502203D01*
X150334700Y-128544922D01*
X150444185Y-128566700D01*
X150555815Y-128566700D01*
X150665300Y-128544922D01*
X150768433Y-128502203D01*
X150844401Y-128451443D01*
X150844401Y-129552719D01*
X149662481Y-130734640D01*
X149655815Y-130733314D01*
X149544185Y-130733314D01*
X149434700Y-130755092D01*
X149331567Y-130797811D01*
X149238750Y-130859829D01*
X149159815Y-130938764D01*
X149097797Y-131031581D01*
X149055078Y-131134714D01*
X149033300Y-131244199D01*
X118236896Y-131244199D01*
X116919100Y-129926404D01*
X116919100Y-127844185D01*
X146333300Y-127844185D01*
X146333300Y-127955815D01*
X146355078Y-128065300D01*
X146397797Y-128168433D01*
X146459815Y-128261250D01*
X146538750Y-128340185D01*
X146631567Y-128402203D01*
X146734700Y-128444922D01*
X146844185Y-128466700D01*
X146955815Y-128466700D01*
X147065300Y-128444922D01*
X147168433Y-128402203D01*
X147261250Y-128340185D01*
X147340185Y-128261250D01*
X147402203Y-128168433D01*
X147444922Y-128065300D01*
X147466700Y-127955815D01*
X147466700Y-127844185D01*
X147444922Y-127734700D01*
X147402203Y-127631567D01*
X147340185Y-127538750D01*
X147261250Y-127459815D01*
X147255600Y-127456040D01*
X147255600Y-123508575D01*
X165339104Y-105425072D01*
X165352662Y-105413945D01*
X165363790Y-105400386D01*
X165363795Y-105400381D01*
X165379438Y-105381320D01*
X165397101Y-105359798D01*
X165430121Y-105298022D01*
X165450454Y-105230992D01*
X165455600Y-105178745D01*
X165455600Y-105178738D01*
X165457319Y-105161282D01*
X165455600Y-105143827D01*
X165455600Y-102843960D01*
X165461250Y-102840185D01*
X165540185Y-102761250D01*
X165602203Y-102668433D01*
X165644922Y-102565300D01*
X165666700Y-102455815D01*
X165666700Y-102344185D01*
X165644922Y-102234700D01*
X165602203Y-102131567D01*
X165540185Y-102038750D01*
X165461250Y-101959815D01*
X165368433Y-101897797D01*
X165265300Y-101855078D01*
X165155815Y-101833300D01*
X165044185Y-101833300D01*
X164934700Y-101855078D01*
X164831567Y-101897797D01*
X164738750Y-101959815D01*
X164659815Y-102038750D01*
X164597797Y-102131567D01*
X164555078Y-102234700D01*
X164533300Y-102344185D01*
X164533300Y-102455815D01*
X164555078Y-102565300D01*
X164597797Y-102668433D01*
X164659815Y-102761250D01*
X164738750Y-102840185D01*
X164744401Y-102843961D01*
X164744400Y-105013988D01*
X146660901Y-123097488D01*
X146647338Y-123108619D01*
X146602900Y-123162766D01*
X146599871Y-123168433D01*
X146569880Y-123224541D01*
X146549546Y-123291572D01*
X146542681Y-123361282D01*
X146544401Y-123378748D01*
X146544400Y-127456040D01*
X146538750Y-127459815D01*
X146459815Y-127538750D01*
X146397797Y-127631567D01*
X146355078Y-127734700D01*
X146333300Y-127844185D01*
X116919100Y-127844185D01*
X116919100Y-124082335D01*
X116940185Y-124061250D01*
X117002203Y-123968433D01*
X117044922Y-123865300D01*
X117066700Y-123755815D01*
X117066700Y-123644185D01*
X117044922Y-123534700D01*
X117002203Y-123431567D01*
X116940185Y-123338750D01*
X116861250Y-123259815D01*
X116768433Y-123197797D01*
X116665300Y-123155078D01*
X116555815Y-123133300D01*
X116444185Y-123133300D01*
X116334700Y-123155078D01*
X116231567Y-123197797D01*
X116138750Y-123259815D01*
X116059815Y-123338750D01*
X115997797Y-123431567D01*
X115955078Y-123534700D01*
X115933300Y-123644185D01*
X106733626Y-123644185D01*
X106709714Y-123565360D01*
X106604757Y-123369001D01*
X106463510Y-123196890D01*
X106291399Y-123055643D01*
X106095040Y-122950686D01*
X105881978Y-122886054D01*
X105715929Y-122869700D01*
X104284071Y-122869700D01*
X104118022Y-122886054D01*
X103904960Y-122950686D01*
X103708601Y-123055643D01*
X103536490Y-123196890D01*
X103395243Y-123369001D01*
X103290286Y-123565360D01*
X103225654Y-123778422D01*
X103203831Y-124000000D01*
X94296169Y-124000000D01*
X94274346Y-123778422D01*
X94209714Y-123565360D01*
X94104757Y-123369001D01*
X93963510Y-123196890D01*
X93791399Y-123055643D01*
X93595040Y-122950686D01*
X93381978Y-122886054D01*
X93215929Y-122869700D01*
X91784071Y-122869700D01*
X91618022Y-122886054D01*
X91404960Y-122950686D01*
X91208601Y-123055643D01*
X91036490Y-123196890D01*
X90895243Y-123369001D01*
X90790286Y-123565360D01*
X90725654Y-123778422D01*
X90703831Y-124000000D01*
X90341700Y-124000000D01*
X90341700Y-121244185D01*
X128133300Y-121244185D01*
X128133300Y-121355815D01*
X128155078Y-121465300D01*
X128197797Y-121568433D01*
X128259815Y-121661250D01*
X128338750Y-121740185D01*
X128431567Y-121802203D01*
X128534700Y-121844922D01*
X128644185Y-121866700D01*
X128755815Y-121866700D01*
X128865300Y-121844922D01*
X128968433Y-121802203D01*
X129061250Y-121740185D01*
X129140185Y-121661250D01*
X129202203Y-121568433D01*
X129244922Y-121465300D01*
X129266700Y-121355815D01*
X129266700Y-121244185D01*
X129265374Y-121237519D01*
X134347294Y-116155600D01*
X150756040Y-116155600D01*
X150759815Y-116161250D01*
X150838750Y-116240185D01*
X150931567Y-116302203D01*
X151034700Y-116344922D01*
X151144185Y-116366700D01*
X151255815Y-116366700D01*
X151365300Y-116344922D01*
X151468433Y-116302203D01*
X151561250Y-116240185D01*
X151640185Y-116161250D01*
X151702203Y-116068433D01*
X151744922Y-115965300D01*
X151766700Y-115855815D01*
X151766700Y-115744185D01*
X151744922Y-115634700D01*
X151702203Y-115531567D01*
X151640185Y-115438750D01*
X151561250Y-115359815D01*
X151468433Y-115297797D01*
X151365300Y-115255078D01*
X151255815Y-115233300D01*
X151144185Y-115233300D01*
X151034700Y-115255078D01*
X150931567Y-115297797D01*
X150838750Y-115359815D01*
X150759815Y-115438750D01*
X150756040Y-115444400D01*
X134217455Y-115444400D01*
X134200000Y-115442681D01*
X134182545Y-115444400D01*
X134182537Y-115444400D01*
X134130290Y-115449546D01*
X134063260Y-115469879D01*
X134001484Y-115502899D01*
X133947337Y-115547337D01*
X133936206Y-115560900D01*
X128762481Y-120734626D01*
X128755815Y-120733300D01*
X128644185Y-120733300D01*
X128534700Y-120755078D01*
X128431567Y-120797797D01*
X128338750Y-120859815D01*
X128259815Y-120938750D01*
X128197797Y-121031567D01*
X128155078Y-121134700D01*
X128133300Y-121244185D01*
X90341700Y-121244185D01*
X90341700Y-113200000D01*
X90841607Y-113200000D01*
X90858341Y-113369903D01*
X90907900Y-113533276D01*
X90988379Y-113683842D01*
X91096686Y-113815814D01*
X91228658Y-113924121D01*
X91379224Y-114004600D01*
X91542597Y-114054159D01*
X91669928Y-114066700D01*
X91706900Y-114066700D01*
X91706901Y-114932010D01*
X91657000Y-114932010D01*
X91507173Y-114946767D01*
X91363103Y-114990470D01*
X91230328Y-115061440D01*
X91113949Y-115156949D01*
X91018440Y-115273328D01*
X90947470Y-115406103D01*
X90903767Y-115550173D01*
X90889010Y-115700000D01*
X90889010Y-116700000D01*
X90903767Y-116849827D01*
X90947470Y-116993897D01*
X91018440Y-117126672D01*
X91113949Y-117243051D01*
X91230328Y-117338560D01*
X91363103Y-117409530D01*
X91507173Y-117453233D01*
X91657000Y-117467990D01*
X91706901Y-117467990D01*
X91706900Y-118333300D01*
X91669928Y-118333300D01*
X91542597Y-118345841D01*
X91379224Y-118395400D01*
X91228658Y-118475879D01*
X91096686Y-118584186D01*
X90988379Y-118716158D01*
X90907900Y-118866724D01*
X90858341Y-119030097D01*
X90841607Y-119200000D01*
X90858341Y-119369903D01*
X90907900Y-119533276D01*
X90988379Y-119683842D01*
X91096686Y-119815814D01*
X91228658Y-119924121D01*
X91379224Y-120004600D01*
X91542597Y-120054159D01*
X91669928Y-120066700D01*
X92455072Y-120066700D01*
X92582403Y-120054159D01*
X92745776Y-120004600D01*
X92896342Y-119924121D01*
X93028314Y-119815814D01*
X93136621Y-119683842D01*
X93217100Y-119533276D01*
X93266659Y-119369903D01*
X93283393Y-119200000D01*
X93266659Y-119030097D01*
X93217100Y-118866724D01*
X93136621Y-118716158D01*
X93028314Y-118584186D01*
X92896342Y-118475879D01*
X92745776Y-118395400D01*
X92582403Y-118345841D01*
X92455072Y-118333300D01*
X92418100Y-118333300D01*
X92418100Y-117467990D01*
X92657000Y-117467990D01*
X92806827Y-117453233D01*
X92950897Y-117409530D01*
X93083672Y-117338560D01*
X93200051Y-117243051D01*
X93295560Y-117126672D01*
X93366530Y-116993897D01*
X93410233Y-116849827D01*
X93424990Y-116700000D01*
X93424990Y-115700000D01*
X93410233Y-115550173D01*
X93366530Y-115406103D01*
X93295560Y-115273328D01*
X93200051Y-115156949D01*
X93130658Y-115100000D01*
X93793987Y-115100000D01*
X93799627Y-115157262D01*
X93816329Y-115212323D01*
X93838169Y-115253182D01*
X93824659Y-115297718D01*
X93819510Y-115350000D01*
X93819510Y-115750000D01*
X93824659Y-115802282D01*
X93839910Y-115852555D01*
X93851907Y-115875000D01*
X93839910Y-115897445D01*
X93824659Y-115947718D01*
X93819510Y-116000000D01*
X93819510Y-116400000D01*
X93824659Y-116452282D01*
X93839910Y-116502555D01*
X93851907Y-116525000D01*
X93839910Y-116547445D01*
X93824659Y-116597718D01*
X93819510Y-116650000D01*
X93819510Y-117050000D01*
X93824659Y-117102282D01*
X93839910Y-117152555D01*
X93851907Y-117175000D01*
X93839910Y-117197445D01*
X93824659Y-117247718D01*
X93819510Y-117300000D01*
X93819510Y-117700000D01*
X93824659Y-117752282D01*
X93839910Y-117802555D01*
X93864674Y-117848887D01*
X93898002Y-117889498D01*
X93906234Y-117896253D01*
X93899991Y-117902496D01*
X93848916Y-117978935D01*
X93813735Y-118063869D01*
X93795800Y-118154034D01*
X93795800Y-118245966D01*
X93813735Y-118336131D01*
X93848916Y-118421065D01*
X93899991Y-118497504D01*
X93964996Y-118562509D01*
X94041435Y-118613584D01*
X94126369Y-118648765D01*
X94216534Y-118666700D01*
X94308466Y-118666700D01*
X94398631Y-118648765D01*
X94483565Y-118613584D01*
X94560004Y-118562509D01*
X94625009Y-118497504D01*
X94676084Y-118421065D01*
X94711265Y-118336131D01*
X94729200Y-118245966D01*
X94729200Y-118154034D01*
X94711265Y-118063869D01*
X94676084Y-117978935D01*
X94668771Y-117967990D01*
X95437500Y-117967990D01*
X95489782Y-117962841D01*
X95540055Y-117947590D01*
X95586387Y-117922826D01*
X95590927Y-117919100D01*
X97079420Y-117919100D01*
X97100000Y-117921127D01*
X97120580Y-117919100D01*
X97182158Y-117913035D01*
X97261158Y-117889071D01*
X97333966Y-117850154D01*
X97397782Y-117797782D01*
X97410907Y-117781789D01*
X99173597Y-116019100D01*
X100917665Y-116019100D01*
X100938750Y-116040185D01*
X101031567Y-116102203D01*
X101134700Y-116144922D01*
X101244185Y-116166700D01*
X101355815Y-116166700D01*
X101465300Y-116144922D01*
X101568433Y-116102203D01*
X101661250Y-116040185D01*
X101740185Y-115961250D01*
X101802203Y-115868433D01*
X101844922Y-115765300D01*
X101866700Y-115655815D01*
X101866700Y-115544185D01*
X101844922Y-115434700D01*
X101802203Y-115331567D01*
X101740185Y-115238750D01*
X101661250Y-115159815D01*
X101568433Y-115097797D01*
X101465300Y-115055078D01*
X101355815Y-115033300D01*
X101244185Y-115033300D01*
X101134700Y-115055078D01*
X101031567Y-115097797D01*
X100938750Y-115159815D01*
X100917665Y-115180900D01*
X99020580Y-115180900D01*
X99000000Y-115178873D01*
X98979420Y-115180900D01*
X98917842Y-115186965D01*
X98838842Y-115210929D01*
X98766034Y-115249846D01*
X98702218Y-115302218D01*
X98689097Y-115318206D01*
X96926404Y-117080900D01*
X95702447Y-117080900D01*
X95705490Y-117050000D01*
X95705490Y-116650000D01*
X95700341Y-116597718D01*
X95685090Y-116547445D01*
X95673093Y-116525000D01*
X95685090Y-116502555D01*
X95700341Y-116452282D01*
X95705490Y-116400000D01*
X95705490Y-116000000D01*
X95700341Y-115947718D01*
X95685090Y-115897445D01*
X95673093Y-115875000D01*
X95685090Y-115852555D01*
X95700341Y-115802282D01*
X95705490Y-115750000D01*
X95705490Y-115350000D01*
X95700341Y-115297718D01*
X95686831Y-115253182D01*
X95708671Y-115212323D01*
X95725373Y-115157262D01*
X95731013Y-115100000D01*
X95729600Y-114985725D01*
X95656575Y-114912700D01*
X94775200Y-114912700D01*
X94775200Y-114932700D01*
X94749800Y-114932700D01*
X94749800Y-114912700D01*
X93868425Y-114912700D01*
X93795400Y-114985725D01*
X93793987Y-115100000D01*
X93130658Y-115100000D01*
X93083672Y-115061440D01*
X92950897Y-114990470D01*
X92806827Y-114946767D01*
X92657000Y-114932010D01*
X92418100Y-114932010D01*
X92418100Y-114700000D01*
X93793987Y-114700000D01*
X93795400Y-114814275D01*
X93868425Y-114887300D01*
X94749800Y-114887300D01*
X94749800Y-114480925D01*
X94775200Y-114480925D01*
X94775200Y-114887300D01*
X95656575Y-114887300D01*
X95729600Y-114814275D01*
X95731013Y-114700000D01*
X95725373Y-114642738D01*
X95708671Y-114587677D01*
X95681547Y-114536933D01*
X95645045Y-114492455D01*
X95600567Y-114455953D01*
X95549823Y-114428829D01*
X95494762Y-114412127D01*
X95437500Y-114406487D01*
X94848225Y-114407900D01*
X94775200Y-114480925D01*
X94749800Y-114480925D01*
X94680142Y-114411267D01*
X94711265Y-114336131D01*
X94729200Y-114245966D01*
X94729200Y-114154034D01*
X94711265Y-114063869D01*
X94703112Y-114044185D01*
X104533300Y-114044185D01*
X104533300Y-114155815D01*
X104555078Y-114265300D01*
X104597797Y-114368433D01*
X104659815Y-114461250D01*
X104738750Y-114540185D01*
X104831567Y-114602203D01*
X104934700Y-114644922D01*
X105044185Y-114666700D01*
X105155815Y-114666700D01*
X105162481Y-114665374D01*
X106802911Y-116305806D01*
X106814038Y-116319364D01*
X106827596Y-116330491D01*
X106827601Y-116330496D01*
X106861314Y-116358163D01*
X106868185Y-116363802D01*
X106929961Y-116396822D01*
X106996991Y-116417155D01*
X107049238Y-116422301D01*
X107049247Y-116422301D01*
X107066700Y-116424020D01*
X107084153Y-116422301D01*
X128215844Y-116422301D01*
X128233299Y-116424020D01*
X128250754Y-116422301D01*
X128250762Y-116422301D01*
X128303009Y-116417155D01*
X128370039Y-116396822D01*
X128431815Y-116363802D01*
X128485962Y-116319364D01*
X128497098Y-116305795D01*
X130947295Y-113855600D01*
X146956040Y-113855600D01*
X146959815Y-113861250D01*
X147038750Y-113940185D01*
X147131567Y-114002203D01*
X147234700Y-114044922D01*
X147344185Y-114066700D01*
X147455815Y-114066700D01*
X147565300Y-114044922D01*
X147668433Y-114002203D01*
X147761250Y-113940185D01*
X147840185Y-113861250D01*
X147843960Y-113855600D01*
X154582545Y-113855600D01*
X154600000Y-113857319D01*
X154617455Y-113855600D01*
X154617463Y-113855600D01*
X154669710Y-113850454D01*
X154736740Y-113830121D01*
X154798516Y-113797101D01*
X154852663Y-113752663D01*
X154863799Y-113739094D01*
X164139105Y-104463790D01*
X164152663Y-104452663D01*
X164163790Y-104439105D01*
X164163795Y-104439100D01*
X164197100Y-104398517D01*
X164230120Y-104336742D01*
X164250454Y-104269711D01*
X164251133Y-104262813D01*
X164255600Y-104217463D01*
X164255600Y-104217456D01*
X164257319Y-104200001D01*
X164255600Y-104182545D01*
X164255600Y-99843960D01*
X164261250Y-99840185D01*
X164340185Y-99761250D01*
X164402203Y-99668433D01*
X164444922Y-99565300D01*
X164466700Y-99455815D01*
X164466700Y-99344185D01*
X164444922Y-99234700D01*
X164402203Y-99131567D01*
X164340185Y-99038750D01*
X164261250Y-98959815D01*
X164168433Y-98897797D01*
X164065300Y-98855078D01*
X163955815Y-98833300D01*
X163844185Y-98833300D01*
X163734700Y-98855078D01*
X163631567Y-98897797D01*
X163538750Y-98959815D01*
X163459815Y-99038750D01*
X163397797Y-99131567D01*
X163355078Y-99234700D01*
X163333300Y-99344185D01*
X163333300Y-99455815D01*
X163355078Y-99565300D01*
X163397797Y-99668433D01*
X163459815Y-99761250D01*
X163538750Y-99840185D01*
X163544400Y-99843960D01*
X163544401Y-104052704D01*
X154452707Y-113144400D01*
X147843960Y-113144400D01*
X147840185Y-113138750D01*
X147761250Y-113059815D01*
X147668433Y-112997797D01*
X147565300Y-112955078D01*
X147455815Y-112933300D01*
X147344185Y-112933300D01*
X147234700Y-112955078D01*
X147131567Y-112997797D01*
X147038750Y-113059815D01*
X146959815Y-113138750D01*
X146956040Y-113144400D01*
X130858494Y-113144400D01*
X132347294Y-111655600D01*
X137056040Y-111655600D01*
X137059815Y-111661250D01*
X137138750Y-111740185D01*
X137231567Y-111802203D01*
X137334700Y-111844922D01*
X137444185Y-111866700D01*
X137555815Y-111866700D01*
X137665300Y-111844922D01*
X137768433Y-111802203D01*
X137861250Y-111740185D01*
X137940185Y-111661250D01*
X138002203Y-111568433D01*
X138044922Y-111465300D01*
X138066700Y-111355815D01*
X138066700Y-111244185D01*
X138044922Y-111134700D01*
X138002203Y-111031567D01*
X137940185Y-110938750D01*
X137861250Y-110859815D01*
X137768433Y-110797797D01*
X137665300Y-110755078D01*
X137555815Y-110733300D01*
X137444185Y-110733300D01*
X137334700Y-110755078D01*
X137231567Y-110797797D01*
X137138750Y-110859815D01*
X137059815Y-110938750D01*
X137056040Y-110944400D01*
X132217455Y-110944400D01*
X132200000Y-110942681D01*
X132182544Y-110944400D01*
X132182537Y-110944400D01*
X132136566Y-110948928D01*
X132130289Y-110949546D01*
X132109956Y-110955714D01*
X132063260Y-110969879D01*
X132001484Y-111002899D01*
X131947337Y-111047337D01*
X131936206Y-111060900D01*
X128148179Y-114848928D01*
X128166700Y-114755815D01*
X128166700Y-114644185D01*
X128144922Y-114534700D01*
X128102203Y-114431567D01*
X128040185Y-114338750D01*
X127961250Y-114259815D01*
X127868433Y-114197797D01*
X127765300Y-114155078D01*
X127655815Y-114133300D01*
X127544185Y-114133300D01*
X127434700Y-114155078D01*
X127331567Y-114197797D01*
X127238750Y-114259815D01*
X127159815Y-114338750D01*
X127141208Y-114366597D01*
X118243960Y-114366597D01*
X118240185Y-114360947D01*
X118161250Y-114282012D01*
X118068433Y-114219994D01*
X117965300Y-114177275D01*
X117855815Y-114155497D01*
X117744185Y-114155497D01*
X117634700Y-114177275D01*
X117531567Y-114219994D01*
X117438750Y-114282012D01*
X117359815Y-114360947D01*
X117297797Y-114453764D01*
X117255078Y-114556897D01*
X117233300Y-114666382D01*
X117233300Y-114778012D01*
X117255078Y-114887497D01*
X117297797Y-114990630D01*
X117359815Y-115083447D01*
X117387467Y-115111099D01*
X117359815Y-115138750D01*
X117297797Y-115231567D01*
X117255078Y-115334700D01*
X117233300Y-115444185D01*
X117233300Y-115555815D01*
X117255078Y-115665300D01*
X117274049Y-115711101D01*
X107213996Y-115711101D01*
X105665374Y-114162481D01*
X105666700Y-114155815D01*
X105666700Y-114044185D01*
X105644922Y-113934700D01*
X105602203Y-113831567D01*
X105540185Y-113738750D01*
X105461250Y-113659815D01*
X105368433Y-113597797D01*
X105265300Y-113555078D01*
X105155815Y-113533300D01*
X105044185Y-113533300D01*
X104934700Y-113555078D01*
X104831567Y-113597797D01*
X104738750Y-113659815D01*
X104659815Y-113738750D01*
X104597797Y-113831567D01*
X104555078Y-113934700D01*
X104533300Y-114044185D01*
X94703112Y-114044185D01*
X94676084Y-113978935D01*
X94625009Y-113902496D01*
X94560004Y-113837491D01*
X94483565Y-113786416D01*
X94398631Y-113751235D01*
X94308466Y-113733300D01*
X94216534Y-113733300D01*
X94126369Y-113751235D01*
X94041435Y-113786416D01*
X93964996Y-113837491D01*
X93899991Y-113902496D01*
X93848916Y-113978935D01*
X93813735Y-114063869D01*
X93795800Y-114154034D01*
X93795800Y-114245966D01*
X93813735Y-114336131D01*
X93848916Y-114421065D01*
X93890716Y-114483623D01*
X93879955Y-114492455D01*
X93843453Y-114536933D01*
X93816329Y-114587677D01*
X93799627Y-114642738D01*
X93793987Y-114700000D01*
X92418100Y-114700000D01*
X92418100Y-114066700D01*
X92455072Y-114066700D01*
X92582403Y-114054159D01*
X92745776Y-114004600D01*
X92896342Y-113924121D01*
X93028314Y-113815814D01*
X93136621Y-113683842D01*
X93217100Y-113533276D01*
X93266659Y-113369903D01*
X93283393Y-113200000D01*
X93266659Y-113030097D01*
X93217100Y-112866724D01*
X93136621Y-112716158D01*
X93028314Y-112584186D01*
X92896342Y-112475879D01*
X92745776Y-112395400D01*
X92582403Y-112345841D01*
X92455072Y-112333300D01*
X91669928Y-112333300D01*
X91542597Y-112345841D01*
X91379224Y-112395400D01*
X91228658Y-112475879D01*
X91096686Y-112584186D01*
X90988379Y-112716158D01*
X90907900Y-112866724D01*
X90858341Y-113030097D01*
X90841607Y-113200000D01*
X90341700Y-113200000D01*
X90341700Y-111650000D01*
X109842010Y-111650000D01*
X109842010Y-113350000D01*
X109847159Y-113402282D01*
X109862410Y-113452555D01*
X109887174Y-113498887D01*
X109920502Y-113539498D01*
X109961113Y-113572826D01*
X110007445Y-113597590D01*
X110057718Y-113612841D01*
X110110000Y-113617990D01*
X111810000Y-113617990D01*
X111862282Y-113612841D01*
X111912555Y-113597590D01*
X111958887Y-113572826D01*
X111999498Y-113539498D01*
X112032826Y-113498887D01*
X112057590Y-113452555D01*
X112072841Y-113402282D01*
X112077990Y-113350000D01*
X112077990Y-112390015D01*
X112383300Y-112390015D01*
X112383300Y-112609985D01*
X112426214Y-112825729D01*
X112510394Y-113028956D01*
X112632603Y-113211855D01*
X112788145Y-113367397D01*
X112971044Y-113489606D01*
X113174271Y-113573786D01*
X113390015Y-113616700D01*
X113609985Y-113616700D01*
X113825729Y-113573786D01*
X114028956Y-113489606D01*
X114211855Y-113367397D01*
X114367397Y-113211855D01*
X114489606Y-113028956D01*
X114573786Y-112825729D01*
X114600546Y-112691196D01*
X114914017Y-112691196D01*
X114972953Y-112907191D01*
X115072895Y-113107537D01*
X115210002Y-113284536D01*
X115379006Y-113431386D01*
X115573411Y-113542443D01*
X115785747Y-113613440D01*
X115848804Y-113625982D01*
X116027300Y-113569000D01*
X116027300Y-112512700D01*
X116052700Y-112512700D01*
X116052700Y-113569000D01*
X116231196Y-113625982D01*
X116294253Y-113613440D01*
X116506589Y-113542443D01*
X116700994Y-113431386D01*
X116869998Y-113284536D01*
X117007105Y-113107537D01*
X117107047Y-112907191D01*
X117165983Y-112691196D01*
X117109005Y-112512700D01*
X116052700Y-112512700D01*
X116027300Y-112512700D01*
X114970995Y-112512700D01*
X114914017Y-112691196D01*
X114600546Y-112691196D01*
X114616700Y-112609985D01*
X114616700Y-112390015D01*
X114600547Y-112308804D01*
X114914017Y-112308804D01*
X114970995Y-112487300D01*
X116027300Y-112487300D01*
X116027300Y-111431000D01*
X116052700Y-111431000D01*
X116052700Y-112487300D01*
X117109005Y-112487300D01*
X117165983Y-112308804D01*
X117107047Y-112092809D01*
X117007105Y-111892463D01*
X116869998Y-111715464D01*
X116700994Y-111568614D01*
X116506589Y-111457557D01*
X116294253Y-111386560D01*
X116231196Y-111374018D01*
X116052700Y-111431000D01*
X116027300Y-111431000D01*
X115848804Y-111374018D01*
X115785747Y-111386560D01*
X115573411Y-111457557D01*
X115379006Y-111568614D01*
X115210002Y-111715464D01*
X115072895Y-111892463D01*
X114972953Y-112092809D01*
X114914017Y-112308804D01*
X114600547Y-112308804D01*
X114573786Y-112174271D01*
X114489606Y-111971044D01*
X114367397Y-111788145D01*
X114211855Y-111632603D01*
X114028956Y-111510394D01*
X113825729Y-111426214D01*
X113609985Y-111383300D01*
X113390015Y-111383300D01*
X113174271Y-111426214D01*
X112971044Y-111510394D01*
X112788145Y-111632603D01*
X112632603Y-111788145D01*
X112510394Y-111971044D01*
X112426214Y-112174271D01*
X112383300Y-112390015D01*
X112077990Y-112390015D01*
X112077990Y-111650000D01*
X112072841Y-111597718D01*
X112057590Y-111547445D01*
X112032826Y-111501113D01*
X111999498Y-111460502D01*
X111958887Y-111427174D01*
X111912555Y-111402410D01*
X111862282Y-111387159D01*
X111810000Y-111382010D01*
X110110000Y-111382010D01*
X110057718Y-111387159D01*
X110007445Y-111402410D01*
X109961113Y-111427174D01*
X109920502Y-111460502D01*
X109887174Y-111501113D01*
X109862410Y-111547445D01*
X109847159Y-111597718D01*
X109842010Y-111650000D01*
X90341700Y-111650000D01*
X90341700Y-97691196D01*
X96354017Y-97691196D01*
X96412953Y-97907191D01*
X96512895Y-98107537D01*
X96650002Y-98284536D01*
X96819006Y-98431386D01*
X97013411Y-98542443D01*
X97225747Y-98613440D01*
X97288804Y-98625982D01*
X97467300Y-98569000D01*
X97467300Y-97512700D01*
X97492700Y-97512700D01*
X97492700Y-98569000D01*
X97671196Y-98625982D01*
X97734253Y-98613440D01*
X97946589Y-98542443D01*
X98140994Y-98431386D01*
X98309998Y-98284536D01*
X98447105Y-98107537D01*
X98547047Y-97907191D01*
X98605983Y-97691196D01*
X98549005Y-97512700D01*
X97492700Y-97512700D01*
X97467300Y-97512700D01*
X96410995Y-97512700D01*
X96354017Y-97691196D01*
X90341700Y-97691196D01*
X90341700Y-97516710D01*
X90362085Y-97308804D01*
X96354017Y-97308804D01*
X96410995Y-97487300D01*
X97467300Y-97487300D01*
X97467300Y-96431000D01*
X97492700Y-96431000D01*
X97492700Y-97487300D01*
X98549005Y-97487300D01*
X98605983Y-97308804D01*
X98547047Y-97092809D01*
X98447105Y-96892463D01*
X98309998Y-96715464D01*
X98234659Y-96650000D01*
X98902010Y-96650000D01*
X98902010Y-98350000D01*
X98907159Y-98402282D01*
X98922410Y-98452555D01*
X98947174Y-98498887D01*
X98980502Y-98539498D01*
X99021113Y-98572826D01*
X99067445Y-98597590D01*
X99117718Y-98612841D01*
X99170000Y-98617990D01*
X100870000Y-98617990D01*
X100922282Y-98612841D01*
X100972555Y-98597590D01*
X101018887Y-98572826D01*
X101059498Y-98539498D01*
X101092826Y-98498887D01*
X101117590Y-98452555D01*
X101132841Y-98402282D01*
X101137990Y-98350000D01*
X101137990Y-96650000D01*
X101132841Y-96597718D01*
X101117590Y-96547445D01*
X101092826Y-96501113D01*
X101059498Y-96460502D01*
X101018887Y-96427174D01*
X100972555Y-96402410D01*
X100922282Y-96387159D01*
X100870000Y-96382010D01*
X99170000Y-96382010D01*
X99117718Y-96387159D01*
X99067445Y-96402410D01*
X99021113Y-96427174D01*
X98980502Y-96460502D01*
X98947174Y-96501113D01*
X98922410Y-96547445D01*
X98907159Y-96597718D01*
X98902010Y-96650000D01*
X98234659Y-96650000D01*
X98140994Y-96568614D01*
X97946589Y-96457557D01*
X97734253Y-96386560D01*
X97671196Y-96374018D01*
X97492700Y-96431000D01*
X97467300Y-96431000D01*
X97288804Y-96374018D01*
X97225747Y-96386560D01*
X97013411Y-96457557D01*
X96819006Y-96568614D01*
X96650002Y-96715464D01*
X96512895Y-96892463D01*
X96412953Y-97092809D01*
X96354017Y-97308804D01*
X90362085Y-97308804D01*
X90384412Y-97081103D01*
X90506068Y-96678158D01*
X90703670Y-96306524D01*
X90969697Y-95980342D01*
X91294009Y-95712048D01*
X91664260Y-95511854D01*
X92066345Y-95387388D01*
X92501034Y-95341700D01*
X104983290Y-95341700D01*
X105418897Y-95384412D01*
G04 #@! TA.AperFunction,Conductor*
D18*
G36*
X105418897Y-95384412D02*
G01*
X105821842Y-95506068D01*
X106193476Y-95703670D01*
X106519658Y-95969697D01*
X106787952Y-96294009D01*
X106988146Y-96664260D01*
X107112612Y-97066345D01*
X107158301Y-97501044D01*
X107158300Y-107516783D01*
X107158359Y-107517378D01*
X107158363Y-107518647D01*
X107159871Y-107533494D01*
X107159767Y-107548422D01*
X107160233Y-107553170D01*
X107211234Y-108038413D01*
X107217453Y-108068710D01*
X107223264Y-108099171D01*
X107224643Y-108103738D01*
X107368923Y-108569832D01*
X107380925Y-108598383D01*
X107392526Y-108627097D01*
X107394766Y-108631310D01*
X107626830Y-109060503D01*
X107644150Y-109086180D01*
X107661106Y-109112092D01*
X107664121Y-109115789D01*
X107975130Y-109491735D01*
X107997071Y-109513523D01*
X108018773Y-109535685D01*
X108022450Y-109538726D01*
X108400557Y-109847102D01*
X108426344Y-109864235D01*
X108451906Y-109881737D01*
X108456103Y-109884006D01*
X108886906Y-110113068D01*
X108915519Y-110124861D01*
X108944004Y-110137070D01*
X108948562Y-110138481D01*
X109415651Y-110279504D01*
X109446023Y-110285518D01*
X109476325Y-110291959D01*
X109481070Y-110292457D01*
X109966417Y-110340046D01*
X109983216Y-110341700D01*
X155016784Y-110341700D01*
X155017379Y-110341641D01*
X155018647Y-110341637D01*
X155033494Y-110340129D01*
X155048422Y-110340233D01*
X155053170Y-110339767D01*
X155538413Y-110288766D01*
X155568710Y-110282547D01*
X155599171Y-110276736D01*
X155603738Y-110275357D01*
X156069832Y-110131077D01*
X156098383Y-110119075D01*
X156127097Y-110107474D01*
X156131310Y-110105234D01*
X156560503Y-109873170D01*
X156586180Y-109855850D01*
X156612092Y-109838894D01*
X156615789Y-109835879D01*
X156991735Y-109524870D01*
X157013523Y-109502929D01*
X157035685Y-109481227D01*
X157038726Y-109477550D01*
X157347102Y-109099443D01*
X157364235Y-109073656D01*
X157381737Y-109048094D01*
X157384006Y-109043897D01*
X157613068Y-108613094D01*
X157624861Y-108584481D01*
X157637070Y-108555996D01*
X157638481Y-108551438D01*
X157779504Y-108084349D01*
X157785518Y-108053977D01*
X157791959Y-108023675D01*
X157792457Y-108018930D01*
X157840069Y-107533344D01*
X157841700Y-107516784D01*
X157841700Y-97516710D01*
X157884412Y-97081103D01*
X158006068Y-96678158D01*
X158021039Y-96650000D01*
X163862010Y-96650000D01*
X163862010Y-98350000D01*
X163867159Y-98402282D01*
X163882410Y-98452555D01*
X163907174Y-98498887D01*
X163940502Y-98539498D01*
X163981113Y-98572826D01*
X164027445Y-98597590D01*
X164077718Y-98612841D01*
X164130000Y-98617990D01*
X165830000Y-98617990D01*
X165882282Y-98612841D01*
X165932555Y-98597590D01*
X165978887Y-98572826D01*
X166019498Y-98539498D01*
X166052826Y-98498887D01*
X166077590Y-98452555D01*
X166092841Y-98402282D01*
X166097990Y-98350000D01*
X166097990Y-97390015D01*
X166403300Y-97390015D01*
X166403300Y-97609985D01*
X166446214Y-97825729D01*
X166530394Y-98028956D01*
X166652603Y-98211855D01*
X166808145Y-98367397D01*
X166991044Y-98489606D01*
X167194271Y-98573786D01*
X167410015Y-98616700D01*
X167629985Y-98616700D01*
X167845729Y-98573786D01*
X168048956Y-98489606D01*
X168231855Y-98367397D01*
X168387397Y-98211855D01*
X168509606Y-98028956D01*
X168593786Y-97825729D01*
X168636700Y-97609985D01*
X168636700Y-97390015D01*
X168593786Y-97174271D01*
X168509606Y-96971044D01*
X168387397Y-96788145D01*
X168231855Y-96632603D01*
X168048956Y-96510394D01*
X167845729Y-96426214D01*
X167629985Y-96383300D01*
X167410015Y-96383300D01*
X167194271Y-96426214D01*
X166991044Y-96510394D01*
X166808145Y-96632603D01*
X166652603Y-96788145D01*
X166530394Y-96971044D01*
X166446214Y-97174271D01*
X166403300Y-97390015D01*
X166097990Y-97390015D01*
X166097990Y-96650000D01*
X166092841Y-96597718D01*
X166077590Y-96547445D01*
X166052826Y-96501113D01*
X166019498Y-96460502D01*
X165978887Y-96427174D01*
X165932555Y-96402410D01*
X165882282Y-96387159D01*
X165830000Y-96382010D01*
X164130000Y-96382010D01*
X164077718Y-96387159D01*
X164027445Y-96402410D01*
X163981113Y-96427174D01*
X163940502Y-96460502D01*
X163907174Y-96501113D01*
X163882410Y-96547445D01*
X163867159Y-96597718D01*
X163862010Y-96650000D01*
X158021039Y-96650000D01*
X158203670Y-96306524D01*
X158469697Y-95980342D01*
X158794009Y-95712048D01*
X159164260Y-95511854D01*
X159566345Y-95387388D01*
X160001034Y-95341700D01*
X172483290Y-95341700D01*
X172918897Y-95384412D01*
X173321842Y-95506068D01*
X173693476Y-95703670D01*
X174019658Y-95969697D01*
X174287952Y-96294009D01*
X174488146Y-96664260D01*
X174612612Y-97066345D01*
X174658301Y-97501044D01*
X174658300Y-132483290D01*
X174615588Y-132918897D01*
X174493933Y-133321839D01*
X174296329Y-133693480D01*
X174030304Y-134019658D01*
X173705990Y-134287953D01*
X173335741Y-134488146D01*
X172933655Y-134612612D01*
X172498967Y-134658300D01*
X92516710Y-134658300D01*
X92081103Y-134615588D01*
X91678161Y-134493933D01*
X91306520Y-134296329D01*
X90980342Y-134030304D01*
X90712047Y-133705990D01*
X90511854Y-133335741D01*
X90387388Y-132933655D01*
X90341700Y-132498967D01*
X90341700Y-129193324D01*
X90700184Y-129193324D01*
X90703628Y-129213010D01*
X90767012Y-129430534D01*
X90871614Y-129631513D01*
X91013416Y-129808223D01*
X91186967Y-129953874D01*
X91385599Y-130062868D01*
X91601678Y-130131016D01*
X91826900Y-130155700D01*
X92487300Y-130155700D01*
X92487300Y-129012700D01*
X92512700Y-129012700D01*
X92512700Y-130155700D01*
X93173100Y-130155700D01*
X93398322Y-130131016D01*
X93614401Y-130062868D01*
X93813033Y-129953874D01*
X93986584Y-129808223D01*
X94128386Y-129631513D01*
X94232988Y-129430534D01*
X94296372Y-129213010D01*
X94299816Y-129193324D01*
X103200184Y-129193324D01*
X103203628Y-129213010D01*
X103267012Y-129430534D01*
X103371614Y-129631513D01*
X103513416Y-129808223D01*
X103686967Y-129953874D01*
X103885599Y-130062868D01*
X104101678Y-130131016D01*
X104326900Y-130155700D01*
X104987300Y-130155700D01*
X104987300Y-129012700D01*
X105012700Y-129012700D01*
X105012700Y-130155700D01*
X105673100Y-130155700D01*
X105898322Y-130131016D01*
X106114401Y-130062868D01*
X106313033Y-129953874D01*
X106486584Y-129808223D01*
X106628386Y-129631513D01*
X106732988Y-129430534D01*
X106796372Y-129213010D01*
X106799816Y-129193324D01*
X106743001Y-129012700D01*
X105012700Y-129012700D01*
X104987300Y-129012700D01*
X103256999Y-129012700D01*
X103200184Y-129193324D01*
X94299816Y-129193324D01*
X94243001Y-129012700D01*
X92512700Y-129012700D01*
X92487300Y-129012700D01*
X90756999Y-129012700D01*
X90700184Y-129193324D01*
X90341700Y-129193324D01*
X90341700Y-128806676D01*
X90700184Y-128806676D01*
X90756999Y-128987300D01*
X92487300Y-128987300D01*
X92487300Y-127844300D01*
X92512700Y-127844300D01*
X92512700Y-128987300D01*
X94243001Y-128987300D01*
X94299816Y-128806676D01*
X103200184Y-128806676D01*
X103256999Y-128987300D01*
X104987300Y-128987300D01*
X104987300Y-127844300D01*
X105012700Y-127844300D01*
X105012700Y-128987300D01*
X106743001Y-128987300D01*
X106799816Y-128806676D01*
X106796372Y-128786990D01*
X106732988Y-128569466D01*
X106628386Y-128368487D01*
X106486584Y-128191777D01*
X106313033Y-128046126D01*
X106114401Y-127937132D01*
X105898322Y-127868984D01*
X105673100Y-127844300D01*
X105012700Y-127844300D01*
X104987300Y-127844300D01*
X104326900Y-127844300D01*
X104101678Y-127868984D01*
X103885599Y-127937132D01*
X103686967Y-128046126D01*
X103513416Y-128191777D01*
X103371614Y-128368487D01*
X103267012Y-128569466D01*
X103203628Y-128786990D01*
X103200184Y-128806676D01*
X94299816Y-128806676D01*
X94296372Y-128786990D01*
X94232988Y-128569466D01*
X94128386Y-128368487D01*
X93986584Y-128191777D01*
X93813033Y-128046126D01*
X93614401Y-127937132D01*
X93398322Y-127868984D01*
X93173100Y-127844300D01*
X92512700Y-127844300D01*
X92487300Y-127844300D01*
X91826900Y-127844300D01*
X91601678Y-127868984D01*
X91385599Y-127937132D01*
X91186967Y-128046126D01*
X91013416Y-128191777D01*
X90871614Y-128368487D01*
X90767012Y-128569466D01*
X90703628Y-128786990D01*
X90700184Y-128806676D01*
X90341700Y-128806676D01*
X90341700Y-124000000D01*
X90703831Y-124000000D01*
X90725654Y-124221578D01*
X90790286Y-124434640D01*
X90895243Y-124630999D01*
X91036490Y-124803110D01*
X91208601Y-124944357D01*
X91404960Y-125049314D01*
X91618022Y-125113946D01*
X91784071Y-125130300D01*
X93215929Y-125130300D01*
X93381978Y-125113946D01*
X93595040Y-125049314D01*
X93791399Y-124944357D01*
X93963510Y-124803110D01*
X94104757Y-124630999D01*
X94209714Y-124434640D01*
X94274346Y-124221578D01*
X94296169Y-124000000D01*
X103203831Y-124000000D01*
X103225654Y-124221578D01*
X103290286Y-124434640D01*
X103395243Y-124630999D01*
X103536490Y-124803110D01*
X103708601Y-124944357D01*
X103904960Y-125049314D01*
X104118022Y-125113946D01*
X104284071Y-125130300D01*
X105715929Y-125130300D01*
X105881978Y-125113946D01*
X106095040Y-125049314D01*
X106291399Y-124944357D01*
X106463510Y-124803110D01*
X106604757Y-124630999D01*
X106709714Y-124434640D01*
X106774346Y-124221578D01*
X106796169Y-124000000D01*
X106774346Y-123778422D01*
X106733626Y-123644185D01*
X115933300Y-123644185D01*
X115933300Y-123755815D01*
X115955078Y-123865300D01*
X115997797Y-123968433D01*
X116059815Y-124061250D01*
X116080900Y-124082335D01*
X116080901Y-130079410D01*
X116078873Y-130100000D01*
X116086965Y-130182157D01*
X116110930Y-130261158D01*
X116149846Y-130333965D01*
X116165814Y-130353422D01*
X116202219Y-130397782D01*
X116218206Y-130410902D01*
X119389098Y-133581794D01*
X119402218Y-133597782D01*
X119445355Y-133633183D01*
X119466034Y-133650154D01*
X119534214Y-133686597D01*
X119538842Y-133689071D01*
X119617842Y-133713035D01*
X119679420Y-133719100D01*
X119679422Y-133719100D01*
X119699999Y-133721127D01*
X119720577Y-133719100D01*
X168179420Y-133719100D01*
X168200000Y-133721127D01*
X168220580Y-133719100D01*
X168282158Y-133713035D01*
X168361158Y-133689071D01*
X168433966Y-133650154D01*
X168497782Y-133597782D01*
X168510907Y-133581789D01*
X172581790Y-129510906D01*
X172597782Y-129497782D01*
X172650154Y-129433966D01*
X172689071Y-129361158D01*
X172713035Y-129282158D01*
X172719100Y-129220580D01*
X172719100Y-129220579D01*
X172721127Y-129200000D01*
X172719100Y-129179420D01*
X172719100Y-123282335D01*
X172740185Y-123261250D01*
X172802203Y-123168433D01*
X172844922Y-123065300D01*
X172866700Y-122955815D01*
X172866700Y-122844185D01*
X172844922Y-122734700D01*
X172802203Y-122631567D01*
X172740185Y-122538750D01*
X172661250Y-122459815D01*
X172568433Y-122397797D01*
X172465300Y-122355078D01*
X172355815Y-122333300D01*
X172244185Y-122333300D01*
X172134700Y-122355078D01*
X172031567Y-122397797D01*
X171938750Y-122459815D01*
X171859815Y-122538750D01*
X171797797Y-122631567D01*
X171755078Y-122734700D01*
X171733300Y-122844185D01*
X171733300Y-122955815D01*
X171755078Y-123065300D01*
X171797797Y-123168433D01*
X171859815Y-123261250D01*
X171880901Y-123282336D01*
X171880900Y-129026404D01*
X168026404Y-132880900D01*
X152420535Y-132880900D01*
X152440185Y-132861250D01*
X152443960Y-132855600D01*
X158232545Y-132855600D01*
X158250000Y-132857319D01*
X158267455Y-132855600D01*
X158267463Y-132855600D01*
X158319710Y-132850454D01*
X158386740Y-132830121D01*
X158448516Y-132797101D01*
X158502663Y-132752663D01*
X158513799Y-132739094D01*
X161239110Y-130013785D01*
X161252662Y-130002663D01*
X161263785Y-129989110D01*
X161263795Y-129989100D01*
X161297100Y-129948517D01*
X161297102Y-129948515D01*
X161330121Y-129886740D01*
X161350454Y-129819710D01*
X161355600Y-129767463D01*
X161355600Y-129767454D01*
X161357319Y-129750001D01*
X161355600Y-129732548D01*
X161355600Y-124943960D01*
X161361250Y-124940185D01*
X161440185Y-124861250D01*
X161502203Y-124768433D01*
X161544922Y-124665300D01*
X161566700Y-124555815D01*
X161566700Y-124444185D01*
X161544922Y-124334700D01*
X161502203Y-124231567D01*
X161440185Y-124138750D01*
X161361250Y-124059815D01*
X161268433Y-123997797D01*
X161165300Y-123955078D01*
X161055815Y-123933300D01*
X160944185Y-123933300D01*
X160834700Y-123955078D01*
X160731567Y-123997797D01*
X160638750Y-124059815D01*
X160559815Y-124138750D01*
X160497797Y-124231567D01*
X160455078Y-124334700D01*
X160433300Y-124444185D01*
X160433300Y-124555815D01*
X160455078Y-124665300D01*
X160497797Y-124768433D01*
X160559815Y-124861250D01*
X160638750Y-124940185D01*
X160644401Y-124943961D01*
X160644400Y-129602705D01*
X158102707Y-132144400D01*
X152443960Y-132144400D01*
X152440185Y-132138750D01*
X152361250Y-132059815D01*
X152268433Y-131997797D01*
X152165300Y-131955078D01*
X152055815Y-131933300D01*
X151944185Y-131933300D01*
X151834700Y-131955078D01*
X151731567Y-131997797D01*
X151638750Y-132059815D01*
X151559815Y-132138750D01*
X151497797Y-132231567D01*
X151455078Y-132334700D01*
X151433300Y-132444185D01*
X151433300Y-132555815D01*
X151455078Y-132665300D01*
X151497797Y-132768433D01*
X151559815Y-132861250D01*
X151579465Y-132880900D01*
X119873597Y-132880900D01*
X118236896Y-131244199D01*
X149033300Y-131244199D01*
X149033300Y-131355829D01*
X149055078Y-131465314D01*
X149097797Y-131568447D01*
X149159815Y-131661264D01*
X149238750Y-131740199D01*
X149331567Y-131802217D01*
X149434700Y-131844936D01*
X149544185Y-131866714D01*
X149655815Y-131866714D01*
X149765300Y-131844936D01*
X149868433Y-131802217D01*
X149961250Y-131740199D01*
X150040185Y-131661264D01*
X150102203Y-131568447D01*
X150144922Y-131465314D01*
X150166700Y-131355829D01*
X150166700Y-131244199D01*
X150165374Y-131237533D01*
X151233300Y-130169608D01*
X151233300Y-130255815D01*
X151255078Y-130365300D01*
X151297797Y-130468433D01*
X151359815Y-130561250D01*
X151438750Y-130640185D01*
X151531567Y-130702203D01*
X151634700Y-130744922D01*
X151744185Y-130766700D01*
X151855815Y-130766700D01*
X151965300Y-130744922D01*
X152068433Y-130702203D01*
X152161250Y-130640185D01*
X152240185Y-130561250D01*
X152302203Y-130468433D01*
X152344922Y-130365300D01*
X152366700Y-130255815D01*
X152366700Y-130144185D01*
X152344922Y-130034700D01*
X152302203Y-129931567D01*
X152240185Y-129838750D01*
X152161250Y-129759815D01*
X152155600Y-129756040D01*
X152155600Y-125647293D01*
X154600729Y-123202164D01*
X154638750Y-123240185D01*
X154731567Y-123302203D01*
X154834700Y-123344922D01*
X154944185Y-123366700D01*
X155055815Y-123366700D01*
X155165300Y-123344922D01*
X155268433Y-123302203D01*
X155344401Y-123251443D01*
X155344400Y-127180505D01*
X155062480Y-127462426D01*
X155055815Y-127461100D01*
X154944185Y-127461100D01*
X154834700Y-127482878D01*
X154731567Y-127525597D01*
X154638750Y-127587615D01*
X154559815Y-127666550D01*
X154497797Y-127759367D01*
X154455078Y-127862500D01*
X154433300Y-127971985D01*
X154433300Y-128083615D01*
X154455078Y-128193100D01*
X154497797Y-128296233D01*
X154559815Y-128389050D01*
X154638750Y-128467985D01*
X154731567Y-128530003D01*
X154834700Y-128572722D01*
X154944185Y-128594500D01*
X155055815Y-128594500D01*
X155165300Y-128572722D01*
X155268433Y-128530003D01*
X155361250Y-128467985D01*
X155440185Y-128389050D01*
X155502203Y-128296233D01*
X155544922Y-128193100D01*
X155566700Y-128083615D01*
X155566700Y-127971985D01*
X155565374Y-127965320D01*
X155939110Y-127591585D01*
X155944401Y-127587243D01*
X155944401Y-129756039D01*
X155938750Y-129759815D01*
X155859815Y-129838750D01*
X155797797Y-129931567D01*
X155755078Y-130034700D01*
X155733300Y-130144185D01*
X155733300Y-130255815D01*
X155755078Y-130365300D01*
X155797797Y-130468433D01*
X155859815Y-130561250D01*
X155938750Y-130640185D01*
X156031567Y-130702203D01*
X156134700Y-130744922D01*
X156244185Y-130766700D01*
X156355815Y-130766700D01*
X156465300Y-130744922D01*
X156568433Y-130702203D01*
X156661250Y-130640185D01*
X156740185Y-130561250D01*
X156802203Y-130468433D01*
X156844922Y-130365300D01*
X156866700Y-130255815D01*
X156866700Y-130144185D01*
X156844922Y-130034700D01*
X156802203Y-129931567D01*
X156740185Y-129838750D01*
X156661250Y-129759815D01*
X156655600Y-129756040D01*
X156655600Y-123597293D01*
X156895815Y-123357079D01*
X156944185Y-123366700D01*
X157055815Y-123366700D01*
X157165300Y-123344922D01*
X157268433Y-123302203D01*
X157361250Y-123240185D01*
X157440185Y-123161250D01*
X157502203Y-123068433D01*
X157544922Y-122965300D01*
X157566700Y-122855815D01*
X157566700Y-122744185D01*
X157544922Y-122634700D01*
X157502203Y-122531567D01*
X157440185Y-122438750D01*
X157361250Y-122359815D01*
X157268433Y-122297797D01*
X157165300Y-122255078D01*
X157150716Y-122252177D01*
X158230593Y-121172301D01*
X160724806Y-121172301D01*
X159260901Y-122636206D01*
X159247338Y-122647337D01*
X159236207Y-122660900D01*
X159236205Y-122660902D01*
X159226958Y-122672170D01*
X159202900Y-122701484D01*
X159187503Y-122730290D01*
X159169880Y-122763259D01*
X159149546Y-122830290D01*
X159142681Y-122900000D01*
X159144401Y-122917466D01*
X159144400Y-127556040D01*
X159138750Y-127559815D01*
X159059815Y-127638750D01*
X158997797Y-127731567D01*
X158955078Y-127834700D01*
X158933300Y-127944185D01*
X158933300Y-128055815D01*
X158955078Y-128165300D01*
X158997797Y-128268433D01*
X159059815Y-128361250D01*
X159138750Y-128440185D01*
X159231567Y-128502203D01*
X159334700Y-128544922D01*
X159444185Y-128566700D01*
X159555815Y-128566700D01*
X159665300Y-128544922D01*
X159768433Y-128502203D01*
X159861250Y-128440185D01*
X159940185Y-128361250D01*
X160002203Y-128268433D01*
X160044922Y-128165300D01*
X160066700Y-128055815D01*
X160066700Y-127944185D01*
X160044922Y-127834700D01*
X160002203Y-127731567D01*
X159940185Y-127638750D01*
X159861250Y-127559815D01*
X159855600Y-127556040D01*
X159855600Y-123047293D01*
X164139104Y-118763790D01*
X164152662Y-118752663D01*
X164163790Y-118739104D01*
X164163795Y-118739099D01*
X164197101Y-118698516D01*
X164230120Y-118636741D01*
X164230121Y-118636740D01*
X164250454Y-118569710D01*
X164255600Y-118517463D01*
X164255600Y-118517455D01*
X164257319Y-118500000D01*
X164255600Y-118482545D01*
X164255600Y-116843960D01*
X164261250Y-116840185D01*
X164340185Y-116761250D01*
X164402203Y-116668433D01*
X164444922Y-116565300D01*
X164466700Y-116455815D01*
X164466700Y-116344185D01*
X164444922Y-116234700D01*
X164402203Y-116131567D01*
X164340185Y-116038750D01*
X164261250Y-115959815D01*
X164168433Y-115897797D01*
X164065300Y-115855078D01*
X163955815Y-115833300D01*
X163844185Y-115833300D01*
X163734700Y-115855078D01*
X163655600Y-115887842D01*
X163655600Y-112543960D01*
X163661250Y-112540185D01*
X163740185Y-112461250D01*
X163802203Y-112368433D01*
X163844922Y-112265300D01*
X163866700Y-112155815D01*
X163866700Y-112044185D01*
X163844922Y-111934700D01*
X163802203Y-111831567D01*
X163740185Y-111738750D01*
X163661250Y-111659815D01*
X163568433Y-111597797D01*
X163465300Y-111555078D01*
X163355815Y-111533300D01*
X163244185Y-111533300D01*
X163134700Y-111555078D01*
X163031567Y-111597797D01*
X162938750Y-111659815D01*
X162859815Y-111738750D01*
X162797797Y-111831567D01*
X162755078Y-111934700D01*
X162733300Y-112044185D01*
X162733300Y-112155815D01*
X162755078Y-112265300D01*
X162797797Y-112368433D01*
X162859815Y-112461250D01*
X162938750Y-112540185D01*
X162944401Y-112543961D01*
X162944400Y-118391423D01*
X161282094Y-120053731D01*
X161252203Y-119981567D01*
X161190185Y-119888750D01*
X161111250Y-119809815D01*
X161018433Y-119747797D01*
X160915300Y-119705078D01*
X160805815Y-119683300D01*
X160694185Y-119683300D01*
X160584700Y-119705078D01*
X160481567Y-119747797D01*
X160388750Y-119809815D01*
X160309815Y-119888750D01*
X160306040Y-119894400D01*
X156858494Y-119894400D01*
X161239100Y-115513794D01*
X161252663Y-115502663D01*
X161297101Y-115448516D01*
X161330121Y-115386740D01*
X161350454Y-115319710D01*
X161355600Y-115267463D01*
X161355600Y-115267456D01*
X161357319Y-115250001D01*
X161355600Y-115232545D01*
X161355600Y-112543960D01*
X161361250Y-112540185D01*
X161440185Y-112461250D01*
X161502203Y-112368433D01*
X161544922Y-112265300D01*
X161566700Y-112155815D01*
X161566700Y-112044185D01*
X161544922Y-111934700D01*
X161502203Y-111831567D01*
X161440185Y-111738750D01*
X161361250Y-111659815D01*
X161268433Y-111597797D01*
X161165300Y-111555078D01*
X161055815Y-111533300D01*
X160944185Y-111533300D01*
X160834700Y-111555078D01*
X160731567Y-111597797D01*
X160638750Y-111659815D01*
X160559815Y-111738750D01*
X160497797Y-111831567D01*
X160455078Y-111934700D01*
X160433300Y-112044185D01*
X160433300Y-112155815D01*
X160455078Y-112265300D01*
X160497797Y-112368433D01*
X160559815Y-112461250D01*
X160638750Y-112540185D01*
X160644400Y-112543960D01*
X160644401Y-115102705D01*
X150510902Y-125236205D01*
X150497337Y-125247338D01*
X150452899Y-125301485D01*
X150419879Y-125363261D01*
X150399546Y-125430291D01*
X150394400Y-125482538D01*
X150394400Y-125482545D01*
X150392681Y-125500000D01*
X150394400Y-125517456D01*
X150394401Y-127443203D01*
X150334700Y-127455078D01*
X150231567Y-127497797D01*
X150138750Y-127559815D01*
X150059815Y-127638750D01*
X149997797Y-127731567D01*
X149955078Y-127834700D01*
X149933300Y-127944185D01*
X149933300Y-128055815D01*
X149955078Y-128165300D01*
X149997797Y-128268433D01*
X150059815Y-128361250D01*
X150138750Y-128440185D01*
X150231567Y-128502203D01*
X150334700Y-128544922D01*
X150444185Y-128566700D01*
X150555815Y-128566700D01*
X150665300Y-128544922D01*
X150768433Y-128502203D01*
X150844401Y-128451443D01*
X150844401Y-129552719D01*
X149662481Y-130734640D01*
X149655815Y-130733314D01*
X149544185Y-130733314D01*
X149434700Y-130755092D01*
X149331567Y-130797811D01*
X149238750Y-130859829D01*
X149159815Y-130938764D01*
X149097797Y-131031581D01*
X149055078Y-131134714D01*
X149033300Y-131244199D01*
X118236896Y-131244199D01*
X116919100Y-129926404D01*
X116919100Y-127844185D01*
X146333300Y-127844185D01*
X146333300Y-127955815D01*
X146355078Y-128065300D01*
X146397797Y-128168433D01*
X146459815Y-128261250D01*
X146538750Y-128340185D01*
X146631567Y-128402203D01*
X146734700Y-128444922D01*
X146844185Y-128466700D01*
X146955815Y-128466700D01*
X147065300Y-128444922D01*
X147168433Y-128402203D01*
X147261250Y-128340185D01*
X147340185Y-128261250D01*
X147402203Y-128168433D01*
X147444922Y-128065300D01*
X147466700Y-127955815D01*
X147466700Y-127844185D01*
X147444922Y-127734700D01*
X147402203Y-127631567D01*
X147340185Y-127538750D01*
X147261250Y-127459815D01*
X147255600Y-127456040D01*
X147255600Y-123508575D01*
X165339104Y-105425072D01*
X165352662Y-105413945D01*
X165363790Y-105400386D01*
X165363795Y-105400381D01*
X165379438Y-105381320D01*
X165397101Y-105359798D01*
X165430121Y-105298022D01*
X165450454Y-105230992D01*
X165455600Y-105178745D01*
X165455600Y-105178738D01*
X165457319Y-105161282D01*
X165455600Y-105143827D01*
X165455600Y-102843960D01*
X165461250Y-102840185D01*
X165540185Y-102761250D01*
X165602203Y-102668433D01*
X165644922Y-102565300D01*
X165666700Y-102455815D01*
X165666700Y-102344185D01*
X165644922Y-102234700D01*
X165602203Y-102131567D01*
X165540185Y-102038750D01*
X165461250Y-101959815D01*
X165368433Y-101897797D01*
X165265300Y-101855078D01*
X165155815Y-101833300D01*
X165044185Y-101833300D01*
X164934700Y-101855078D01*
X164831567Y-101897797D01*
X164738750Y-101959815D01*
X164659815Y-102038750D01*
X164597797Y-102131567D01*
X164555078Y-102234700D01*
X164533300Y-102344185D01*
X164533300Y-102455815D01*
X164555078Y-102565300D01*
X164597797Y-102668433D01*
X164659815Y-102761250D01*
X164738750Y-102840185D01*
X164744401Y-102843961D01*
X164744400Y-105013988D01*
X146660901Y-123097488D01*
X146647338Y-123108619D01*
X146602900Y-123162766D01*
X146599871Y-123168433D01*
X146569880Y-123224541D01*
X146549546Y-123291572D01*
X146542681Y-123361282D01*
X146544401Y-123378748D01*
X146544400Y-127456040D01*
X146538750Y-127459815D01*
X146459815Y-127538750D01*
X146397797Y-127631567D01*
X146355078Y-127734700D01*
X146333300Y-127844185D01*
X116919100Y-127844185D01*
X116919100Y-124082335D01*
X116940185Y-124061250D01*
X117002203Y-123968433D01*
X117044922Y-123865300D01*
X117066700Y-123755815D01*
X117066700Y-123644185D01*
X117044922Y-123534700D01*
X117002203Y-123431567D01*
X116940185Y-123338750D01*
X116861250Y-123259815D01*
X116768433Y-123197797D01*
X116665300Y-123155078D01*
X116555815Y-123133300D01*
X116444185Y-123133300D01*
X116334700Y-123155078D01*
X116231567Y-123197797D01*
X116138750Y-123259815D01*
X116059815Y-123338750D01*
X115997797Y-123431567D01*
X115955078Y-123534700D01*
X115933300Y-123644185D01*
X106733626Y-123644185D01*
X106709714Y-123565360D01*
X106604757Y-123369001D01*
X106463510Y-123196890D01*
X106291399Y-123055643D01*
X106095040Y-122950686D01*
X105881978Y-122886054D01*
X105715929Y-122869700D01*
X104284071Y-122869700D01*
X104118022Y-122886054D01*
X103904960Y-122950686D01*
X103708601Y-123055643D01*
X103536490Y-123196890D01*
X103395243Y-123369001D01*
X103290286Y-123565360D01*
X103225654Y-123778422D01*
X103203831Y-124000000D01*
X94296169Y-124000000D01*
X94274346Y-123778422D01*
X94209714Y-123565360D01*
X94104757Y-123369001D01*
X93963510Y-123196890D01*
X93791399Y-123055643D01*
X93595040Y-122950686D01*
X93381978Y-122886054D01*
X93215929Y-122869700D01*
X91784071Y-122869700D01*
X91618022Y-122886054D01*
X91404960Y-122950686D01*
X91208601Y-123055643D01*
X91036490Y-123196890D01*
X90895243Y-123369001D01*
X90790286Y-123565360D01*
X90725654Y-123778422D01*
X90703831Y-124000000D01*
X90341700Y-124000000D01*
X90341700Y-121244185D01*
X128133300Y-121244185D01*
X128133300Y-121355815D01*
X128155078Y-121465300D01*
X128197797Y-121568433D01*
X128259815Y-121661250D01*
X128338750Y-121740185D01*
X128431567Y-121802203D01*
X128534700Y-121844922D01*
X128644185Y-121866700D01*
X128755815Y-121866700D01*
X128865300Y-121844922D01*
X128968433Y-121802203D01*
X129061250Y-121740185D01*
X129140185Y-121661250D01*
X129202203Y-121568433D01*
X129244922Y-121465300D01*
X129266700Y-121355815D01*
X129266700Y-121244185D01*
X129265374Y-121237519D01*
X134347294Y-116155600D01*
X150756040Y-116155600D01*
X150759815Y-116161250D01*
X150838750Y-116240185D01*
X150931567Y-116302203D01*
X151034700Y-116344922D01*
X151144185Y-116366700D01*
X151255815Y-116366700D01*
X151365300Y-116344922D01*
X151468433Y-116302203D01*
X151561250Y-116240185D01*
X151640185Y-116161250D01*
X151702203Y-116068433D01*
X151744922Y-115965300D01*
X151766700Y-115855815D01*
X151766700Y-115744185D01*
X151744922Y-115634700D01*
X151702203Y-115531567D01*
X151640185Y-115438750D01*
X151561250Y-115359815D01*
X151468433Y-115297797D01*
X151365300Y-115255078D01*
X151255815Y-115233300D01*
X151144185Y-115233300D01*
X151034700Y-115255078D01*
X150931567Y-115297797D01*
X150838750Y-115359815D01*
X150759815Y-115438750D01*
X150756040Y-115444400D01*
X134217455Y-115444400D01*
X134200000Y-115442681D01*
X134182545Y-115444400D01*
X134182537Y-115444400D01*
X134130290Y-115449546D01*
X134063260Y-115469879D01*
X134001484Y-115502899D01*
X133947337Y-115547337D01*
X133936206Y-115560900D01*
X128762481Y-120734626D01*
X128755815Y-120733300D01*
X128644185Y-120733300D01*
X128534700Y-120755078D01*
X128431567Y-120797797D01*
X128338750Y-120859815D01*
X128259815Y-120938750D01*
X128197797Y-121031567D01*
X128155078Y-121134700D01*
X128133300Y-121244185D01*
X90341700Y-121244185D01*
X90341700Y-113200000D01*
X90841607Y-113200000D01*
X90858341Y-113369903D01*
X90907900Y-113533276D01*
X90988379Y-113683842D01*
X91096686Y-113815814D01*
X91228658Y-113924121D01*
X91379224Y-114004600D01*
X91542597Y-114054159D01*
X91669928Y-114066700D01*
X91706900Y-114066700D01*
X91706901Y-114932010D01*
X91657000Y-114932010D01*
X91507173Y-114946767D01*
X91363103Y-114990470D01*
X91230328Y-115061440D01*
X91113949Y-115156949D01*
X91018440Y-115273328D01*
X90947470Y-115406103D01*
X90903767Y-115550173D01*
X90889010Y-115700000D01*
X90889010Y-116700000D01*
X90903767Y-116849827D01*
X90947470Y-116993897D01*
X91018440Y-117126672D01*
X91113949Y-117243051D01*
X91230328Y-117338560D01*
X91363103Y-117409530D01*
X91507173Y-117453233D01*
X91657000Y-117467990D01*
X91706901Y-117467990D01*
X91706900Y-118333300D01*
X91669928Y-118333300D01*
X91542597Y-118345841D01*
X91379224Y-118395400D01*
X91228658Y-118475879D01*
X91096686Y-118584186D01*
X90988379Y-118716158D01*
X90907900Y-118866724D01*
X90858341Y-119030097D01*
X90841607Y-119200000D01*
X90858341Y-119369903D01*
X90907900Y-119533276D01*
X90988379Y-119683842D01*
X91096686Y-119815814D01*
X91228658Y-119924121D01*
X91379224Y-120004600D01*
X91542597Y-120054159D01*
X91669928Y-120066700D01*
X92455072Y-120066700D01*
X92582403Y-120054159D01*
X92745776Y-120004600D01*
X92896342Y-119924121D01*
X93028314Y-119815814D01*
X93136621Y-119683842D01*
X93217100Y-119533276D01*
X93266659Y-119369903D01*
X93283393Y-119200000D01*
X93266659Y-119030097D01*
X93217100Y-118866724D01*
X93136621Y-118716158D01*
X93028314Y-118584186D01*
X92896342Y-118475879D01*
X92745776Y-118395400D01*
X92582403Y-118345841D01*
X92455072Y-118333300D01*
X92418100Y-118333300D01*
X92418100Y-117467990D01*
X92657000Y-117467990D01*
X92806827Y-117453233D01*
X92950897Y-117409530D01*
X93083672Y-117338560D01*
X93200051Y-117243051D01*
X93295560Y-117126672D01*
X93366530Y-116993897D01*
X93410233Y-116849827D01*
X93424990Y-116700000D01*
X93424990Y-115700000D01*
X93410233Y-115550173D01*
X93366530Y-115406103D01*
X93295560Y-115273328D01*
X93200051Y-115156949D01*
X93130658Y-115100000D01*
X93793987Y-115100000D01*
X93799627Y-115157262D01*
X93816329Y-115212323D01*
X93838169Y-115253182D01*
X93824659Y-115297718D01*
X93819510Y-115350000D01*
X93819510Y-115750000D01*
X93824659Y-115802282D01*
X93839910Y-115852555D01*
X93851907Y-115875000D01*
X93839910Y-115897445D01*
X93824659Y-115947718D01*
X93819510Y-116000000D01*
X93819510Y-116400000D01*
X93824659Y-116452282D01*
X93839910Y-116502555D01*
X93851907Y-116525000D01*
X93839910Y-116547445D01*
X93824659Y-116597718D01*
X93819510Y-116650000D01*
X93819510Y-117050000D01*
X93824659Y-117102282D01*
X93839910Y-117152555D01*
X93851907Y-117175000D01*
X93839910Y-117197445D01*
X93824659Y-117247718D01*
X93819510Y-117300000D01*
X93819510Y-117700000D01*
X93824659Y-117752282D01*
X93839910Y-117802555D01*
X93864674Y-117848887D01*
X93898002Y-117889498D01*
X93906234Y-117896253D01*
X93899991Y-117902496D01*
X93848916Y-117978935D01*
X93813735Y-118063869D01*
X93795800Y-118154034D01*
X93795800Y-118245966D01*
X93813735Y-118336131D01*
X93848916Y-118421065D01*
X93899991Y-118497504D01*
X93964996Y-118562509D01*
X94041435Y-118613584D01*
X94126369Y-118648765D01*
X94216534Y-118666700D01*
X94308466Y-118666700D01*
X94398631Y-118648765D01*
X94483565Y-118613584D01*
X94560004Y-118562509D01*
X94625009Y-118497504D01*
X94676084Y-118421065D01*
X94711265Y-118336131D01*
X94729200Y-118245966D01*
X94729200Y-118154034D01*
X94711265Y-118063869D01*
X94676084Y-117978935D01*
X94668771Y-117967990D01*
X95437500Y-117967990D01*
X95489782Y-117962841D01*
X95540055Y-117947590D01*
X95586387Y-117922826D01*
X95590927Y-117919100D01*
X97079420Y-117919100D01*
X97100000Y-117921127D01*
X97120580Y-117919100D01*
X97182158Y-117913035D01*
X97261158Y-117889071D01*
X97333966Y-117850154D01*
X97397782Y-117797782D01*
X97410907Y-117781789D01*
X99173597Y-116019100D01*
X100917665Y-116019100D01*
X100938750Y-116040185D01*
X101031567Y-116102203D01*
X101134700Y-116144922D01*
X101244185Y-116166700D01*
X101355815Y-116166700D01*
X101465300Y-116144922D01*
X101568433Y-116102203D01*
X101661250Y-116040185D01*
X101740185Y-115961250D01*
X101802203Y-115868433D01*
X101844922Y-115765300D01*
X101866700Y-115655815D01*
X101866700Y-115544185D01*
X101844922Y-115434700D01*
X101802203Y-115331567D01*
X101740185Y-115238750D01*
X101661250Y-115159815D01*
X101568433Y-115097797D01*
X101465300Y-115055078D01*
X101355815Y-115033300D01*
X101244185Y-115033300D01*
X101134700Y-115055078D01*
X101031567Y-115097797D01*
X100938750Y-115159815D01*
X100917665Y-115180900D01*
X99020580Y-115180900D01*
X99000000Y-115178873D01*
X98979420Y-115180900D01*
X98917842Y-115186965D01*
X98838842Y-115210929D01*
X98766034Y-115249846D01*
X98702218Y-115302218D01*
X98689097Y-115318206D01*
X96926404Y-117080900D01*
X95702447Y-117080900D01*
X95705490Y-117050000D01*
X95705490Y-116650000D01*
X95700341Y-116597718D01*
X95685090Y-116547445D01*
X95673093Y-116525000D01*
X95685090Y-116502555D01*
X95700341Y-116452282D01*
X95705490Y-116400000D01*
X95705490Y-116000000D01*
X95700341Y-115947718D01*
X95685090Y-115897445D01*
X95673093Y-115875000D01*
X95685090Y-115852555D01*
X95700341Y-115802282D01*
X95705490Y-115750000D01*
X95705490Y-115350000D01*
X95700341Y-115297718D01*
X95686831Y-115253182D01*
X95708671Y-115212323D01*
X95725373Y-115157262D01*
X95731013Y-115100000D01*
X95729600Y-114985725D01*
X95656575Y-114912700D01*
X94775200Y-114912700D01*
X94775200Y-114932700D01*
X94749800Y-114932700D01*
X94749800Y-114912700D01*
X93868425Y-114912700D01*
X93795400Y-114985725D01*
X93793987Y-115100000D01*
X93130658Y-115100000D01*
X93083672Y-115061440D01*
X92950897Y-114990470D01*
X92806827Y-114946767D01*
X92657000Y-114932010D01*
X92418100Y-114932010D01*
X92418100Y-114700000D01*
X93793987Y-114700000D01*
X93795400Y-114814275D01*
X93868425Y-114887300D01*
X94749800Y-114887300D01*
X94749800Y-114480925D01*
X94775200Y-114480925D01*
X94775200Y-114887300D01*
X95656575Y-114887300D01*
X95729600Y-114814275D01*
X95731013Y-114700000D01*
X95725373Y-114642738D01*
X95708671Y-114587677D01*
X95681547Y-114536933D01*
X95645045Y-114492455D01*
X95600567Y-114455953D01*
X95549823Y-114428829D01*
X95494762Y-114412127D01*
X95437500Y-114406487D01*
X94848225Y-114407900D01*
X94775200Y-114480925D01*
X94749800Y-114480925D01*
X94680142Y-114411267D01*
X94711265Y-114336131D01*
X94729200Y-114245966D01*
X94729200Y-114154034D01*
X94711265Y-114063869D01*
X94703112Y-114044185D01*
X104533300Y-114044185D01*
X104533300Y-114155815D01*
X104555078Y-114265300D01*
X104597797Y-114368433D01*
X104659815Y-114461250D01*
X104738750Y-114540185D01*
X104831567Y-114602203D01*
X104934700Y-114644922D01*
X105044185Y-114666700D01*
X105155815Y-114666700D01*
X105162481Y-114665374D01*
X106802911Y-116305806D01*
X106814038Y-116319364D01*
X106827596Y-116330491D01*
X106827601Y-116330496D01*
X106861314Y-116358163D01*
X106868185Y-116363802D01*
X106929961Y-116396822D01*
X106996991Y-116417155D01*
X107049238Y-116422301D01*
X107049247Y-116422301D01*
X107066700Y-116424020D01*
X107084153Y-116422301D01*
X128215844Y-116422301D01*
X128233299Y-116424020D01*
X128250754Y-116422301D01*
X128250762Y-116422301D01*
X128303009Y-116417155D01*
X128370039Y-116396822D01*
X128431815Y-116363802D01*
X128485962Y-116319364D01*
X128497098Y-116305795D01*
X130947295Y-113855600D01*
X146956040Y-113855600D01*
X146959815Y-113861250D01*
X147038750Y-113940185D01*
X147131567Y-114002203D01*
X147234700Y-114044922D01*
X147344185Y-114066700D01*
X147455815Y-114066700D01*
X147565300Y-114044922D01*
X147668433Y-114002203D01*
X147761250Y-113940185D01*
X147840185Y-113861250D01*
X147843960Y-113855600D01*
X154582545Y-113855600D01*
X154600000Y-113857319D01*
X154617455Y-113855600D01*
X154617463Y-113855600D01*
X154669710Y-113850454D01*
X154736740Y-113830121D01*
X154798516Y-113797101D01*
X154852663Y-113752663D01*
X154863799Y-113739094D01*
X164139105Y-104463790D01*
X164152663Y-104452663D01*
X164163790Y-104439105D01*
X164163795Y-104439100D01*
X164197100Y-104398517D01*
X164230120Y-104336742D01*
X164250454Y-104269711D01*
X164251133Y-104262813D01*
X164255600Y-104217463D01*
X164255600Y-104217456D01*
X164257319Y-104200001D01*
X164255600Y-104182545D01*
X164255600Y-99843960D01*
X164261250Y-99840185D01*
X164340185Y-99761250D01*
X164402203Y-99668433D01*
X164444922Y-99565300D01*
X164466700Y-99455815D01*
X164466700Y-99344185D01*
X164444922Y-99234700D01*
X164402203Y-99131567D01*
X164340185Y-99038750D01*
X164261250Y-98959815D01*
X164168433Y-98897797D01*
X164065300Y-98855078D01*
X163955815Y-98833300D01*
X163844185Y-98833300D01*
X163734700Y-98855078D01*
X163631567Y-98897797D01*
X163538750Y-98959815D01*
X163459815Y-99038750D01*
X163397797Y-99131567D01*
X163355078Y-99234700D01*
X163333300Y-99344185D01*
X163333300Y-99455815D01*
X163355078Y-99565300D01*
X163397797Y-99668433D01*
X163459815Y-99761250D01*
X163538750Y-99840185D01*
X163544400Y-99843960D01*
X163544401Y-104052704D01*
X154452707Y-113144400D01*
X147843960Y-113144400D01*
X147840185Y-113138750D01*
X147761250Y-113059815D01*
X147668433Y-112997797D01*
X147565300Y-112955078D01*
X147455815Y-112933300D01*
X147344185Y-112933300D01*
X147234700Y-112955078D01*
X147131567Y-112997797D01*
X147038750Y-113059815D01*
X146959815Y-113138750D01*
X146956040Y-113144400D01*
X130858494Y-113144400D01*
X132347294Y-111655600D01*
X137056040Y-111655600D01*
X137059815Y-111661250D01*
X137138750Y-111740185D01*
X137231567Y-111802203D01*
X137334700Y-111844922D01*
X137444185Y-111866700D01*
X137555815Y-111866700D01*
X137665300Y-111844922D01*
X137768433Y-111802203D01*
X137861250Y-111740185D01*
X137940185Y-111661250D01*
X138002203Y-111568433D01*
X138044922Y-111465300D01*
X138066700Y-111355815D01*
X138066700Y-111244185D01*
X138044922Y-111134700D01*
X138002203Y-111031567D01*
X137940185Y-110938750D01*
X137861250Y-110859815D01*
X137768433Y-110797797D01*
X137665300Y-110755078D01*
X137555815Y-110733300D01*
X137444185Y-110733300D01*
X137334700Y-110755078D01*
X137231567Y-110797797D01*
X137138750Y-110859815D01*
X137059815Y-110938750D01*
X137056040Y-110944400D01*
X132217455Y-110944400D01*
X132200000Y-110942681D01*
X132182544Y-110944400D01*
X132182537Y-110944400D01*
X132136566Y-110948928D01*
X132130289Y-110949546D01*
X132109956Y-110955714D01*
X132063260Y-110969879D01*
X132001484Y-111002899D01*
X131947337Y-111047337D01*
X131936206Y-111060900D01*
X128148179Y-114848928D01*
X128166700Y-114755815D01*
X128166700Y-114644185D01*
X128144922Y-114534700D01*
X128102203Y-114431567D01*
X128040185Y-114338750D01*
X127961250Y-114259815D01*
X127868433Y-114197797D01*
X127765300Y-114155078D01*
X127655815Y-114133300D01*
X127544185Y-114133300D01*
X127434700Y-114155078D01*
X127331567Y-114197797D01*
X127238750Y-114259815D01*
X127159815Y-114338750D01*
X127141208Y-114366597D01*
X118243960Y-114366597D01*
X118240185Y-114360947D01*
X118161250Y-114282012D01*
X118068433Y-114219994D01*
X117965300Y-114177275D01*
X117855815Y-114155497D01*
X117744185Y-114155497D01*
X117634700Y-114177275D01*
X117531567Y-114219994D01*
X117438750Y-114282012D01*
X117359815Y-114360947D01*
X117297797Y-114453764D01*
X117255078Y-114556897D01*
X117233300Y-114666382D01*
X117233300Y-114778012D01*
X117255078Y-114887497D01*
X117297797Y-114990630D01*
X117359815Y-115083447D01*
X117387467Y-115111099D01*
X117359815Y-115138750D01*
X117297797Y-115231567D01*
X117255078Y-115334700D01*
X117233300Y-115444185D01*
X117233300Y-115555815D01*
X117255078Y-115665300D01*
X117274049Y-115711101D01*
X107213996Y-115711101D01*
X105665374Y-114162481D01*
X105666700Y-114155815D01*
X105666700Y-114044185D01*
X105644922Y-113934700D01*
X105602203Y-113831567D01*
X105540185Y-113738750D01*
X105461250Y-113659815D01*
X105368433Y-113597797D01*
X105265300Y-113555078D01*
X105155815Y-113533300D01*
X105044185Y-113533300D01*
X104934700Y-113555078D01*
X104831567Y-113597797D01*
X104738750Y-113659815D01*
X104659815Y-113738750D01*
X104597797Y-113831567D01*
X104555078Y-113934700D01*
X104533300Y-114044185D01*
X94703112Y-114044185D01*
X94676084Y-113978935D01*
X94625009Y-113902496D01*
X94560004Y-113837491D01*
X94483565Y-113786416D01*
X94398631Y-113751235D01*
X94308466Y-113733300D01*
X94216534Y-113733300D01*
X94126369Y-113751235D01*
X94041435Y-113786416D01*
X93964996Y-113837491D01*
X93899991Y-113902496D01*
X93848916Y-113978935D01*
X93813735Y-114063869D01*
X93795800Y-114154034D01*
X93795800Y-114245966D01*
X93813735Y-114336131D01*
X93848916Y-114421065D01*
X93890716Y-114483623D01*
X93879955Y-114492455D01*
X93843453Y-114536933D01*
X93816329Y-114587677D01*
X93799627Y-114642738D01*
X93793987Y-114700000D01*
X92418100Y-114700000D01*
X92418100Y-114066700D01*
X92455072Y-114066700D01*
X92582403Y-114054159D01*
X92745776Y-114004600D01*
X92896342Y-113924121D01*
X93028314Y-113815814D01*
X93136621Y-113683842D01*
X93217100Y-113533276D01*
X93266659Y-113369903D01*
X93283393Y-113200000D01*
X93266659Y-113030097D01*
X93217100Y-112866724D01*
X93136621Y-112716158D01*
X93028314Y-112584186D01*
X92896342Y-112475879D01*
X92745776Y-112395400D01*
X92582403Y-112345841D01*
X92455072Y-112333300D01*
X91669928Y-112333300D01*
X91542597Y-112345841D01*
X91379224Y-112395400D01*
X91228658Y-112475879D01*
X91096686Y-112584186D01*
X90988379Y-112716158D01*
X90907900Y-112866724D01*
X90858341Y-113030097D01*
X90841607Y-113200000D01*
X90341700Y-113200000D01*
X90341700Y-111650000D01*
X109842010Y-111650000D01*
X109842010Y-113350000D01*
X109847159Y-113402282D01*
X109862410Y-113452555D01*
X109887174Y-113498887D01*
X109920502Y-113539498D01*
X109961113Y-113572826D01*
X110007445Y-113597590D01*
X110057718Y-113612841D01*
X110110000Y-113617990D01*
X111810000Y-113617990D01*
X111862282Y-113612841D01*
X111912555Y-113597590D01*
X111958887Y-113572826D01*
X111999498Y-113539498D01*
X112032826Y-113498887D01*
X112057590Y-113452555D01*
X112072841Y-113402282D01*
X112077990Y-113350000D01*
X112077990Y-112390015D01*
X112383300Y-112390015D01*
X112383300Y-112609985D01*
X112426214Y-112825729D01*
X112510394Y-113028956D01*
X112632603Y-113211855D01*
X112788145Y-113367397D01*
X112971044Y-113489606D01*
X113174271Y-113573786D01*
X113390015Y-113616700D01*
X113609985Y-113616700D01*
X113825729Y-113573786D01*
X114028956Y-113489606D01*
X114211855Y-113367397D01*
X114367397Y-113211855D01*
X114489606Y-113028956D01*
X114573786Y-112825729D01*
X114600546Y-112691196D01*
X114914017Y-112691196D01*
X114972953Y-112907191D01*
X115072895Y-113107537D01*
X115210002Y-113284536D01*
X115379006Y-113431386D01*
X115573411Y-113542443D01*
X115785747Y-113613440D01*
X115848804Y-113625982D01*
X116027300Y-113569000D01*
X116027300Y-112512700D01*
X116052700Y-112512700D01*
X116052700Y-113569000D01*
X116231196Y-113625982D01*
X116294253Y-113613440D01*
X116506589Y-113542443D01*
X116700994Y-113431386D01*
X116869998Y-113284536D01*
X117007105Y-113107537D01*
X117107047Y-112907191D01*
X117165983Y-112691196D01*
X117109005Y-112512700D01*
X116052700Y-112512700D01*
X116027300Y-112512700D01*
X114970995Y-112512700D01*
X114914017Y-112691196D01*
X114600546Y-112691196D01*
X114616700Y-112609985D01*
X114616700Y-112390015D01*
X114600547Y-112308804D01*
X114914017Y-112308804D01*
X114970995Y-112487300D01*
X116027300Y-112487300D01*
X116027300Y-111431000D01*
X116052700Y-111431000D01*
X116052700Y-112487300D01*
X117109005Y-112487300D01*
X117165983Y-112308804D01*
X117107047Y-112092809D01*
X117007105Y-111892463D01*
X116869998Y-111715464D01*
X116700994Y-111568614D01*
X116506589Y-111457557D01*
X116294253Y-111386560D01*
X116231196Y-111374018D01*
X116052700Y-111431000D01*
X116027300Y-111431000D01*
X115848804Y-111374018D01*
X115785747Y-111386560D01*
X115573411Y-111457557D01*
X115379006Y-111568614D01*
X115210002Y-111715464D01*
X115072895Y-111892463D01*
X114972953Y-112092809D01*
X114914017Y-112308804D01*
X114600547Y-112308804D01*
X114573786Y-112174271D01*
X114489606Y-111971044D01*
X114367397Y-111788145D01*
X114211855Y-111632603D01*
X114028956Y-111510394D01*
X113825729Y-111426214D01*
X113609985Y-111383300D01*
X113390015Y-111383300D01*
X113174271Y-111426214D01*
X112971044Y-111510394D01*
X112788145Y-111632603D01*
X112632603Y-111788145D01*
X112510394Y-111971044D01*
X112426214Y-112174271D01*
X112383300Y-112390015D01*
X112077990Y-112390015D01*
X112077990Y-111650000D01*
X112072841Y-111597718D01*
X112057590Y-111547445D01*
X112032826Y-111501113D01*
X111999498Y-111460502D01*
X111958887Y-111427174D01*
X111912555Y-111402410D01*
X111862282Y-111387159D01*
X111810000Y-111382010D01*
X110110000Y-111382010D01*
X110057718Y-111387159D01*
X110007445Y-111402410D01*
X109961113Y-111427174D01*
X109920502Y-111460502D01*
X109887174Y-111501113D01*
X109862410Y-111547445D01*
X109847159Y-111597718D01*
X109842010Y-111650000D01*
X90341700Y-111650000D01*
X90341700Y-97691196D01*
X96354017Y-97691196D01*
X96412953Y-97907191D01*
X96512895Y-98107537D01*
X96650002Y-98284536D01*
X96819006Y-98431386D01*
X97013411Y-98542443D01*
X97225747Y-98613440D01*
X97288804Y-98625982D01*
X97467300Y-98569000D01*
X97467300Y-97512700D01*
X97492700Y-97512700D01*
X97492700Y-98569000D01*
X97671196Y-98625982D01*
X97734253Y-98613440D01*
X97946589Y-98542443D01*
X98140994Y-98431386D01*
X98309998Y-98284536D01*
X98447105Y-98107537D01*
X98547047Y-97907191D01*
X98605983Y-97691196D01*
X98549005Y-97512700D01*
X97492700Y-97512700D01*
X97467300Y-97512700D01*
X96410995Y-97512700D01*
X96354017Y-97691196D01*
X90341700Y-97691196D01*
X90341700Y-97516710D01*
X90362085Y-97308804D01*
X96354017Y-97308804D01*
X96410995Y-97487300D01*
X97467300Y-97487300D01*
X97467300Y-96431000D01*
X97492700Y-96431000D01*
X97492700Y-97487300D01*
X98549005Y-97487300D01*
X98605983Y-97308804D01*
X98547047Y-97092809D01*
X98447105Y-96892463D01*
X98309998Y-96715464D01*
X98234659Y-96650000D01*
X98902010Y-96650000D01*
X98902010Y-98350000D01*
X98907159Y-98402282D01*
X98922410Y-98452555D01*
X98947174Y-98498887D01*
X98980502Y-98539498D01*
X99021113Y-98572826D01*
X99067445Y-98597590D01*
X99117718Y-98612841D01*
X99170000Y-98617990D01*
X100870000Y-98617990D01*
X100922282Y-98612841D01*
X100972555Y-98597590D01*
X101018887Y-98572826D01*
X101059498Y-98539498D01*
X101092826Y-98498887D01*
X101117590Y-98452555D01*
X101132841Y-98402282D01*
X101137990Y-98350000D01*
X101137990Y-96650000D01*
X101132841Y-96597718D01*
X101117590Y-96547445D01*
X101092826Y-96501113D01*
X101059498Y-96460502D01*
X101018887Y-96427174D01*
X100972555Y-96402410D01*
X100922282Y-96387159D01*
X100870000Y-96382010D01*
X99170000Y-96382010D01*
X99117718Y-96387159D01*
X99067445Y-96402410D01*
X99021113Y-96427174D01*
X98980502Y-96460502D01*
X98947174Y-96501113D01*
X98922410Y-96547445D01*
X98907159Y-96597718D01*
X98902010Y-96650000D01*
X98234659Y-96650000D01*
X98140994Y-96568614D01*
X97946589Y-96457557D01*
X97734253Y-96386560D01*
X97671196Y-96374018D01*
X97492700Y-96431000D01*
X97467300Y-96431000D01*
X97288804Y-96374018D01*
X97225747Y-96386560D01*
X97013411Y-96457557D01*
X96819006Y-96568614D01*
X96650002Y-96715464D01*
X96512895Y-96892463D01*
X96412953Y-97092809D01*
X96354017Y-97308804D01*
X90362085Y-97308804D01*
X90384412Y-97081103D01*
X90506068Y-96678158D01*
X90703670Y-96306524D01*
X90969697Y-95980342D01*
X91294009Y-95712048D01*
X91664260Y-95511854D01*
X92066345Y-95387388D01*
X92501034Y-95341700D01*
X104983290Y-95341700D01*
X105418897Y-95384412D01*
G37*
G04 #@! TD.AperFunction*
M02*
