M48
; DRILL file {KiCad 5.1.9+dfsg1-1~bpo10+1} date Sat May 29 21:01:18 2021
; FORMAT={-:-/ absolute / inch / decimal}
; #@! TF.CreationDate,2021-05-29T21:01:18+02:00
; #@! TF.GenerationSoftware,Kicad,Pcbnew,5.1.9+dfsg1-1~bpo10+1
FMAT,2
INCH
T1C0.0118
T2C0.0236
T3C0.0320
T4C0.0394
T5C0.0157
%
G90
G05
T1
X3.9252Y-4.4921
X3.9882Y-4.5512
X4.0472Y-4.6693
X4.1378Y-4.4921
X4.1732Y-4.6654
X4.2913Y-4.7835
X4.5866Y-4.8701
X4.6102Y-4.7165
X4.6378Y-4.5166
X4.6378Y-4.5472
X4.7244Y-4.7165
X5.0236Y-4.5157
X5.0669Y-4.7756
X5.4134Y-4.3819
X5.6299Y-4.9764
X5.6299Y-5.1535
X5.7362Y-4.6496
X5.7835Y-5.0354
X5.8031Y-4.4685
X5.8091Y-4.9764
X5.8898Y-5.1693
X5.9252Y-5.0394
X5.9528Y-4.5591
X5.9764Y-5.126
X5.9764Y-5.1732
X5.9843Y-5.2165
X5.9921Y-4.5354
X6.0276Y-5.0354
X6.1024Y-4.8346
X6.1024Y-5.0405
X6.1535Y-5.126
X6.1811Y-4.8346
X6.2028Y-5.0315
X6.2402Y-5.1535
X6.2677Y-4.6929
X6.2795Y-5.0394
X6.3287Y-4.7343
X6.3386Y-4.4134
X6.3386Y-4.9016
X6.4291Y-4.4134
X6.4528Y-3.9134
X6.4528Y-4.5827
X6.5Y-4.0315
X6.7835Y-4.8386
T3
X3.6417Y-4.8819
X3.6417Y-5.0787
X4.1339Y-4.8819
X4.1339Y-5.0787
T4
X3.8378Y-3.8386
X3.9378Y-3.8386
X4.3685Y-4.4291
X4.4685Y-4.4291
X4.5685Y-4.4291
X6.4953Y-3.8386
X6.5953Y-3.8386
T5
X3.7111Y-4.4961
X3.7111Y-4.6535
T2
G00X3.6107Y-4.4567
M15
G01X3.6383Y-4.4567
M16
G05
G00X3.6383Y-4.6929
M15
G01X3.6107Y-4.6929
M16
G05
T0
M30
