G04 #@! TF.GenerationSoftware,KiCad,Pcbnew,5.1.9+dfsg1-1~bpo10+1*
G04 #@! TF.CreationDate,2021-05-29T21:01:30+02:00*
G04 #@! TF.ProjectId,esp_12e_traffic_monitor,6573705f-3132-4655-9f74-726166666963,C*
G04 #@! TF.SameCoordinates,Original*
G04 #@! TF.FileFunction,Soldermask,Top*
G04 #@! TF.FilePolarity,Negative*
%FSLAX46Y46*%
G04 Gerber Fmt 4.6, Leading zero omitted, Abs format (unit mm)*
G04 Created by KiCad (PCBNEW 5.1.9+dfsg1-1~bpo10+1) date 2021-05-29 21:01:30*
%MOMM*%
%LPD*%
G01*
G04 APERTURE LIST*
%ADD10O,1.802000X1.802000*%
%ADD11O,3.150000X1.829200*%
%ADD12O,2.002000X1.302000*%
%ADD13C,0.502000*%
G04 APERTURE END LIST*
G36*
G01*
X153700000Y-132280000D02*
X154300000Y-132280000D01*
G75*
G02*
X154370000Y-132350000I0J-70000D01*
G01*
X154370000Y-133650000D01*
G75*
G02*
X154300000Y-133720000I-70000J0D01*
G01*
X153700000Y-133720000D01*
G75*
G02*
X153630000Y-133650000I0J70000D01*
G01*
X153630000Y-132350000D01*
G75*
G02*
X153700000Y-132280000I70000J0D01*
G01*
G37*
G36*
G01*
X152750000Y-130180000D02*
X153350000Y-130180000D01*
G75*
G02*
X153420000Y-130250000I0J-70000D01*
G01*
X153420000Y-131550000D01*
G75*
G02*
X153350000Y-131620000I-70000J0D01*
G01*
X152750000Y-131620000D01*
G75*
G02*
X152680000Y-131550000I0J70000D01*
G01*
X152680000Y-130250000D01*
G75*
G02*
X152750000Y-130180000I70000J0D01*
G01*
G37*
G36*
G01*
X154650000Y-130180000D02*
X155250000Y-130180000D01*
G75*
G02*
X155320000Y-130250000I0J-70000D01*
G01*
X155320000Y-131550000D01*
G75*
G02*
X155250000Y-131620000I-70000J0D01*
G01*
X154650000Y-131620000D01*
G75*
G02*
X154580000Y-131550000I0J70000D01*
G01*
X154580000Y-130250000D01*
G75*
G02*
X154650000Y-130180000I70000J0D01*
G01*
G37*
G36*
G01*
X148685000Y-119975000D02*
X148685000Y-118425000D01*
G75*
G02*
X148755000Y-118355000I70000J0D01*
G01*
X149355000Y-118355000D01*
G75*
G02*
X149425000Y-118425000I0J-70000D01*
G01*
X149425000Y-119975000D01*
G75*
G02*
X149355000Y-120045000I-70000J0D01*
G01*
X148755000Y-120045000D01*
G75*
G02*
X148685000Y-119975000I0J70000D01*
G01*
G37*
G36*
G01*
X149955000Y-119975000D02*
X149955000Y-118425000D01*
G75*
G02*
X150025000Y-118355000I70000J0D01*
G01*
X150625000Y-118355000D01*
G75*
G02*
X150695000Y-118425000I0J-70000D01*
G01*
X150695000Y-119975000D01*
G75*
G02*
X150625000Y-120045000I-70000J0D01*
G01*
X150025000Y-120045000D01*
G75*
G02*
X149955000Y-119975000I0J70000D01*
G01*
G37*
G36*
G01*
X151225000Y-119975000D02*
X151225000Y-118425000D01*
G75*
G02*
X151295000Y-118355000I70000J0D01*
G01*
X151895000Y-118355000D01*
G75*
G02*
X151965000Y-118425000I0J-70000D01*
G01*
X151965000Y-119975000D01*
G75*
G02*
X151895000Y-120045000I-70000J0D01*
G01*
X151295000Y-120045000D01*
G75*
G02*
X151225000Y-119975000I0J70000D01*
G01*
G37*
G36*
G01*
X152495000Y-119975000D02*
X152495000Y-118425000D01*
G75*
G02*
X152565000Y-118355000I70000J0D01*
G01*
X153165000Y-118355000D01*
G75*
G02*
X153235000Y-118425000I0J-70000D01*
G01*
X153235000Y-119975000D01*
G75*
G02*
X153165000Y-120045000I-70000J0D01*
G01*
X152565000Y-120045000D01*
G75*
G02*
X152495000Y-119975000I0J70000D01*
G01*
G37*
G36*
G01*
X153765000Y-119975000D02*
X153765000Y-118425000D01*
G75*
G02*
X153835000Y-118355000I70000J0D01*
G01*
X154435000Y-118355000D01*
G75*
G02*
X154505000Y-118425000I0J-70000D01*
G01*
X154505000Y-119975000D01*
G75*
G02*
X154435000Y-120045000I-70000J0D01*
G01*
X153835000Y-120045000D01*
G75*
G02*
X153765000Y-119975000I0J70000D01*
G01*
G37*
G36*
G01*
X155035000Y-119975000D02*
X155035000Y-118425000D01*
G75*
G02*
X155105000Y-118355000I70000J0D01*
G01*
X155705000Y-118355000D01*
G75*
G02*
X155775000Y-118425000I0J-70000D01*
G01*
X155775000Y-119975000D01*
G75*
G02*
X155705000Y-120045000I-70000J0D01*
G01*
X155105000Y-120045000D01*
G75*
G02*
X155035000Y-119975000I0J70000D01*
G01*
G37*
G36*
G01*
X156305000Y-119975000D02*
X156305000Y-118425000D01*
G75*
G02*
X156375000Y-118355000I70000J0D01*
G01*
X156975000Y-118355000D01*
G75*
G02*
X157045000Y-118425000I0J-70000D01*
G01*
X157045000Y-119975000D01*
G75*
G02*
X156975000Y-120045000I-70000J0D01*
G01*
X156375000Y-120045000D01*
G75*
G02*
X156305000Y-119975000I0J70000D01*
G01*
G37*
G36*
G01*
X157575000Y-119975000D02*
X157575000Y-118425000D01*
G75*
G02*
X157645000Y-118355000I70000J0D01*
G01*
X158245000Y-118355000D01*
G75*
G02*
X158315000Y-118425000I0J-70000D01*
G01*
X158315000Y-119975000D01*
G75*
G02*
X158245000Y-120045000I-70000J0D01*
G01*
X157645000Y-120045000D01*
G75*
G02*
X157575000Y-119975000I0J70000D01*
G01*
G37*
G36*
G01*
X157575000Y-114575000D02*
X157575000Y-113025000D01*
G75*
G02*
X157645000Y-112955000I70000J0D01*
G01*
X158245000Y-112955000D01*
G75*
G02*
X158315000Y-113025000I0J-70000D01*
G01*
X158315000Y-114575000D01*
G75*
G02*
X158245000Y-114645000I-70000J0D01*
G01*
X157645000Y-114645000D01*
G75*
G02*
X157575000Y-114575000I0J70000D01*
G01*
G37*
G36*
G01*
X156305000Y-114575000D02*
X156305000Y-113025000D01*
G75*
G02*
X156375000Y-112955000I70000J0D01*
G01*
X156975000Y-112955000D01*
G75*
G02*
X157045000Y-113025000I0J-70000D01*
G01*
X157045000Y-114575000D01*
G75*
G02*
X156975000Y-114645000I-70000J0D01*
G01*
X156375000Y-114645000D01*
G75*
G02*
X156305000Y-114575000I0J70000D01*
G01*
G37*
G36*
G01*
X155035000Y-114575000D02*
X155035000Y-113025000D01*
G75*
G02*
X155105000Y-112955000I70000J0D01*
G01*
X155705000Y-112955000D01*
G75*
G02*
X155775000Y-113025000I0J-70000D01*
G01*
X155775000Y-114575000D01*
G75*
G02*
X155705000Y-114645000I-70000J0D01*
G01*
X155105000Y-114645000D01*
G75*
G02*
X155035000Y-114575000I0J70000D01*
G01*
G37*
G36*
G01*
X153765000Y-114575000D02*
X153765000Y-113025000D01*
G75*
G02*
X153835000Y-112955000I70000J0D01*
G01*
X154435000Y-112955000D01*
G75*
G02*
X154505000Y-113025000I0J-70000D01*
G01*
X154505000Y-114575000D01*
G75*
G02*
X154435000Y-114645000I-70000J0D01*
G01*
X153835000Y-114645000D01*
G75*
G02*
X153765000Y-114575000I0J70000D01*
G01*
G37*
G36*
G01*
X152495000Y-114575000D02*
X152495000Y-113025000D01*
G75*
G02*
X152565000Y-112955000I70000J0D01*
G01*
X153165000Y-112955000D01*
G75*
G02*
X153235000Y-113025000I0J-70000D01*
G01*
X153235000Y-114575000D01*
G75*
G02*
X153165000Y-114645000I-70000J0D01*
G01*
X152565000Y-114645000D01*
G75*
G02*
X152495000Y-114575000I0J70000D01*
G01*
G37*
G36*
G01*
X151225000Y-114575000D02*
X151225000Y-113025000D01*
G75*
G02*
X151295000Y-112955000I70000J0D01*
G01*
X151895000Y-112955000D01*
G75*
G02*
X151965000Y-113025000I0J-70000D01*
G01*
X151965000Y-114575000D01*
G75*
G02*
X151895000Y-114645000I-70000J0D01*
G01*
X151295000Y-114645000D01*
G75*
G02*
X151225000Y-114575000I0J70000D01*
G01*
G37*
G36*
G01*
X149955000Y-114575000D02*
X149955000Y-113025000D01*
G75*
G02*
X150025000Y-112955000I70000J0D01*
G01*
X150625000Y-112955000D01*
G75*
G02*
X150695000Y-113025000I0J-70000D01*
G01*
X150695000Y-114575000D01*
G75*
G02*
X150625000Y-114645000I-70000J0D01*
G01*
X150025000Y-114645000D01*
G75*
G02*
X149955000Y-114575000I0J70000D01*
G01*
G37*
G36*
G01*
X148685000Y-114575000D02*
X148685000Y-113025000D01*
G75*
G02*
X148755000Y-112955000I70000J0D01*
G01*
X149355000Y-112955000D01*
G75*
G02*
X149425000Y-113025000I0J-70000D01*
G01*
X149425000Y-114575000D01*
G75*
G02*
X149355000Y-114645000I-70000J0D01*
G01*
X148755000Y-114645000D01*
G75*
G02*
X148685000Y-114575000I0J70000D01*
G01*
G37*
G36*
G01*
X166499000Y-110729535D02*
X166499000Y-109413323D01*
G75*
G02*
X166766894Y-109145429I267894J0D01*
G01*
X167758106Y-109145429D01*
G75*
G02*
X168026000Y-109413323I0J-267894D01*
G01*
X168026000Y-110729535D01*
G75*
G02*
X167758106Y-110997429I-267894J0D01*
G01*
X166766894Y-110997429D01*
G75*
G02*
X166499000Y-110729535I0J267894D01*
G01*
G37*
G36*
G01*
X169474000Y-110729535D02*
X169474000Y-109413323D01*
G75*
G02*
X169741894Y-109145429I267894J0D01*
G01*
X170733106Y-109145429D01*
G75*
G02*
X171001000Y-109413323I0J-267894D01*
G01*
X171001000Y-110729535D01*
G75*
G02*
X170733106Y-110997429I-267894J0D01*
G01*
X169741894Y-110997429D01*
G75*
G02*
X169474000Y-110729535I0J267894D01*
G01*
G37*
G36*
G01*
X166499000Y-102158106D02*
X166499000Y-100841894D01*
G75*
G02*
X166766894Y-100574000I267894J0D01*
G01*
X167758106Y-100574000D01*
G75*
G02*
X168026000Y-100841894I0J-267894D01*
G01*
X168026000Y-102158106D01*
G75*
G02*
X167758106Y-102426000I-267894J0D01*
G01*
X166766894Y-102426000D01*
G75*
G02*
X166499000Y-102158106I0J267894D01*
G01*
G37*
G36*
G01*
X169474000Y-102158106D02*
X169474000Y-100841894D01*
G75*
G02*
X169741894Y-100574000I267894J0D01*
G01*
X170733106Y-100574000D01*
G75*
G02*
X171001000Y-100841894I0J-267894D01*
G01*
X171001000Y-102158106D01*
G75*
G02*
X170733106Y-102426000I-267894J0D01*
G01*
X169741894Y-102426000D01*
G75*
G02*
X169474000Y-102158106I0J267894D01*
G01*
G37*
G36*
G01*
X169474000Y-106443820D02*
X169474000Y-105127608D01*
G75*
G02*
X169741894Y-104859714I267894J0D01*
G01*
X170733106Y-104859714D01*
G75*
G02*
X171001000Y-105127608I0J-267894D01*
G01*
X171001000Y-106443820D01*
G75*
G02*
X170733106Y-106711714I-267894J0D01*
G01*
X169741894Y-106711714D01*
G75*
G02*
X169474000Y-106443820I0J267894D01*
G01*
G37*
G36*
G01*
X166499000Y-106443820D02*
X166499000Y-105127608D01*
G75*
G02*
X166766894Y-104859714I267894J0D01*
G01*
X167758106Y-104859714D01*
G75*
G02*
X168026000Y-105127608I0J-267894D01*
G01*
X168026000Y-106443820D01*
G75*
G02*
X167758106Y-106711714I-267894J0D01*
G01*
X166766894Y-106711714D01*
G75*
G02*
X166499000Y-106443820I0J267894D01*
G01*
G37*
G36*
G01*
X169474000Y-115015249D02*
X169474000Y-113699037D01*
G75*
G02*
X169741894Y-113431143I267894J0D01*
G01*
X170733106Y-113431143D01*
G75*
G02*
X171001000Y-113699037I0J-267894D01*
G01*
X171001000Y-115015249D01*
G75*
G02*
X170733106Y-115283143I-267894J0D01*
G01*
X169741894Y-115283143D01*
G75*
G02*
X169474000Y-115015249I0J267894D01*
G01*
G37*
G36*
G01*
X166499000Y-115015249D02*
X166499000Y-113699037D01*
G75*
G02*
X166766894Y-113431143I267894J0D01*
G01*
X167758106Y-113431143D01*
G75*
G02*
X168026000Y-113699037I0J-267894D01*
G01*
X168026000Y-115015249D01*
G75*
G02*
X167758106Y-115283143I-267894J0D01*
G01*
X166766894Y-115283143D01*
G75*
G02*
X166499000Y-115015249I0J267894D01*
G01*
G37*
G36*
G01*
X166499000Y-119300963D02*
X166499000Y-117984751D01*
G75*
G02*
X166766894Y-117716857I267894J0D01*
G01*
X167758106Y-117716857D01*
G75*
G02*
X168026000Y-117984751I0J-267894D01*
G01*
X168026000Y-119300963D01*
G75*
G02*
X167758106Y-119568857I-267894J0D01*
G01*
X166766894Y-119568857D01*
G75*
G02*
X166499000Y-119300963I0J267894D01*
G01*
G37*
G36*
G01*
X169474000Y-119300963D02*
X169474000Y-117984751D01*
G75*
G02*
X169741894Y-117716857I267894J0D01*
G01*
X170733106Y-117716857D01*
G75*
G02*
X171001000Y-117984751I0J-267894D01*
G01*
X171001000Y-119300963D01*
G75*
G02*
X170733106Y-119568857I-267894J0D01*
G01*
X169741894Y-119568857D01*
G75*
G02*
X169474000Y-119300963I0J267894D01*
G01*
G37*
G36*
G01*
X169474000Y-123586677D02*
X169474000Y-122270465D01*
G75*
G02*
X169741894Y-122002571I267894J0D01*
G01*
X170733106Y-122002571D01*
G75*
G02*
X171001000Y-122270465I0J-267894D01*
G01*
X171001000Y-123586677D01*
G75*
G02*
X170733106Y-123854571I-267894J0D01*
G01*
X169741894Y-123854571D01*
G75*
G02*
X169474000Y-123586677I0J267894D01*
G01*
G37*
G36*
G01*
X166499000Y-123586677D02*
X166499000Y-122270465D01*
G75*
G02*
X166766894Y-122002571I267894J0D01*
G01*
X167758106Y-122002571D01*
G75*
G02*
X168026000Y-122270465I0J-267894D01*
G01*
X168026000Y-123586677D01*
G75*
G02*
X167758106Y-123854571I-267894J0D01*
G01*
X166766894Y-123854571D01*
G75*
G02*
X166499000Y-123586677I0J267894D01*
G01*
G37*
G36*
G01*
X169474000Y-127872392D02*
X169474000Y-126556180D01*
G75*
G02*
X169741894Y-126288286I267894J0D01*
G01*
X170733106Y-126288286D01*
G75*
G02*
X171001000Y-126556180I0J-267894D01*
G01*
X171001000Y-127872392D01*
G75*
G02*
X170733106Y-128140286I-267894J0D01*
G01*
X169741894Y-128140286D01*
G75*
G02*
X169474000Y-127872392I0J267894D01*
G01*
G37*
G36*
G01*
X166499000Y-127872392D02*
X166499000Y-126556180D01*
G75*
G02*
X166766894Y-126288286I267894J0D01*
G01*
X167758106Y-126288286D01*
G75*
G02*
X168026000Y-126556180I0J-267894D01*
G01*
X168026000Y-127872392D01*
G75*
G02*
X167758106Y-128140286I-267894J0D01*
G01*
X166766894Y-128140286D01*
G75*
G02*
X166499000Y-127872392I0J267894D01*
G01*
G37*
G36*
G01*
X166499000Y-132158106D02*
X166499000Y-130841894D01*
G75*
G02*
X166766894Y-130574000I267894J0D01*
G01*
X167758106Y-130574000D01*
G75*
G02*
X168026000Y-130841894I0J-267894D01*
G01*
X168026000Y-132158106D01*
G75*
G02*
X167758106Y-132426000I-267894J0D01*
G01*
X166766894Y-132426000D01*
G75*
G02*
X166499000Y-132158106I0J267894D01*
G01*
G37*
G36*
G01*
X169474000Y-132158106D02*
X169474000Y-130841894D01*
G75*
G02*
X169741894Y-130574000I267894J0D01*
G01*
X170733106Y-130574000D01*
G75*
G02*
X171001000Y-130841894I0J-267894D01*
G01*
X171001000Y-132158106D01*
G75*
G02*
X170733106Y-132426000I-267894J0D01*
G01*
X169741894Y-132426000D01*
G75*
G02*
X169474000Y-132158106I0J267894D01*
G01*
G37*
G36*
G01*
X165830000Y-98401000D02*
X164130000Y-98401000D01*
G75*
G02*
X164079000Y-98350000I0J51000D01*
G01*
X164079000Y-96650000D01*
G75*
G02*
X164130000Y-96599000I51000J0D01*
G01*
X165830000Y-96599000D01*
G75*
G02*
X165881000Y-96650000I0J-51000D01*
G01*
X165881000Y-98350000D01*
G75*
G02*
X165830000Y-98401000I-51000J0D01*
G01*
G37*
D10*
X167520000Y-97500000D03*
G36*
G01*
X111810000Y-113401000D02*
X110110000Y-113401000D01*
G75*
G02*
X110059000Y-113350000I0J51000D01*
G01*
X110059000Y-111650000D01*
G75*
G02*
X110110000Y-111599000I51000J0D01*
G01*
X111810000Y-111599000D01*
G75*
G02*
X111861000Y-111650000I0J-51000D01*
G01*
X111861000Y-113350000D01*
G75*
G02*
X111810000Y-113401000I-51000J0D01*
G01*
G37*
X113500000Y-112500000D03*
X116040000Y-112500000D03*
X97480000Y-97500000D03*
G36*
G01*
X99170000Y-96599000D02*
X100870000Y-96599000D01*
G75*
G02*
X100921000Y-96650000I0J-51000D01*
G01*
X100921000Y-98350000D01*
G75*
G02*
X100870000Y-98401000I-51000J0D01*
G01*
X99170000Y-98401000D01*
G75*
G02*
X99119000Y-98350000I0J51000D01*
G01*
X99119000Y-96650000D01*
G75*
G02*
X99170000Y-96599000I51000J0D01*
G01*
G37*
G36*
G01*
X144700000Y-127830000D02*
X145300000Y-127830000D01*
G75*
G02*
X145370000Y-127900000I0J-70000D01*
G01*
X145370000Y-129200000D01*
G75*
G02*
X145300000Y-129270000I-70000J0D01*
G01*
X144700000Y-129270000D01*
G75*
G02*
X144630000Y-129200000I0J70000D01*
G01*
X144630000Y-127900000D01*
G75*
G02*
X144700000Y-127830000I70000J0D01*
G01*
G37*
G36*
G01*
X143750000Y-125730000D02*
X144350000Y-125730000D01*
G75*
G02*
X144420000Y-125800000I0J-70000D01*
G01*
X144420000Y-127100000D01*
G75*
G02*
X144350000Y-127170000I-70000J0D01*
G01*
X143750000Y-127170000D01*
G75*
G02*
X143680000Y-127100000I0J70000D01*
G01*
X143680000Y-125800000D01*
G75*
G02*
X143750000Y-125730000I70000J0D01*
G01*
G37*
G36*
G01*
X145650000Y-125730000D02*
X146250000Y-125730000D01*
G75*
G02*
X146320000Y-125800000I0J-70000D01*
G01*
X146320000Y-127100000D01*
G75*
G02*
X146250000Y-127170000I-70000J0D01*
G01*
X145650000Y-127170000D01*
G75*
G02*
X145580000Y-127100000I0J70000D01*
G01*
X145580000Y-125800000D01*
G75*
G02*
X145650000Y-125730000I70000J0D01*
G01*
G37*
G36*
G01*
X150150000Y-125730000D02*
X150750000Y-125730000D01*
G75*
G02*
X150820000Y-125800000I0J-70000D01*
G01*
X150820000Y-127100000D01*
G75*
G02*
X150750000Y-127170000I-70000J0D01*
G01*
X150150000Y-127170000D01*
G75*
G02*
X150080000Y-127100000I0J70000D01*
G01*
X150080000Y-125800000D01*
G75*
G02*
X150150000Y-125730000I70000J0D01*
G01*
G37*
G36*
G01*
X148250000Y-125730000D02*
X148850000Y-125730000D01*
G75*
G02*
X148920000Y-125800000I0J-70000D01*
G01*
X148920000Y-127100000D01*
G75*
G02*
X148850000Y-127170000I-70000J0D01*
G01*
X148250000Y-127170000D01*
G75*
G02*
X148180000Y-127100000I0J70000D01*
G01*
X148180000Y-125800000D01*
G75*
G02*
X148250000Y-125730000I70000J0D01*
G01*
G37*
G36*
G01*
X149200000Y-127830000D02*
X149800000Y-127830000D01*
G75*
G02*
X149870000Y-127900000I0J-70000D01*
G01*
X149870000Y-129200000D01*
G75*
G02*
X149800000Y-129270000I-70000J0D01*
G01*
X149200000Y-129270000D01*
G75*
G02*
X149130000Y-129200000I0J70000D01*
G01*
X149130000Y-127900000D01*
G75*
G02*
X149200000Y-127830000I70000J0D01*
G01*
G37*
G36*
G01*
X153700000Y-127830000D02*
X154300000Y-127830000D01*
G75*
G02*
X154370000Y-127900000I0J-70000D01*
G01*
X154370000Y-129200000D01*
G75*
G02*
X154300000Y-129270000I-70000J0D01*
G01*
X153700000Y-129270000D01*
G75*
G02*
X153630000Y-129200000I0J70000D01*
G01*
X153630000Y-127900000D01*
G75*
G02*
X153700000Y-127830000I70000J0D01*
G01*
G37*
G36*
G01*
X152750000Y-125730000D02*
X153350000Y-125730000D01*
G75*
G02*
X153420000Y-125800000I0J-70000D01*
G01*
X153420000Y-127100000D01*
G75*
G02*
X153350000Y-127170000I-70000J0D01*
G01*
X152750000Y-127170000D01*
G75*
G02*
X152680000Y-127100000I0J70000D01*
G01*
X152680000Y-125800000D01*
G75*
G02*
X152750000Y-125730000I70000J0D01*
G01*
G37*
G36*
G01*
X154650000Y-125730000D02*
X155250000Y-125730000D01*
G75*
G02*
X155320000Y-125800000I0J-70000D01*
G01*
X155320000Y-127100000D01*
G75*
G02*
X155250000Y-127170000I-70000J0D01*
G01*
X154650000Y-127170000D01*
G75*
G02*
X154580000Y-127100000I0J70000D01*
G01*
X154580000Y-125800000D01*
G75*
G02*
X154650000Y-125730000I70000J0D01*
G01*
G37*
G36*
G01*
X159150000Y-125730000D02*
X159750000Y-125730000D01*
G75*
G02*
X159820000Y-125800000I0J-70000D01*
G01*
X159820000Y-127100000D01*
G75*
G02*
X159750000Y-127170000I-70000J0D01*
G01*
X159150000Y-127170000D01*
G75*
G02*
X159080000Y-127100000I0J70000D01*
G01*
X159080000Y-125800000D01*
G75*
G02*
X159150000Y-125730000I70000J0D01*
G01*
G37*
G36*
G01*
X157250000Y-125730000D02*
X157850000Y-125730000D01*
G75*
G02*
X157920000Y-125800000I0J-70000D01*
G01*
X157920000Y-127100000D01*
G75*
G02*
X157850000Y-127170000I-70000J0D01*
G01*
X157250000Y-127170000D01*
G75*
G02*
X157180000Y-127100000I0J70000D01*
G01*
X157180000Y-125800000D01*
G75*
G02*
X157250000Y-125730000I70000J0D01*
G01*
G37*
G36*
G01*
X158200000Y-127830000D02*
X158800000Y-127830000D01*
G75*
G02*
X158870000Y-127900000I0J-70000D01*
G01*
X158870000Y-129200000D01*
G75*
G02*
X158800000Y-129270000I-70000J0D01*
G01*
X158200000Y-129270000D01*
G75*
G02*
X158130000Y-129200000I0J70000D01*
G01*
X158130000Y-127900000D01*
G75*
G02*
X158200000Y-127830000I70000J0D01*
G01*
G37*
G36*
G01*
X145650000Y-130180000D02*
X146250000Y-130180000D01*
G75*
G02*
X146320000Y-130250000I0J-70000D01*
G01*
X146320000Y-131550000D01*
G75*
G02*
X146250000Y-131620000I-70000J0D01*
G01*
X145650000Y-131620000D01*
G75*
G02*
X145580000Y-131550000I0J70000D01*
G01*
X145580000Y-130250000D01*
G75*
G02*
X145650000Y-130180000I70000J0D01*
G01*
G37*
G36*
G01*
X143750000Y-130180000D02*
X144350000Y-130180000D01*
G75*
G02*
X144420000Y-130250000I0J-70000D01*
G01*
X144420000Y-131550000D01*
G75*
G02*
X144350000Y-131620000I-70000J0D01*
G01*
X143750000Y-131620000D01*
G75*
G02*
X143680000Y-131550000I0J70000D01*
G01*
X143680000Y-130250000D01*
G75*
G02*
X143750000Y-130180000I70000J0D01*
G01*
G37*
G36*
G01*
X144700000Y-132280000D02*
X145300000Y-132280000D01*
G75*
G02*
X145370000Y-132350000I0J-70000D01*
G01*
X145370000Y-133650000D01*
G75*
G02*
X145300000Y-133720000I-70000J0D01*
G01*
X144700000Y-133720000D01*
G75*
G02*
X144630000Y-133650000I0J70000D01*
G01*
X144630000Y-132350000D01*
G75*
G02*
X144700000Y-132280000I70000J0D01*
G01*
G37*
G36*
G01*
X150150000Y-130180000D02*
X150750000Y-130180000D01*
G75*
G02*
X150820000Y-130250000I0J-70000D01*
G01*
X150820000Y-131550000D01*
G75*
G02*
X150750000Y-131620000I-70000J0D01*
G01*
X150150000Y-131620000D01*
G75*
G02*
X150080000Y-131550000I0J70000D01*
G01*
X150080000Y-130250000D01*
G75*
G02*
X150150000Y-130180000I70000J0D01*
G01*
G37*
G36*
G01*
X148250000Y-130180000D02*
X148850000Y-130180000D01*
G75*
G02*
X148920000Y-130250000I0J-70000D01*
G01*
X148920000Y-131550000D01*
G75*
G02*
X148850000Y-131620000I-70000J0D01*
G01*
X148250000Y-131620000D01*
G75*
G02*
X148180000Y-131550000I0J70000D01*
G01*
X148180000Y-130250000D01*
G75*
G02*
X148250000Y-130180000I70000J0D01*
G01*
G37*
G36*
G01*
X149200000Y-132280000D02*
X149800000Y-132280000D01*
G75*
G02*
X149870000Y-132350000I0J-70000D01*
G01*
X149870000Y-133650000D01*
G75*
G02*
X149800000Y-133720000I-70000J0D01*
G01*
X149200000Y-133720000D01*
G75*
G02*
X149130000Y-133650000I0J70000D01*
G01*
X149130000Y-132350000D01*
G75*
G02*
X149200000Y-132280000I70000J0D01*
G01*
G37*
G36*
G01*
X158200000Y-132280000D02*
X158800000Y-132280000D01*
G75*
G02*
X158870000Y-132350000I0J-70000D01*
G01*
X158870000Y-133650000D01*
G75*
G02*
X158800000Y-133720000I-70000J0D01*
G01*
X158200000Y-133720000D01*
G75*
G02*
X158130000Y-133650000I0J70000D01*
G01*
X158130000Y-132350000D01*
G75*
G02*
X158200000Y-132280000I70000J0D01*
G01*
G37*
G36*
G01*
X157250000Y-130180000D02*
X157850000Y-130180000D01*
G75*
G02*
X157920000Y-130250000I0J-70000D01*
G01*
X157920000Y-131550000D01*
G75*
G02*
X157850000Y-131620000I-70000J0D01*
G01*
X157250000Y-131620000D01*
G75*
G02*
X157180000Y-131550000I0J70000D01*
G01*
X157180000Y-130250000D01*
G75*
G02*
X157250000Y-130180000I70000J0D01*
G01*
G37*
G36*
G01*
X159150000Y-130180000D02*
X159750000Y-130180000D01*
G75*
G02*
X159820000Y-130250000I0J-70000D01*
G01*
X159820000Y-131550000D01*
G75*
G02*
X159750000Y-131620000I-70000J0D01*
G01*
X159150000Y-131620000D01*
G75*
G02*
X159080000Y-131550000I0J70000D01*
G01*
X159080000Y-130250000D01*
G75*
G02*
X159150000Y-130180000I70000J0D01*
G01*
G37*
D11*
X105000000Y-124000000D03*
X105000000Y-129000000D03*
X92500000Y-124000000D03*
X92500000Y-129000000D03*
G36*
G01*
X113400000Y-118451000D02*
X109600000Y-118451000D01*
G75*
G02*
X109549000Y-118400000I0J51000D01*
G01*
X109549000Y-116400000D01*
G75*
G02*
X109600000Y-116349000I51000J0D01*
G01*
X113400000Y-116349000D01*
G75*
G02*
X113451000Y-116400000I0J-51000D01*
G01*
X113451000Y-118400000D01*
G75*
G02*
X113400000Y-118451000I-51000J0D01*
G01*
G37*
G36*
G01*
X112250000Y-124751000D02*
X110750000Y-124751000D01*
G75*
G02*
X110699000Y-124700000I0J51000D01*
G01*
X110699000Y-122700000D01*
G75*
G02*
X110750000Y-122649000I51000J0D01*
G01*
X112250000Y-122649000D01*
G75*
G02*
X112301000Y-122700000I0J-51000D01*
G01*
X112301000Y-124700000D01*
G75*
G02*
X112250000Y-124751000I-51000J0D01*
G01*
G37*
G36*
G01*
X114550000Y-124751000D02*
X113050000Y-124751000D01*
G75*
G02*
X112999000Y-124700000I0J51000D01*
G01*
X112999000Y-122700000D01*
G75*
G02*
X113050000Y-122649000I51000J0D01*
G01*
X114550000Y-122649000D01*
G75*
G02*
X114601000Y-122700000I0J-51000D01*
G01*
X114601000Y-124700000D01*
G75*
G02*
X114550000Y-124751000I-51000J0D01*
G01*
G37*
G36*
G01*
X109950000Y-124751000D02*
X108450000Y-124751000D01*
G75*
G02*
X108399000Y-124700000I0J51000D01*
G01*
X108399000Y-122700000D01*
G75*
G02*
X108450000Y-122649000I51000J0D01*
G01*
X109950000Y-122649000D01*
G75*
G02*
X110001000Y-122700000I0J-51000D01*
G01*
X110001000Y-124700000D01*
G75*
G02*
X109950000Y-124751000I-51000J0D01*
G01*
G37*
G36*
G01*
X123599000Y-111800000D02*
X123599000Y-110800000D01*
G75*
G02*
X123650000Y-110749000I51000J0D01*
G01*
X126150000Y-110749000D01*
G75*
G02*
X126201000Y-110800000I0J-51000D01*
G01*
X126201000Y-111800000D01*
G75*
G02*
X126150000Y-111851000I-51000J0D01*
G01*
X123650000Y-111851000D01*
G75*
G02*
X123599000Y-111800000I0J51000D01*
G01*
G37*
G36*
G01*
X123599000Y-113800000D02*
X123599000Y-112800000D01*
G75*
G02*
X123650000Y-112749000I51000J0D01*
G01*
X126150000Y-112749000D01*
G75*
G02*
X126201000Y-112800000I0J-51000D01*
G01*
X126201000Y-113800000D01*
G75*
G02*
X126150000Y-113851000I-51000J0D01*
G01*
X123650000Y-113851000D01*
G75*
G02*
X123599000Y-113800000I0J51000D01*
G01*
G37*
G36*
G01*
X123599000Y-115800000D02*
X123599000Y-114800000D01*
G75*
G02*
X123650000Y-114749000I51000J0D01*
G01*
X126150000Y-114749000D01*
G75*
G02*
X126201000Y-114800000I0J-51000D01*
G01*
X126201000Y-115800000D01*
G75*
G02*
X126150000Y-115851000I-51000J0D01*
G01*
X123650000Y-115851000D01*
G75*
G02*
X123599000Y-115800000I0J51000D01*
G01*
G37*
G36*
G01*
X123599000Y-117800000D02*
X123599000Y-116800000D01*
G75*
G02*
X123650000Y-116749000I51000J0D01*
G01*
X126150000Y-116749000D01*
G75*
G02*
X126201000Y-116800000I0J-51000D01*
G01*
X126201000Y-117800000D01*
G75*
G02*
X126150000Y-117851000I-51000J0D01*
G01*
X123650000Y-117851000D01*
G75*
G02*
X123599000Y-117800000I0J51000D01*
G01*
G37*
G36*
G01*
X123599000Y-119800000D02*
X123599000Y-118800000D01*
G75*
G02*
X123650000Y-118749000I51000J0D01*
G01*
X126150000Y-118749000D01*
G75*
G02*
X126201000Y-118800000I0J-51000D01*
G01*
X126201000Y-119800000D01*
G75*
G02*
X126150000Y-119851000I-51000J0D01*
G01*
X123650000Y-119851000D01*
G75*
G02*
X123599000Y-119800000I0J51000D01*
G01*
G37*
G36*
G01*
X123599000Y-121800000D02*
X123599000Y-120800000D01*
G75*
G02*
X123650000Y-120749000I51000J0D01*
G01*
X126150000Y-120749000D01*
G75*
G02*
X126201000Y-120800000I0J-51000D01*
G01*
X126201000Y-121800000D01*
G75*
G02*
X126150000Y-121851000I-51000J0D01*
G01*
X123650000Y-121851000D01*
G75*
G02*
X123599000Y-121800000I0J51000D01*
G01*
G37*
G36*
G01*
X123599000Y-123800000D02*
X123599000Y-122800000D01*
G75*
G02*
X123650000Y-122749000I51000J0D01*
G01*
X126150000Y-122749000D01*
G75*
G02*
X126201000Y-122800000I0J-51000D01*
G01*
X126201000Y-123800000D01*
G75*
G02*
X126150000Y-123851000I-51000J0D01*
G01*
X123650000Y-123851000D01*
G75*
G02*
X123599000Y-123800000I0J51000D01*
G01*
G37*
G36*
G01*
X123599000Y-125800000D02*
X123599000Y-124800000D01*
G75*
G02*
X123650000Y-124749000I51000J0D01*
G01*
X126150000Y-124749000D01*
G75*
G02*
X126201000Y-124800000I0J-51000D01*
G01*
X126201000Y-125800000D01*
G75*
G02*
X126150000Y-125851000I-51000J0D01*
G01*
X123650000Y-125851000D01*
G75*
G02*
X123599000Y-125800000I0J51000D01*
G01*
G37*
G36*
G01*
X126949000Y-127700000D02*
X126949000Y-125900000D01*
G75*
G02*
X127000000Y-125849000I51000J0D01*
G01*
X128000000Y-125849000D01*
G75*
G02*
X128051000Y-125900000I0J-51000D01*
G01*
X128051000Y-127700000D01*
G75*
G02*
X128000000Y-127751000I-51000J0D01*
G01*
X127000000Y-127751000D01*
G75*
G02*
X126949000Y-127700000I0J51000D01*
G01*
G37*
G36*
G01*
X128949000Y-127700000D02*
X128949000Y-125900000D01*
G75*
G02*
X129000000Y-125849000I51000J0D01*
G01*
X130000000Y-125849000D01*
G75*
G02*
X130051000Y-125900000I0J-51000D01*
G01*
X130051000Y-127700000D01*
G75*
G02*
X130000000Y-127751000I-51000J0D01*
G01*
X129000000Y-127751000D01*
G75*
G02*
X128949000Y-127700000I0J51000D01*
G01*
G37*
G36*
G01*
X130949000Y-127700000D02*
X130949000Y-125900000D01*
G75*
G02*
X131000000Y-125849000I51000J0D01*
G01*
X132000000Y-125849000D01*
G75*
G02*
X132051000Y-125900000I0J-51000D01*
G01*
X132051000Y-127700000D01*
G75*
G02*
X132000000Y-127751000I-51000J0D01*
G01*
X131000000Y-127751000D01*
G75*
G02*
X130949000Y-127700000I0J51000D01*
G01*
G37*
G36*
G01*
X132949000Y-127700000D02*
X132949000Y-125900000D01*
G75*
G02*
X133000000Y-125849000I51000J0D01*
G01*
X134000000Y-125849000D01*
G75*
G02*
X134051000Y-125900000I0J-51000D01*
G01*
X134051000Y-127700000D01*
G75*
G02*
X134000000Y-127751000I-51000J0D01*
G01*
X133000000Y-127751000D01*
G75*
G02*
X132949000Y-127700000I0J51000D01*
G01*
G37*
G36*
G01*
X134949000Y-127700000D02*
X134949000Y-125900000D01*
G75*
G02*
X135000000Y-125849000I51000J0D01*
G01*
X136000000Y-125849000D01*
G75*
G02*
X136051000Y-125900000I0J-51000D01*
G01*
X136051000Y-127700000D01*
G75*
G02*
X136000000Y-127751000I-51000J0D01*
G01*
X135000000Y-127751000D01*
G75*
G02*
X134949000Y-127700000I0J51000D01*
G01*
G37*
G36*
G01*
X136949000Y-127700000D02*
X136949000Y-125900000D01*
G75*
G02*
X137000000Y-125849000I51000J0D01*
G01*
X138000000Y-125849000D01*
G75*
G02*
X138051000Y-125900000I0J-51000D01*
G01*
X138051000Y-127700000D01*
G75*
G02*
X138000000Y-127751000I-51000J0D01*
G01*
X137000000Y-127751000D01*
G75*
G02*
X136949000Y-127700000I0J51000D01*
G01*
G37*
G36*
G01*
X138799000Y-125800000D02*
X138799000Y-124800000D01*
G75*
G02*
X138850000Y-124749000I51000J0D01*
G01*
X141350000Y-124749000D01*
G75*
G02*
X141401000Y-124800000I0J-51000D01*
G01*
X141401000Y-125800000D01*
G75*
G02*
X141350000Y-125851000I-51000J0D01*
G01*
X138850000Y-125851000D01*
G75*
G02*
X138799000Y-125800000I0J51000D01*
G01*
G37*
G36*
G01*
X138799000Y-123800000D02*
X138799000Y-122800000D01*
G75*
G02*
X138850000Y-122749000I51000J0D01*
G01*
X141350000Y-122749000D01*
G75*
G02*
X141401000Y-122800000I0J-51000D01*
G01*
X141401000Y-123800000D01*
G75*
G02*
X141350000Y-123851000I-51000J0D01*
G01*
X138850000Y-123851000D01*
G75*
G02*
X138799000Y-123800000I0J51000D01*
G01*
G37*
G36*
G01*
X138799000Y-121800000D02*
X138799000Y-120800000D01*
G75*
G02*
X138850000Y-120749000I51000J0D01*
G01*
X141350000Y-120749000D01*
G75*
G02*
X141401000Y-120800000I0J-51000D01*
G01*
X141401000Y-121800000D01*
G75*
G02*
X141350000Y-121851000I-51000J0D01*
G01*
X138850000Y-121851000D01*
G75*
G02*
X138799000Y-121800000I0J51000D01*
G01*
G37*
G36*
G01*
X138799000Y-119800000D02*
X138799000Y-118800000D01*
G75*
G02*
X138850000Y-118749000I51000J0D01*
G01*
X141350000Y-118749000D01*
G75*
G02*
X141401000Y-118800000I0J-51000D01*
G01*
X141401000Y-119800000D01*
G75*
G02*
X141350000Y-119851000I-51000J0D01*
G01*
X138850000Y-119851000D01*
G75*
G02*
X138799000Y-119800000I0J51000D01*
G01*
G37*
G36*
G01*
X138799000Y-117800000D02*
X138799000Y-116800000D01*
G75*
G02*
X138850000Y-116749000I51000J0D01*
G01*
X141350000Y-116749000D01*
G75*
G02*
X141401000Y-116800000I0J-51000D01*
G01*
X141401000Y-117800000D01*
G75*
G02*
X141350000Y-117851000I-51000J0D01*
G01*
X138850000Y-117851000D01*
G75*
G02*
X138799000Y-117800000I0J51000D01*
G01*
G37*
G36*
G01*
X138799000Y-115800000D02*
X138799000Y-114800000D01*
G75*
G02*
X138850000Y-114749000I51000J0D01*
G01*
X141350000Y-114749000D01*
G75*
G02*
X141401000Y-114800000I0J-51000D01*
G01*
X141401000Y-115800000D01*
G75*
G02*
X141350000Y-115851000I-51000J0D01*
G01*
X138850000Y-115851000D01*
G75*
G02*
X138799000Y-115800000I0J51000D01*
G01*
G37*
G36*
G01*
X138799000Y-113800000D02*
X138799000Y-112800000D01*
G75*
G02*
X138850000Y-112749000I51000J0D01*
G01*
X141350000Y-112749000D01*
G75*
G02*
X141401000Y-112800000I0J-51000D01*
G01*
X141401000Y-113800000D01*
G75*
G02*
X141350000Y-113851000I-51000J0D01*
G01*
X138850000Y-113851000D01*
G75*
G02*
X138799000Y-113800000I0J51000D01*
G01*
G37*
G36*
G01*
X138799000Y-111800000D02*
X138799000Y-110800000D01*
G75*
G02*
X138850000Y-110749000I51000J0D01*
G01*
X141350000Y-110749000D01*
G75*
G02*
X141401000Y-110800000I0J-51000D01*
G01*
X141401000Y-111800000D01*
G75*
G02*
X141350000Y-111851000I-51000J0D01*
G01*
X138850000Y-111851000D01*
G75*
G02*
X138799000Y-111800000I0J51000D01*
G01*
G37*
G36*
G01*
X102553666Y-116774000D02*
X103079666Y-116774000D01*
G75*
G02*
X103342666Y-117037000I0J-263000D01*
G01*
X103342666Y-117688000D01*
G75*
G02*
X103079666Y-117951000I-263000J0D01*
G01*
X102553666Y-117951000D01*
G75*
G02*
X102290666Y-117688000I0J263000D01*
G01*
X102290666Y-117037000D01*
G75*
G02*
X102553666Y-116774000I263000J0D01*
G01*
G37*
G36*
G01*
X102553666Y-115049000D02*
X103079666Y-115049000D01*
G75*
G02*
X103342666Y-115312000I0J-263000D01*
G01*
X103342666Y-115963000D01*
G75*
G02*
X103079666Y-116226000I-263000J0D01*
G01*
X102553666Y-116226000D01*
G75*
G02*
X102290666Y-115963000I0J263000D01*
G01*
X102290666Y-115312000D01*
G75*
G02*
X102553666Y-115049000I263000J0D01*
G01*
G37*
G36*
G01*
X105712000Y-115049000D02*
X106238000Y-115049000D01*
G75*
G02*
X106501000Y-115312000I0J-263000D01*
G01*
X106501000Y-115963000D01*
G75*
G02*
X106238000Y-116226000I-263000J0D01*
G01*
X105712000Y-116226000D01*
G75*
G02*
X105449000Y-115963000I0J263000D01*
G01*
X105449000Y-115312000D01*
G75*
G02*
X105712000Y-115049000I263000J0D01*
G01*
G37*
G36*
G01*
X105712000Y-116774000D02*
X106238000Y-116774000D01*
G75*
G02*
X106501000Y-117037000I0J-263000D01*
G01*
X106501000Y-117688000D01*
G75*
G02*
X106238000Y-117951000I-263000J0D01*
G01*
X105712000Y-117951000D01*
G75*
G02*
X105449000Y-117688000I0J263000D01*
G01*
X105449000Y-117037000D01*
G75*
G02*
X105712000Y-116774000I263000J0D01*
G01*
G37*
G36*
G01*
X116812000Y-116174000D02*
X117338000Y-116174000D01*
G75*
G02*
X117601000Y-116437000I0J-263000D01*
G01*
X117601000Y-117088000D01*
G75*
G02*
X117338000Y-117351000I-263000J0D01*
G01*
X116812000Y-117351000D01*
G75*
G02*
X116549000Y-117088000I0J263000D01*
G01*
X116549000Y-116437000D01*
G75*
G02*
X116812000Y-116174000I263000J0D01*
G01*
G37*
G36*
G01*
X116812000Y-117899000D02*
X117338000Y-117899000D01*
G75*
G02*
X117601000Y-118162000I0J-263000D01*
G01*
X117601000Y-118813000D01*
G75*
G02*
X117338000Y-119076000I-263000J0D01*
G01*
X116812000Y-119076000D01*
G75*
G02*
X116549000Y-118813000I0J263000D01*
G01*
X116549000Y-118162000D01*
G75*
G02*
X116812000Y-117899000I263000J0D01*
G01*
G37*
G36*
G01*
X119812000Y-117899000D02*
X120338000Y-117899000D01*
G75*
G02*
X120601000Y-118162000I0J-263000D01*
G01*
X120601000Y-118813000D01*
G75*
G02*
X120338000Y-119076000I-263000J0D01*
G01*
X119812000Y-119076000D01*
G75*
G02*
X119549000Y-118813000I0J263000D01*
G01*
X119549000Y-118162000D01*
G75*
G02*
X119812000Y-117899000I263000J0D01*
G01*
G37*
G36*
G01*
X119812000Y-116174000D02*
X120338000Y-116174000D01*
G75*
G02*
X120601000Y-116437000I0J-263000D01*
G01*
X120601000Y-117088000D01*
G75*
G02*
X120338000Y-117351000I-263000J0D01*
G01*
X119812000Y-117351000D01*
G75*
G02*
X119549000Y-117088000I0J263000D01*
G01*
X119549000Y-116437000D01*
G75*
G02*
X119812000Y-116174000I263000J0D01*
G01*
G37*
G36*
G01*
X99921333Y-117951000D02*
X99395333Y-117951000D01*
G75*
G02*
X99132333Y-117688000I0J263000D01*
G01*
X99132333Y-117037000D01*
G75*
G02*
X99395333Y-116774000I263000J0D01*
G01*
X99921333Y-116774000D01*
G75*
G02*
X100184333Y-117037000I0J-263000D01*
G01*
X100184333Y-117688000D01*
G75*
G02*
X99921333Y-117951000I-263000J0D01*
G01*
G37*
G36*
G01*
X99921333Y-116226000D02*
X99395333Y-116226000D01*
G75*
G02*
X99132333Y-115963000I0J263000D01*
G01*
X99132333Y-115312000D01*
G75*
G02*
X99395333Y-115049000I263000J0D01*
G01*
X99921333Y-115049000D01*
G75*
G02*
X100184333Y-115312000I0J-263000D01*
G01*
X100184333Y-115963000D01*
G75*
G02*
X99921333Y-116226000I-263000J0D01*
G01*
G37*
D12*
X92062500Y-113200000D03*
X92062500Y-119200000D03*
D13*
X94262500Y-114200000D03*
X94262500Y-118200000D03*
G36*
G01*
X146326000Y-113237000D02*
X146326000Y-113763000D01*
G75*
G02*
X146063000Y-114026000I-263000J0D01*
G01*
X145512000Y-114026000D01*
G75*
G02*
X145249000Y-113763000I0J263000D01*
G01*
X145249000Y-113237000D01*
G75*
G02*
X145512000Y-112974000I263000J0D01*
G01*
X146063000Y-112974000D01*
G75*
G02*
X146326000Y-113237000I0J-263000D01*
G01*
G37*
G36*
G01*
X144501000Y-113237000D02*
X144501000Y-113763000D01*
G75*
G02*
X144238000Y-114026000I-263000J0D01*
G01*
X143687000Y-114026000D01*
G75*
G02*
X143424000Y-113763000I0J263000D01*
G01*
X143424000Y-113237000D01*
G75*
G02*
X143687000Y-112974000I263000J0D01*
G01*
X144238000Y-112974000D01*
G75*
G02*
X144501000Y-113237000I0J-263000D01*
G01*
G37*
G36*
G01*
X146326000Y-116237000D02*
X146326000Y-116763000D01*
G75*
G02*
X146063000Y-117026000I-263000J0D01*
G01*
X145512000Y-117026000D01*
G75*
G02*
X145249000Y-116763000I0J263000D01*
G01*
X145249000Y-116237000D01*
G75*
G02*
X145512000Y-115974000I263000J0D01*
G01*
X146063000Y-115974000D01*
G75*
G02*
X146326000Y-116237000I0J-263000D01*
G01*
G37*
G36*
G01*
X144501000Y-116237000D02*
X144501000Y-116763000D01*
G75*
G02*
X144238000Y-117026000I-263000J0D01*
G01*
X143687000Y-117026000D01*
G75*
G02*
X143424000Y-116763000I0J263000D01*
G01*
X143424000Y-116237000D01*
G75*
G02*
X143687000Y-115974000I263000J0D01*
G01*
X144238000Y-115974000D01*
G75*
G02*
X144501000Y-116237000I0J-263000D01*
G01*
G37*
G36*
G01*
X120049000Y-115263000D02*
X120049000Y-114737000D01*
G75*
G02*
X120312000Y-114474000I263000J0D01*
G01*
X120863000Y-114474000D01*
G75*
G02*
X121126000Y-114737000I0J-263000D01*
G01*
X121126000Y-115263000D01*
G75*
G02*
X120863000Y-115526000I-263000J0D01*
G01*
X120312000Y-115526000D01*
G75*
G02*
X120049000Y-115263000I0J263000D01*
G01*
G37*
G36*
G01*
X121874000Y-115263000D02*
X121874000Y-114737000D01*
G75*
G02*
X122137000Y-114474000I263000J0D01*
G01*
X122688000Y-114474000D01*
G75*
G02*
X122951000Y-114737000I0J-263000D01*
G01*
X122951000Y-115263000D01*
G75*
G02*
X122688000Y-115526000I-263000J0D01*
G01*
X122137000Y-115526000D01*
G75*
G02*
X121874000Y-115263000I0J263000D01*
G01*
G37*
G36*
G01*
X96237000Y-116874000D02*
X96763000Y-116874000D01*
G75*
G02*
X97026000Y-117137000I0J-263000D01*
G01*
X97026000Y-117688000D01*
G75*
G02*
X96763000Y-117951000I-263000J0D01*
G01*
X96237000Y-117951000D01*
G75*
G02*
X95974000Y-117688000I0J263000D01*
G01*
X95974000Y-117137000D01*
G75*
G02*
X96237000Y-116874000I263000J0D01*
G01*
G37*
G36*
G01*
X96237000Y-115049000D02*
X96763000Y-115049000D01*
G75*
G02*
X97026000Y-115312000I0J-263000D01*
G01*
X97026000Y-115863000D01*
G75*
G02*
X96763000Y-116126000I-263000J0D01*
G01*
X96237000Y-116126000D01*
G75*
G02*
X95974000Y-115863000I0J263000D01*
G01*
X95974000Y-115312000D01*
G75*
G02*
X96237000Y-115049000I263000J0D01*
G01*
G37*
G36*
G01*
X144501000Y-119237000D02*
X144501000Y-119763000D01*
G75*
G02*
X144238000Y-120026000I-263000J0D01*
G01*
X143687000Y-120026000D01*
G75*
G02*
X143424000Y-119763000I0J263000D01*
G01*
X143424000Y-119237000D01*
G75*
G02*
X143687000Y-118974000I263000J0D01*
G01*
X144238000Y-118974000D01*
G75*
G02*
X144501000Y-119237000I0J-263000D01*
G01*
G37*
G36*
G01*
X146326000Y-119237000D02*
X146326000Y-119763000D01*
G75*
G02*
X146063000Y-120026000I-263000J0D01*
G01*
X145512000Y-120026000D01*
G75*
G02*
X145249000Y-119763000I0J263000D01*
G01*
X145249000Y-119237000D01*
G75*
G02*
X145512000Y-118974000I263000J0D01*
G01*
X146063000Y-118974000D01*
G75*
G02*
X146326000Y-119237000I0J-263000D01*
G01*
G37*
G36*
G01*
X144263000Y-122501000D02*
X143737000Y-122501000D01*
G75*
G02*
X143474000Y-122238000I0J263000D01*
G01*
X143474000Y-121687000D01*
G75*
G02*
X143737000Y-121424000I263000J0D01*
G01*
X144263000Y-121424000D01*
G75*
G02*
X144526000Y-121687000I0J-263000D01*
G01*
X144526000Y-122238000D01*
G75*
G02*
X144263000Y-122501000I-263000J0D01*
G01*
G37*
G36*
G01*
X144263000Y-124326000D02*
X143737000Y-124326000D01*
G75*
G02*
X143474000Y-124063000I0J263000D01*
G01*
X143474000Y-123512000D01*
G75*
G02*
X143737000Y-123249000I263000J0D01*
G01*
X144263000Y-123249000D01*
G75*
G02*
X144526000Y-123512000I0J-263000D01*
G01*
X144526000Y-124063000D01*
G75*
G02*
X144263000Y-124326000I-263000J0D01*
G01*
G37*
G36*
G01*
X146263000Y-124326000D02*
X145737000Y-124326000D01*
G75*
G02*
X145474000Y-124063000I0J263000D01*
G01*
X145474000Y-123512000D01*
G75*
G02*
X145737000Y-123249000I263000J0D01*
G01*
X146263000Y-123249000D01*
G75*
G02*
X146526000Y-123512000I0J-263000D01*
G01*
X146526000Y-124063000D01*
G75*
G02*
X146263000Y-124326000I-263000J0D01*
G01*
G37*
G36*
G01*
X146263000Y-122501000D02*
X145737000Y-122501000D01*
G75*
G02*
X145474000Y-122238000I0J263000D01*
G01*
X145474000Y-121687000D01*
G75*
G02*
X145737000Y-121424000I263000J0D01*
G01*
X146263000Y-121424000D01*
G75*
G02*
X146526000Y-121687000I0J-263000D01*
G01*
X146526000Y-122238000D01*
G75*
G02*
X146263000Y-122501000I-263000J0D01*
G01*
G37*
G36*
G01*
X148263000Y-122501000D02*
X147737000Y-122501000D01*
G75*
G02*
X147474000Y-122238000I0J263000D01*
G01*
X147474000Y-121687000D01*
G75*
G02*
X147737000Y-121424000I263000J0D01*
G01*
X148263000Y-121424000D01*
G75*
G02*
X148526000Y-121687000I0J-263000D01*
G01*
X148526000Y-122238000D01*
G75*
G02*
X148263000Y-122501000I-263000J0D01*
G01*
G37*
G36*
G01*
X148263000Y-124326000D02*
X147737000Y-124326000D01*
G75*
G02*
X147474000Y-124063000I0J263000D01*
G01*
X147474000Y-123512000D01*
G75*
G02*
X147737000Y-123249000I263000J0D01*
G01*
X148263000Y-123249000D01*
G75*
G02*
X148526000Y-123512000I0J-263000D01*
G01*
X148526000Y-124063000D01*
G75*
G02*
X148263000Y-124326000I-263000J0D01*
G01*
G37*
G36*
G01*
X150263000Y-124326000D02*
X149737000Y-124326000D01*
G75*
G02*
X149474000Y-124063000I0J263000D01*
G01*
X149474000Y-123512000D01*
G75*
G02*
X149737000Y-123249000I263000J0D01*
G01*
X150263000Y-123249000D01*
G75*
G02*
X150526000Y-123512000I0J-263000D01*
G01*
X150526000Y-124063000D01*
G75*
G02*
X150263000Y-124326000I-263000J0D01*
G01*
G37*
G36*
G01*
X150263000Y-122501000D02*
X149737000Y-122501000D01*
G75*
G02*
X149474000Y-122238000I0J263000D01*
G01*
X149474000Y-121687000D01*
G75*
G02*
X149737000Y-121424000I263000J0D01*
G01*
X150263000Y-121424000D01*
G75*
G02*
X150526000Y-121687000I0J-263000D01*
G01*
X150526000Y-122238000D01*
G75*
G02*
X150263000Y-122501000I-263000J0D01*
G01*
G37*
G36*
G01*
X152263000Y-122501000D02*
X151737000Y-122501000D01*
G75*
G02*
X151474000Y-122238000I0J263000D01*
G01*
X151474000Y-121687000D01*
G75*
G02*
X151737000Y-121424000I263000J0D01*
G01*
X152263000Y-121424000D01*
G75*
G02*
X152526000Y-121687000I0J-263000D01*
G01*
X152526000Y-122238000D01*
G75*
G02*
X152263000Y-122501000I-263000J0D01*
G01*
G37*
G36*
G01*
X152263000Y-124326000D02*
X151737000Y-124326000D01*
G75*
G02*
X151474000Y-124063000I0J263000D01*
G01*
X151474000Y-123512000D01*
G75*
G02*
X151737000Y-123249000I263000J0D01*
G01*
X152263000Y-123249000D01*
G75*
G02*
X152526000Y-123512000I0J-263000D01*
G01*
X152526000Y-124063000D01*
G75*
G02*
X152263000Y-124326000I-263000J0D01*
G01*
G37*
G36*
G01*
X162263000Y-101126000D02*
X161737000Y-101126000D01*
G75*
G02*
X161474000Y-100863000I0J263000D01*
G01*
X161474000Y-100312000D01*
G75*
G02*
X161737000Y-100049000I263000J0D01*
G01*
X162263000Y-100049000D01*
G75*
G02*
X162526000Y-100312000I0J-263000D01*
G01*
X162526000Y-100863000D01*
G75*
G02*
X162263000Y-101126000I-263000J0D01*
G01*
G37*
G36*
G01*
X162263000Y-102951000D02*
X161737000Y-102951000D01*
G75*
G02*
X161474000Y-102688000I0J263000D01*
G01*
X161474000Y-102137000D01*
G75*
G02*
X161737000Y-101874000I263000J0D01*
G01*
X162263000Y-101874000D01*
G75*
G02*
X162526000Y-102137000I0J-263000D01*
G01*
X162526000Y-102688000D01*
G75*
G02*
X162263000Y-102951000I-263000J0D01*
G01*
G37*
G36*
G01*
X162263000Y-107236700D02*
X161737000Y-107236700D01*
G75*
G02*
X161474000Y-106973700I0J263000D01*
G01*
X161474000Y-106422700D01*
G75*
G02*
X161737000Y-106159700I263000J0D01*
G01*
X162263000Y-106159700D01*
G75*
G02*
X162526000Y-106422700I0J-263000D01*
G01*
X162526000Y-106973700D01*
G75*
G02*
X162263000Y-107236700I-263000J0D01*
G01*
G37*
G36*
G01*
X162263000Y-105411700D02*
X161737000Y-105411700D01*
G75*
G02*
X161474000Y-105148700I0J263000D01*
G01*
X161474000Y-104597700D01*
G75*
G02*
X161737000Y-104334700I263000J0D01*
G01*
X162263000Y-104334700D01*
G75*
G02*
X162526000Y-104597700I0J-263000D01*
G01*
X162526000Y-105148700D01*
G75*
G02*
X162263000Y-105411700I-263000J0D01*
G01*
G37*
G36*
G01*
X162263000Y-111522429D02*
X161737000Y-111522429D01*
G75*
G02*
X161474000Y-111259429I0J263000D01*
G01*
X161474000Y-110708429D01*
G75*
G02*
X161737000Y-110445429I263000J0D01*
G01*
X162263000Y-110445429D01*
G75*
G02*
X162526000Y-110708429I0J-263000D01*
G01*
X162526000Y-111259429D01*
G75*
G02*
X162263000Y-111522429I-263000J0D01*
G01*
G37*
G36*
G01*
X162263000Y-109697429D02*
X161737000Y-109697429D01*
G75*
G02*
X161474000Y-109434429I0J263000D01*
G01*
X161474000Y-108883429D01*
G75*
G02*
X161737000Y-108620429I263000J0D01*
G01*
X162263000Y-108620429D01*
G75*
G02*
X162526000Y-108883429I0J-263000D01*
G01*
X162526000Y-109434429D01*
G75*
G02*
X162263000Y-109697429I-263000J0D01*
G01*
G37*
G36*
G01*
X162263000Y-113983143D02*
X161737000Y-113983143D01*
G75*
G02*
X161474000Y-113720143I0J263000D01*
G01*
X161474000Y-113169143D01*
G75*
G02*
X161737000Y-112906143I263000J0D01*
G01*
X162263000Y-112906143D01*
G75*
G02*
X162526000Y-113169143I0J-263000D01*
G01*
X162526000Y-113720143D01*
G75*
G02*
X162263000Y-113983143I-263000J0D01*
G01*
G37*
G36*
G01*
X162263000Y-115808143D02*
X161737000Y-115808143D01*
G75*
G02*
X161474000Y-115545143I0J263000D01*
G01*
X161474000Y-114994143D01*
G75*
G02*
X161737000Y-114731143I263000J0D01*
G01*
X162263000Y-114731143D01*
G75*
G02*
X162526000Y-114994143I0J-263000D01*
G01*
X162526000Y-115545143D01*
G75*
G02*
X162263000Y-115808143I-263000J0D01*
G01*
G37*
G36*
G01*
X162263000Y-118268857D02*
X161737000Y-118268857D01*
G75*
G02*
X161474000Y-118005857I0J263000D01*
G01*
X161474000Y-117454857D01*
G75*
G02*
X161737000Y-117191857I263000J0D01*
G01*
X162263000Y-117191857D01*
G75*
G02*
X162526000Y-117454857I0J-263000D01*
G01*
X162526000Y-118005857D01*
G75*
G02*
X162263000Y-118268857I-263000J0D01*
G01*
G37*
G36*
G01*
X162263000Y-120093857D02*
X161737000Y-120093857D01*
G75*
G02*
X161474000Y-119830857I0J263000D01*
G01*
X161474000Y-119279857D01*
G75*
G02*
X161737000Y-119016857I263000J0D01*
G01*
X162263000Y-119016857D01*
G75*
G02*
X162526000Y-119279857I0J-263000D01*
G01*
X162526000Y-119830857D01*
G75*
G02*
X162263000Y-120093857I-263000J0D01*
G01*
G37*
G36*
G01*
X162263000Y-124379571D02*
X161737000Y-124379571D01*
G75*
G02*
X161474000Y-124116571I0J263000D01*
G01*
X161474000Y-123565571D01*
G75*
G02*
X161737000Y-123302571I263000J0D01*
G01*
X162263000Y-123302571D01*
G75*
G02*
X162526000Y-123565571I0J-263000D01*
G01*
X162526000Y-124116571D01*
G75*
G02*
X162263000Y-124379571I-263000J0D01*
G01*
G37*
G36*
G01*
X162263000Y-122554571D02*
X161737000Y-122554571D01*
G75*
G02*
X161474000Y-122291571I0J263000D01*
G01*
X161474000Y-121740571D01*
G75*
G02*
X161737000Y-121477571I263000J0D01*
G01*
X162263000Y-121477571D01*
G75*
G02*
X162526000Y-121740571I0J-263000D01*
G01*
X162526000Y-122291571D01*
G75*
G02*
X162263000Y-122554571I-263000J0D01*
G01*
G37*
G36*
G01*
X162263000Y-126840286D02*
X161737000Y-126840286D01*
G75*
G02*
X161474000Y-126577286I0J263000D01*
G01*
X161474000Y-126026286D01*
G75*
G02*
X161737000Y-125763286I263000J0D01*
G01*
X162263000Y-125763286D01*
G75*
G02*
X162526000Y-126026286I0J-263000D01*
G01*
X162526000Y-126577286D01*
G75*
G02*
X162263000Y-126840286I-263000J0D01*
G01*
G37*
G36*
G01*
X162263000Y-128665286D02*
X161737000Y-128665286D01*
G75*
G02*
X161474000Y-128402286I0J263000D01*
G01*
X161474000Y-127851286D01*
G75*
G02*
X161737000Y-127588286I263000J0D01*
G01*
X162263000Y-127588286D01*
G75*
G02*
X162526000Y-127851286I0J-263000D01*
G01*
X162526000Y-128402286D01*
G75*
G02*
X162263000Y-128665286I-263000J0D01*
G01*
G37*
G36*
G01*
X162263000Y-132951000D02*
X161737000Y-132951000D01*
G75*
G02*
X161474000Y-132688000I0J263000D01*
G01*
X161474000Y-132137000D01*
G75*
G02*
X161737000Y-131874000I263000J0D01*
G01*
X162263000Y-131874000D01*
G75*
G02*
X162526000Y-132137000I0J-263000D01*
G01*
X162526000Y-132688000D01*
G75*
G02*
X162263000Y-132951000I-263000J0D01*
G01*
G37*
G36*
G01*
X162263000Y-131126000D02*
X161737000Y-131126000D01*
G75*
G02*
X161474000Y-130863000I0J263000D01*
G01*
X161474000Y-130312000D01*
G75*
G02*
X161737000Y-130049000I263000J0D01*
G01*
X162263000Y-130049000D01*
G75*
G02*
X162526000Y-130312000I0J-263000D01*
G01*
X162526000Y-130863000D01*
G75*
G02*
X162263000Y-131126000I-263000J0D01*
G01*
G37*
G36*
G01*
X154263000Y-124326000D02*
X153737000Y-124326000D01*
G75*
G02*
X153474000Y-124063000I0J263000D01*
G01*
X153474000Y-123512000D01*
G75*
G02*
X153737000Y-123249000I263000J0D01*
G01*
X154263000Y-123249000D01*
G75*
G02*
X154526000Y-123512000I0J-263000D01*
G01*
X154526000Y-124063000D01*
G75*
G02*
X154263000Y-124326000I-263000J0D01*
G01*
G37*
G36*
G01*
X154263000Y-122501000D02*
X153737000Y-122501000D01*
G75*
G02*
X153474000Y-122238000I0J263000D01*
G01*
X153474000Y-121687000D01*
G75*
G02*
X153737000Y-121424000I263000J0D01*
G01*
X154263000Y-121424000D01*
G75*
G02*
X154526000Y-121687000I0J-263000D01*
G01*
X154526000Y-122238000D01*
G75*
G02*
X154263000Y-122501000I-263000J0D01*
G01*
G37*
G36*
G01*
X156263000Y-122501000D02*
X155737000Y-122501000D01*
G75*
G02*
X155474000Y-122238000I0J263000D01*
G01*
X155474000Y-121687000D01*
G75*
G02*
X155737000Y-121424000I263000J0D01*
G01*
X156263000Y-121424000D01*
G75*
G02*
X156526000Y-121687000I0J-263000D01*
G01*
X156526000Y-122238000D01*
G75*
G02*
X156263000Y-122501000I-263000J0D01*
G01*
G37*
G36*
G01*
X156263000Y-124326000D02*
X155737000Y-124326000D01*
G75*
G02*
X155474000Y-124063000I0J263000D01*
G01*
X155474000Y-123512000D01*
G75*
G02*
X155737000Y-123249000I263000J0D01*
G01*
X156263000Y-123249000D01*
G75*
G02*
X156526000Y-123512000I0J-263000D01*
G01*
X156526000Y-124063000D01*
G75*
G02*
X156263000Y-124326000I-263000J0D01*
G01*
G37*
G36*
G01*
X158263000Y-124326000D02*
X157737000Y-124326000D01*
G75*
G02*
X157474000Y-124063000I0J263000D01*
G01*
X157474000Y-123512000D01*
G75*
G02*
X157737000Y-123249000I263000J0D01*
G01*
X158263000Y-123249000D01*
G75*
G02*
X158526000Y-123512000I0J-263000D01*
G01*
X158526000Y-124063000D01*
G75*
G02*
X158263000Y-124326000I-263000J0D01*
G01*
G37*
G36*
G01*
X158263000Y-122501000D02*
X157737000Y-122501000D01*
G75*
G02*
X157474000Y-122238000I0J263000D01*
G01*
X157474000Y-121687000D01*
G75*
G02*
X157737000Y-121424000I263000J0D01*
G01*
X158263000Y-121424000D01*
G75*
G02*
X158526000Y-121687000I0J-263000D01*
G01*
X158526000Y-122238000D01*
G75*
G02*
X158263000Y-122501000I-263000J0D01*
G01*
G37*
M02*
